<svg xmlns="http://www.w3.org/2000/svg" xmlns:xlink="http://www.w3.org/1999/xlink" width="150" zoomAndPan="magnify" viewBox="0 0 112.5 112.499997" height="150" preserveAspectRatio="xMidYMid meet" version="1.0"><defs><g/><clipPath id="1ac2b60a37"><path d="M 0 0 L 112.003906 0 L 112.003906 112.003906 L 0 112.003906 Z M 0 0 " clip-rule="nonzero"/></clipPath><clipPath id="85858bb4b5"><path d="M 33.75 44 L 78 44 L 78 72.039062 L 33.75 72.039062 Z M 33.75 44 " clip-rule="nonzero"/></clipPath></defs><g clip-path="url(#1ac2b60a37)"><path fill="#ffffff" d="M 0 0 L 112.5 0 L 112.5 120 L 0 120 Z M 0 0 " fill-opacity="1" fill-rule="nonzero"/><path fill="#ffffff" d="M 0 0 L 112.5 0 L 112.5 112.5 L 0 112.5 Z M 0 0 " fill-opacity="1" fill-rule="nonzero"/><path fill="#f1f1f1" d="M 0 0 L 112.5 0 L 112.5 112.5 L 0 112.5 Z M 0 0 " fill-opacity="1" fill-rule="nonzero"/></g><path fill="#46a49e" d="M 65.835938 28.875 C 66.554688 26.742188 66.917969 22.414062 66.023438 20.800781 C 64.988281 18.925781 59.253906 15.820312 54.015625 16.496094 C 48.269531 17.234375 43.785156 22.226562 45.847656 28.652344 C 43.503906 32.453125 45.046875 35.210938 47.523438 36.03125 L 47.523438 36.027344 C 49.085938 42.707031 54.914062 47.519531 60.074219 43.136719 C 62.160156 41.371094 63.511719 38.664062 64.105469 36.003906 C 66.628906 35.050781 67.910156 32.402344 65.835938 28.875 Z M 64.398438 34.09375 C 64.472656 33.257812 64.46875 32.390625 64.355469 31.554688 C 63.859375 35.253906 62.285156 38.566406 60.476562 40.625 C 54.40625 47.480469 48.21875 38.820312 47.238281 31.511719 C 47.125 32.378906 47.128906 33.277344 47.210938 34.136719 C 45.980469 33.199219 45.992188 31.867188 46.613281 30.46875 C 46.800781 30.832031 47.011719 31.179688 47.238281 31.511719 C 47.675781 27.632812 49.414062 24.375 49.925781 24 C 50.40625 23.648438 51.074219 23.785156 51.65625 23.914062 C 54.011719 24.417969 56.402344 24.3125 60.0625 24.203125 C 60.625 24.1875 61.40625 23.835938 61.863281 24.234375 C 62.734375 25 64.605469 30.207031 64.355469 31.554688 C 64.519531 31.398438 64.890625 30.851562 65.015625 30.648438 C 65.554688 31.964844 65.523438 33.199219 64.398438 34.09375 " fill-opacity="1" fill-rule="nonzero"/><path fill="#46a49e" d="M 61.871094 29.273438 L 58.003906 29.273438 C 57.246094 29.273438 56.613281 29.851562 56.53125 30.585938 L 55.023438 30.585938 C 54.941406 29.851562 54.308594 29.273438 53.550781 29.273438 L 49.683594 29.273438 C 48.863281 29.273438 48.199219 29.941406 48.199219 30.753906 L 48.199219 32.824219 C 48.199219 33.976562 49.144531 34.917969 50.304688 34.917969 L 52.925781 34.917969 C 54.085938 34.917969 55.03125 33.976562 55.03125 32.824219 L 55.03125 31.945312 L 56.523438 31.945312 C 56.523438 35.332031 58.066406 34.917969 61.25 34.917969 C 62.410156 34.917969 63.355469 33.976562 63.355469 32.824219 L 63.355469 30.753906 C 63.355469 29.941406 62.691406 29.273438 61.871094 29.273438 Z M 52.925781 33.664062 C 48.976562 33.664062 49.453125 34.042969 49.453125 30.753906 C 49.453125 30.625 49.558594 30.527344 49.683594 30.527344 L 53.550781 30.527344 C 53.671875 30.527344 53.773438 30.625 53.773438 30.753906 C 53.773438 32.554688 53.992188 33.664062 52.925781 33.664062 Z M 61.25 33.664062 C 57.386719 33.664062 57.78125 34.140625 57.78125 30.753906 C 57.78125 30.625 57.882812 30.527344 58.003906 30.527344 L 61.871094 30.527344 C 61.996094 30.527344 62.101562 30.625 62.101562 30.753906 C 62.101562 32.554688 62.316406 33.664062 61.25 33.664062 " fill-opacity="1" fill-rule="nonzero"/><path fill="#46a49e" d="M 58.886719 65.171875 L 56.890625 52.710938 L 57.160156 52.710938 C 57.230469 51.332031 57.738281 50.148438 58.238281 49.300781 C 58.605469 48.683594 58.152344 47.90625 57.429688 47.90625 L 54.125 47.90625 C 53.402344 47.90625 52.949219 48.683594 53.316406 49.300781 C 53.816406 50.148438 54.324219 51.332031 54.394531 52.710938 L 54.664062 52.710938 L 52.667969 65.171875 L 58.886719 65.171875 " fill-opacity="1" fill-rule="nonzero"/><g clip-path="url(#85858bb4b5)"><path fill="#46a49e" d="M 62.789062 44.828125 L 55.777344 61.742188 L 48.765625 44.828125 L 39.441406 49.886719 C 36.308594 51.589844 34.320312 54.8125 34.207031 58.363281 L 33.839844 70.464844 C 33.8125 71.332031 34.511719 72.050781 35.386719 72.050781 L 76.167969 72.050781 C 77.042969 72.050781 77.742188 71.332031 77.714844 70.464844 C 77.113281 50.746094 78.703125 53.464844 62.789062 44.828125 " fill-opacity="1" fill-rule="nonzero"/></g><path fill="#46a49e" d="M 46.023438 60.207031 C 47.027344 60.207031 47.027344 58.699219 46.023438 58.699219 C 45.023438 58.699219 45.023438 60.207031 46.023438 60.207031 " fill-opacity="1" fill-rule="nonzero"/><path fill="#f1f1f1" d="M 70.160156 55.519531 C 70.363281 54.511719 68.09375 53.867188 67.953125 52.992188 C 67.796875 52.015625 67.859375 51.421875 67.328125 51.207031 C 67.152344 50.085938 66.773438 48.183594 66.082031 46.617188 L 64.898438 45.972656 C 65.785156 47.410156 66.328125 49.796875 66.582031 51.34375 L 66.566406 51.351562 C 65.898438 51.992188 66.898438 53.011719 66.460938 53.707031 L 65.265625 55.589844 C 65.144531 55.785156 65.132812 56.019531 65.210938 56.21875 C 63.058594 60.59375 63.882812 63.691406 65.855469 63.863281 C 65.890625 63.917969 65.953125 63.953125 66.023438 63.953125 L 67.121094 63.972656 C 67.253906 63.972656 67.355469 63.859375 67.335938 63.734375 L 67.1875 62.835938 C 67.167969 62.703125 67.035156 62.625 66.914062 62.667969 L 65.980469 62.988281 C 63.875 62.242188 65.019531 58.660156 65.976562 56.660156 C 66.855469 56.519531 67.070312 54.316406 68.136719 55.191406 C 68.464844 55.464844 69.089844 56.089844 69.480469 56.085938 C 71.03125 57.695312 73.246094 60.757812 71.464844 62.125 L 70.457031 62.105469 C 70.324219 62.101562 70.222656 62.222656 70.242188 62.347656 L 70.386719 63.246094 C 70.40625 63.375 70.542969 63.457031 70.667969 63.410156 L 71.703125 63.054688 C 71.765625 63.03125 71.816406 62.980469 71.835938 62.921875 C 73.058594 62.503906 74.253906 59.796875 70.160156 55.519531 " fill-opacity="1" fill-rule="nonzero"/><path fill="#f1f1f1" d="M 45.339844 57.832031 C 44.035156 55.050781 44.667969 49.757812 45.175781 46.777344 L 44.328125 47.238281 C 43.816406 50.410156 43.324219 55.480469 44.714844 58.277344 C 44.433594 58.585938 44.257812 59 44.257812 59.453125 C 44.257812 61.777344 47.792969 61.777344 47.792969 59.453125 C 47.792969 58.199219 46.503906 57.34375 45.339844 57.832031 Z M 45.265625 59.453125 C 45.265625 58.457031 46.78125 58.457031 46.78125 59.453125 C 46.78125 60.449219 45.265625 60.449219 45.265625 59.453125 " fill-opacity="1" fill-rule="nonzero"/><g fill="#000000" fill-opacity="1"><g transform="translate(28.195312, 86.957913)"><g><path d="M 6.671875 0 L 6.328125 -4.40625 L 6.28125 -4.40625 L 4.765625 -0.046875 L 3.75 -0.046875 L 2.234375 -4.40625 L 2.1875 -4.40625 L 1.84375 0 L 0.140625 0 L 0.8125 -7.421875 L 2.609375 -7.421875 L 4.25 -3.140625 L 5.90625 -7.421875 L 7.703125 -7.421875 L 8.375 0 Z M 6.671875 0 "/></g></g></g><g fill="#000000" fill-opacity="1"><g transform="translate(36.709304, 86.957913)"><g><path d="M -0.265625 -7.421875 L 1.765625 -7.421875 L 3.3125 -5.046875 L 4.859375 -7.421875 L 6.890625 -7.421875 L 4.15625 -3.328125 L 4.15625 0 L 2.46875 0 L 2.46875 -3.328125 Z M -0.265625 -7.421875 "/></g></g></g><g fill="#000000" fill-opacity="1"><g transform="translate(43.333297, 86.957913)"><g/></g></g><g fill="#000000" fill-opacity="1"><g transform="translate(45.790293, 86.957913)"><g><path d="M 0.546875 -7.421875 L 3.25 -7.421875 C 4.007812 -7.421875 4.617188 -7.222656 5.078125 -6.828125 C 5.546875 -6.441406 5.78125 -5.875 5.78125 -5.125 C 5.78125 -4.382812 5.539062 -3.800781 5.0625 -3.375 C 4.59375 -2.957031 3.988281 -2.75 3.25 -2.75 L 2.234375 -2.75 L 2.234375 0 L 0.546875 0 Z M 2.234375 -4.109375 L 2.703125 -4.109375 C 3.085938 -4.109375 3.398438 -4.179688 3.640625 -4.328125 C 3.878906 -4.484375 4 -4.734375 4 -5.078125 C 4 -5.429688 3.878906 -5.6875 3.640625 -5.84375 C 3.398438 -6 3.085938 -6.078125 2.703125 -6.078125 L 2.234375 -6.078125 Z M 2.234375 -4.109375 "/></g></g></g><g fill="#000000" fill-opacity="1"><g transform="translate(51.784285, 86.957913)"><g><path d="M 0.546875 -7.421875 L 3.1875 -7.421875 C 3.90625 -7.421875 4.488281 -7.226562 4.9375 -6.84375 C 5.382812 -6.46875 5.609375 -5.925781 5.609375 -5.21875 C 5.609375 -4.675781 5.472656 -4.21875 5.203125 -3.84375 C 4.929688 -3.476562 4.5625 -3.21875 4.09375 -3.0625 L 6.65625 0 L 4.5 0 L 2.234375 -2.9375 L 2.234375 0 L 0.546875 0 Z M 2.234375 -4.125 L 2.4375 -4.125 C 2.582031 -4.125 2.707031 -4.128906 2.8125 -4.140625 C 2.925781 -4.148438 3.050781 -4.171875 3.1875 -4.203125 C 3.332031 -4.234375 3.445312 -4.28125 3.53125 -4.34375 C 3.613281 -4.414062 3.679688 -4.515625 3.734375 -4.640625 C 3.796875 -4.765625 3.828125 -4.914062 3.828125 -5.09375 C 3.828125 -5.28125 3.796875 -5.4375 3.734375 -5.5625 C 3.679688 -5.6875 3.613281 -5.78125 3.53125 -5.84375 C 3.445312 -5.914062 3.332031 -5.96875 3.1875 -6 C 3.050781 -6.039062 2.925781 -6.0625 2.8125 -6.0625 C 2.707031 -6.070312 2.582031 -6.078125 2.4375 -6.078125 L 2.234375 -6.078125 Z M 2.234375 -4.125 "/></g></g></g><g fill="#000000" fill-opacity="1"><g transform="translate(58.228278, 86.957913)"><g><path d="M 0.203125 -3.71875 C 0.203125 -4.789062 0.566406 -5.695312 1.296875 -6.4375 C 2.035156 -7.1875 2.921875 -7.5625 3.953125 -7.5625 C 4.992188 -7.5625 5.875 -7.191406 6.59375 -6.453125 C 7.320312 -5.710938 7.6875 -4.800781 7.6875 -3.71875 C 7.6875 -2.632812 7.328125 -1.71875 6.609375 -0.96875 C 5.898438 -0.226562 5.015625 0.140625 3.953125 0.140625 C 2.867188 0.140625 1.972656 -0.222656 1.265625 -0.953125 C 0.554688 -1.691406 0.203125 -2.613281 0.203125 -3.71875 Z M 2.03125 -3.71875 C 2.03125 -3.320312 2.085938 -2.960938 2.203125 -2.640625 C 2.328125 -2.328125 2.539062 -2.054688 2.84375 -1.828125 C 3.144531 -1.609375 3.515625 -1.5 3.953125 -1.5 C 4.578125 -1.5 5.050781 -1.710938 5.375 -2.140625 C 5.695312 -2.578125 5.859375 -3.101562 5.859375 -3.71875 C 5.859375 -4.320312 5.691406 -4.84375 5.359375 -5.28125 C 5.035156 -5.71875 4.566406 -5.9375 3.953125 -5.9375 C 3.335938 -5.9375 2.863281 -5.71875 2.53125 -5.28125 C 2.195312 -4.84375 2.03125 -4.320312 2.03125 -3.71875 Z M 2.03125 -3.71875 "/></g></g></g><g fill="#000000" fill-opacity="1"><g transform="translate(66.121271, 86.957913)"><g><path d="M 4.828125 -7.421875 L 4.828125 -5.9375 L 2.234375 -5.9375 L 2.234375 -4.46875 L 4.640625 -4.46875 L 4.640625 -2.984375 L 2.234375 -2.984375 L 2.234375 0 L 0.546875 0 L 0.546875 -7.421875 Z M 4.828125 -7.421875 "/></g></g></g><g fill="#000000" fill-opacity="1"><g transform="translate(71.224265, 86.957913)"><g><path d="M 2.234375 -7.421875 L 2.234375 0 L 0.546875 0 L 0.546875 -7.421875 Z M 2.234375 -7.421875 "/></g></g></g><g fill="#000000" fill-opacity="1"><g transform="translate(73.996263, 86.957913)"><g><path d="M 2.234375 -7.421875 L 2.234375 -1.484375 L 4.78125 -1.484375 L 4.78125 0 L 0.546875 0 L 0.546875 -7.421875 Z M 2.234375 -7.421875 "/></g></g></g><g fill="#000000" fill-opacity="1"><g transform="translate(79.081257, 86.957913)"><g><path d="M 4.78125 -7.421875 L 4.78125 -5.9375 L 2.234375 -5.9375 L 2.234375 -4.46875 L 4.6875 -4.46875 L 4.6875 -2.984375 L 2.234375 -2.984375 L 2.234375 -1.484375 L 4.78125 -1.484375 L 4.78125 0 L 0.546875 0 L 0.546875 -7.421875 Z M 4.78125 -7.421875 "/></g></g></g><g fill="#46a49e" fill-opacity="1"><g transform="translate(42.485155, 95.939183)"><g><path d="M 0.40625 0 C 0.375 0 0.347656 -0.0078125 0.328125 -0.03125 C 0.316406 -0.0507812 0.3125 -0.078125 0.3125 -0.109375 L 0.3125 -2.78125 C 0.3125 -2.8125 0.316406 -2.835938 0.328125 -2.859375 C 0.347656 -2.878906 0.375 -2.890625 0.40625 -2.890625 L 0.796875 -2.890625 C 0.835938 -2.890625 0.867188 -2.878906 0.890625 -2.859375 C 0.910156 -2.835938 0.921875 -2.820312 0.921875 -2.8125 L 1.6875 -1.40625 L 2.453125 -2.8125 C 2.460938 -2.820312 2.476562 -2.835938 2.5 -2.859375 C 2.519531 -2.878906 2.550781 -2.890625 2.59375 -2.890625 L 2.96875 -2.890625 C 3 -2.890625 3.023438 -2.878906 3.046875 -2.859375 C 3.066406 -2.835938 3.078125 -2.8125 3.078125 -2.78125 L 3.078125 -0.109375 C 3.078125 -0.078125 3.066406 -0.0507812 3.046875 -0.03125 C 3.023438 -0.0078125 3 0 2.96875 0 L 2.546875 0 C 2.523438 0 2.503906 -0.0078125 2.484375 -0.03125 C 2.460938 -0.0507812 2.453125 -0.078125 2.453125 -0.109375 L 2.453125 -1.765625 L 1.921875 -0.78125 C 1.910156 -0.757812 1.894531 -0.738281 1.875 -0.71875 C 1.851562 -0.695312 1.820312 -0.6875 1.78125 -0.6875 L 1.59375 -0.6875 C 1.550781 -0.6875 1.519531 -0.695312 1.5 -0.71875 C 1.476562 -0.738281 1.460938 -0.757812 1.453125 -0.78125 L 0.9375 -1.765625 L 0.9375 -0.109375 C 0.9375 -0.078125 0.925781 -0.0507812 0.90625 -0.03125 C 0.882812 -0.0078125 0.859375 0 0.828125 0 Z M 0.40625 0 "/></g></g></g><g fill="#46a49e" fill-opacity="1"><g transform="translate(46.275084, 95.939183)"><g><path d="M 0.40625 0 C 0.375 0 0.347656 -0.0078125 0.328125 -0.03125 C 0.316406 -0.0507812 0.3125 -0.078125 0.3125 -0.109375 L 0.3125 -2.78125 C 0.3125 -2.8125 0.316406 -2.835938 0.328125 -2.859375 C 0.347656 -2.878906 0.375 -2.890625 0.40625 -2.890625 L 2.28125 -2.890625 C 2.3125 -2.890625 2.332031 -2.878906 2.34375 -2.859375 C 2.363281 -2.835938 2.375 -2.8125 2.375 -2.78125 L 2.375 -2.453125 C 2.375 -2.421875 2.363281 -2.394531 2.34375 -2.375 C 2.332031 -2.351562 2.3125 -2.34375 2.28125 -2.34375 L 0.9375 -2.34375 L 0.9375 -1.703125 L 2.1875 -1.703125 C 2.21875 -1.703125 2.242188 -1.691406 2.265625 -1.671875 C 2.285156 -1.660156 2.296875 -1.640625 2.296875 -1.609375 L 2.296875 -1.296875 C 2.296875 -1.273438 2.285156 -1.253906 2.265625 -1.234375 C 2.242188 -1.210938 2.21875 -1.203125 2.1875 -1.203125 L 0.9375 -1.203125 L 0.9375 -0.53125 L 2.3125 -0.53125 C 2.34375 -0.53125 2.363281 -0.519531 2.375 -0.5 C 2.394531 -0.488281 2.40625 -0.46875 2.40625 -0.4375 L 2.40625 -0.109375 C 2.40625 -0.078125 2.394531 -0.0507812 2.375 -0.03125 C 2.363281 -0.0078125 2.34375 0 2.3125 0 Z M 0.40625 0 "/></g></g></g><g fill="#46a49e" fill-opacity="1"><g transform="translate(49.289731, 95.939183)"><g><path d="M 0.40625 0 C 0.375 0 0.347656 -0.0078125 0.328125 -0.03125 C 0.316406 -0.0507812 0.3125 -0.078125 0.3125 -0.109375 L 0.3125 -2.78125 C 0.3125 -2.8125 0.316406 -2.835938 0.328125 -2.859375 C 0.347656 -2.878906 0.375 -2.890625 0.40625 -2.890625 L 1.4375 -2.890625 C 1.71875 -2.890625 1.945312 -2.84375 2.125 -2.75 C 2.3125 -2.664062 2.453125 -2.539062 2.546875 -2.375 C 2.648438 -2.207031 2.703125 -2.003906 2.703125 -1.765625 C 2.710938 -1.640625 2.71875 -1.53125 2.71875 -1.4375 C 2.71875 -1.351562 2.710938 -1.25 2.703125 -1.125 C 2.703125 -0.875 2.65625 -0.664062 2.5625 -0.5 C 2.46875 -0.332031 2.328125 -0.207031 2.140625 -0.125 C 1.960938 -0.0390625 1.738281 0 1.46875 0 Z M 0.96875 -0.53125 L 1.4375 -0.53125 C 1.582031 -0.53125 1.695312 -0.550781 1.78125 -0.59375 C 1.863281 -0.632812 1.925781 -0.695312 1.96875 -0.78125 C 2.019531 -0.875 2.046875 -0.992188 2.046875 -1.140625 C 2.046875 -1.222656 2.046875 -1.296875 2.046875 -1.359375 C 2.046875 -1.421875 2.046875 -1.484375 2.046875 -1.546875 C 2.046875 -1.609375 2.046875 -1.675781 2.046875 -1.75 C 2.035156 -1.957031 1.976562 -2.109375 1.875 -2.203125 C 1.78125 -2.296875 1.628906 -2.34375 1.421875 -2.34375 L 0.96875 -2.34375 Z M 0.96875 -0.53125 "/></g></g></g><g fill="#46a49e" fill-opacity="1"><g transform="translate(52.626038, 95.939183)"><g><path d="M 0.40625 0 C 0.375 0 0.347656 -0.0078125 0.328125 -0.03125 C 0.316406 -0.0507812 0.3125 -0.078125 0.3125 -0.109375 L 0.3125 -2.78125 C 0.3125 -2.8125 0.316406 -2.835938 0.328125 -2.859375 C 0.347656 -2.878906 0.375 -2.890625 0.40625 -2.890625 L 0.875 -2.890625 C 0.90625 -2.890625 0.929688 -2.878906 0.953125 -2.859375 C 0.972656 -2.835938 0.984375 -2.8125 0.984375 -2.78125 L 0.984375 -0.109375 C 0.984375 -0.078125 0.972656 -0.0507812 0.953125 -0.03125 C 0.929688 -0.0078125 0.90625 0 0.875 0 Z M 0.40625 0 "/></g></g></g><g fill="#46a49e" fill-opacity="1"><g transform="translate(54.321055, 95.939183)"><g><path d="M 1.34375 0.046875 C 1.082031 0.046875 0.863281 0.0078125 0.6875 -0.0625 C 0.507812 -0.144531 0.375 -0.25 0.28125 -0.375 C 0.1875 -0.5 0.140625 -0.628906 0.140625 -0.765625 C 0.140625 -0.796875 0.144531 -0.816406 0.15625 -0.828125 C 0.175781 -0.847656 0.195312 -0.859375 0.21875 -0.859375 L 0.671875 -0.859375 C 0.703125 -0.859375 0.726562 -0.847656 0.75 -0.828125 C 0.769531 -0.816406 0.785156 -0.800781 0.796875 -0.78125 C 0.816406 -0.726562 0.847656 -0.679688 0.890625 -0.640625 C 0.941406 -0.597656 1.003906 -0.5625 1.078125 -0.53125 C 1.148438 -0.507812 1.238281 -0.5 1.34375 -0.5 C 1.519531 -0.5 1.648438 -0.523438 1.734375 -0.578125 C 1.828125 -0.640625 1.875 -0.71875 1.875 -0.8125 C 1.875 -0.882812 1.847656 -0.941406 1.796875 -0.984375 C 1.753906 -1.023438 1.679688 -1.0625 1.578125 -1.09375 C 1.472656 -1.132812 1.335938 -1.175781 1.171875 -1.21875 C 0.960938 -1.257812 0.785156 -1.316406 0.640625 -1.390625 C 0.492188 -1.460938 0.382812 -1.550781 0.3125 -1.65625 C 0.238281 -1.769531 0.203125 -1.910156 0.203125 -2.078125 C 0.203125 -2.242188 0.25 -2.390625 0.34375 -2.515625 C 0.4375 -2.640625 0.566406 -2.738281 0.734375 -2.8125 C 0.898438 -2.882812 1.09375 -2.921875 1.3125 -2.921875 C 1.5 -2.921875 1.660156 -2.894531 1.796875 -2.84375 C 1.941406 -2.800781 2.0625 -2.738281 2.15625 -2.65625 C 2.257812 -2.582031 2.332031 -2.5 2.375 -2.40625 C 2.425781 -2.3125 2.453125 -2.222656 2.453125 -2.140625 C 2.453125 -2.117188 2.441406 -2.097656 2.421875 -2.078125 C 2.410156 -2.054688 2.394531 -2.046875 2.375 -2.046875 L 1.90625 -2.046875 C 1.882812 -2.046875 1.859375 -2.050781 1.828125 -2.0625 C 1.804688 -2.070312 1.789062 -2.09375 1.78125 -2.125 C 1.757812 -2.195312 1.707031 -2.257812 1.625 -2.3125 C 1.550781 -2.363281 1.445312 -2.390625 1.3125 -2.390625 C 1.1875 -2.390625 1.082031 -2.363281 1 -2.3125 C 0.914062 -2.269531 0.875 -2.195312 0.875 -2.09375 C 0.875 -2.03125 0.894531 -1.972656 0.9375 -1.921875 C 0.976562 -1.878906 1.046875 -1.835938 1.140625 -1.796875 C 1.234375 -1.765625 1.363281 -1.734375 1.53125 -1.703125 C 1.769531 -1.648438 1.960938 -1.585938 2.109375 -1.515625 C 2.265625 -1.453125 2.375 -1.363281 2.4375 -1.25 C 2.507812 -1.144531 2.546875 -1.007812 2.546875 -0.84375 C 2.546875 -0.65625 2.492188 -0.492188 2.390625 -0.359375 C 2.296875 -0.234375 2.15625 -0.132812 1.96875 -0.0625 C 1.789062 0.0078125 1.582031 0.046875 1.34375 0.046875 Z M 1.34375 0.046875 "/></g></g></g><g fill="#46a49e" fill-opacity="1"><g transform="translate(57.422303, 95.939183)"><g><path d="M 0.40625 0 C 0.375 0 0.347656 -0.0078125 0.328125 -0.03125 C 0.316406 -0.0507812 0.3125 -0.078125 0.3125 -0.109375 L 0.3125 -2.78125 C 0.3125 -2.8125 0.316406 -2.835938 0.328125 -2.859375 C 0.347656 -2.878906 0.375 -2.890625 0.40625 -2.890625 L 0.859375 -2.890625 C 0.890625 -2.890625 0.914062 -2.878906 0.9375 -2.859375 C 0.957031 -2.835938 0.96875 -2.8125 0.96875 -2.78125 L 0.96875 -1.75 L 2.078125 -1.75 L 2.078125 -2.78125 C 2.078125 -2.8125 2.085938 -2.835938 2.109375 -2.859375 C 2.128906 -2.878906 2.148438 -2.890625 2.171875 -2.890625 L 2.625 -2.890625 C 2.65625 -2.890625 2.679688 -2.878906 2.703125 -2.859375 C 2.722656 -2.835938 2.734375 -2.8125 2.734375 -2.78125 L 2.734375 -0.109375 C 2.734375 -0.078125 2.722656 -0.0507812 2.703125 -0.03125 C 2.679688 -0.0078125 2.65625 0 2.625 0 L 2.171875 0 C 2.148438 0 2.128906 -0.0078125 2.109375 -0.03125 C 2.085938 -0.0507812 2.078125 -0.078125 2.078125 -0.109375 L 2.078125 -1.171875 L 0.96875 -1.171875 L 0.96875 -0.109375 C 0.96875 -0.078125 0.957031 -0.0507812 0.9375 -0.03125 C 0.914062 -0.0078125 0.890625 0 0.859375 0 Z M 0.40625 0 "/></g></g></g><g fill="#46a49e" fill-opacity="1"><g transform="translate(60.874077, 95.939183)"><g><path d="M 0.140625 0 C 0.109375 0 0.0820312 -0.00390625 0.0625 -0.015625 C 0.0507812 -0.0351562 0.046875 -0.0625 0.046875 -0.09375 C 0.046875 -0.101562 0.046875 -0.113281 0.046875 -0.125 L 1.03125 -2.78125 C 1.039062 -2.8125 1.054688 -2.835938 1.078125 -2.859375 C 1.109375 -2.878906 1.144531 -2.890625 1.1875 -2.890625 L 1.71875 -2.890625 C 1.757812 -2.890625 1.789062 -2.878906 1.8125 -2.859375 C 1.84375 -2.835938 1.863281 -2.8125 1.875 -2.78125 L 2.84375 -0.125 C 2.851562 -0.113281 2.859375 -0.101562 2.859375 -0.09375 C 2.859375 -0.0625 2.847656 -0.0351562 2.828125 -0.015625 C 2.816406 -0.00390625 2.796875 0 2.765625 0 L 2.328125 0 C 2.296875 0 2.269531 -0.0078125 2.25 -0.03125 C 2.226562 -0.0507812 2.21875 -0.0664062 2.21875 -0.078125 L 2.03125 -0.546875 L 0.875 -0.546875 L 0.703125 -0.078125 C 0.691406 -0.0664062 0.675781 -0.0507812 0.65625 -0.03125 C 0.632812 -0.0078125 0.601562 0 0.5625 0 Z M 1.03125 -1.078125 L 1.875 -1.078125 L 1.453125 -2.265625 Z M 1.03125 -1.078125 "/></g></g></g><g fill="#46a49e" fill-opacity="1"><g transform="translate(64.189764, 95.939183)"><g><path d="M 0.40625 0 C 0.375 0 0.347656 -0.0078125 0.328125 -0.03125 C 0.316406 -0.0507812 0.3125 -0.078125 0.3125 -0.109375 L 0.3125 -2.78125 C 0.3125 -2.8125 0.316406 -2.835938 0.328125 -2.859375 C 0.347656 -2.878906 0.375 -2.890625 0.40625 -2.890625 L 1.5 -2.890625 C 1.84375 -2.890625 2.113281 -2.804688 2.3125 -2.640625 C 2.507812 -2.484375 2.609375 -2.257812 2.609375 -1.96875 C 2.609375 -1.769531 2.5625 -1.601562 2.46875 -1.46875 C 2.375 -1.332031 2.242188 -1.226562 2.078125 -1.15625 L 2.671875 -0.125 C 2.671875 -0.113281 2.671875 -0.101562 2.671875 -0.09375 C 2.671875 -0.0625 2.660156 -0.0351562 2.640625 -0.015625 C 2.628906 -0.00390625 2.613281 0 2.59375 0 L 2.125 0 C 2.070312 0 2.035156 -0.0078125 2.015625 -0.03125 C 1.992188 -0.0625 1.976562 -0.0859375 1.96875 -0.109375 L 1.453125 -1.0625 L 0.96875 -1.0625 L 0.96875 -0.109375 C 0.96875 -0.078125 0.957031 -0.0507812 0.9375 -0.03125 C 0.914062 -0.0078125 0.890625 0 0.859375 0 Z M 0.96875 -1.578125 L 1.5 -1.578125 C 1.644531 -1.578125 1.753906 -1.609375 1.828125 -1.671875 C 1.898438 -1.742188 1.9375 -1.84375 1.9375 -1.96875 C 1.9375 -2.09375 1.898438 -2.191406 1.828125 -2.265625 C 1.753906 -2.335938 1.644531 -2.375 1.5 -2.375 L 0.96875 -2.375 Z M 0.96875 -1.578125 "/></g></g></g><g fill="#46a49e" fill-opacity="1"><g transform="translate(67.414728, 95.939183)"><g><path d="M 0.40625 0 C 0.375 0 0.347656 -0.0078125 0.328125 -0.03125 C 0.316406 -0.0507812 0.3125 -0.078125 0.3125 -0.109375 L 0.3125 -2.78125 C 0.3125 -2.8125 0.316406 -2.835938 0.328125 -2.859375 C 0.347656 -2.878906 0.375 -2.890625 0.40625 -2.890625 L 2.28125 -2.890625 C 2.3125 -2.890625 2.332031 -2.878906 2.34375 -2.859375 C 2.363281 -2.835938 2.375 -2.8125 2.375 -2.78125 L 2.375 -2.453125 C 2.375 -2.421875 2.363281 -2.394531 2.34375 -2.375 C 2.332031 -2.351562 2.3125 -2.34375 2.28125 -2.34375 L 0.9375 -2.34375 L 0.9375 -1.703125 L 2.1875 -1.703125 C 2.21875 -1.703125 2.242188 -1.691406 2.265625 -1.671875 C 2.285156 -1.660156 2.296875 -1.640625 2.296875 -1.609375 L 2.296875 -1.296875 C 2.296875 -1.273438 2.285156 -1.253906 2.265625 -1.234375 C 2.242188 -1.210938 2.21875 -1.203125 2.1875 -1.203125 L 0.9375 -1.203125 L 0.9375 -0.53125 L 2.3125 -0.53125 C 2.34375 -0.53125 2.363281 -0.519531 2.375 -0.5 C 2.394531 -0.488281 2.40625 -0.46875 2.40625 -0.4375 L 2.40625 -0.109375 C 2.40625 -0.078125 2.394531 -0.0507812 2.375 -0.03125 C 2.363281 -0.0078125 2.34375 0 2.3125 0 Z M 0.40625 0 "/></g></g></g></svg>