<svg xmlns="http://www.w3.org/2000/svg" xmlns:xlink="http://www.w3.org/1999/xlink" width="100" zoomAndPan="magnify" viewBox="0 0 75 74.999997" height="100" preserveAspectRatio="xMidYMid meet" version="1.0"><defs><g/><clipPath id="5451381e97"><path d="M 14.9375 7.5 L 67.4375 7.5 L 67.4375 41.25 L 14.9375 41.25 Z M 14.9375 7.5 " clip-rule="nonzero"/></clipPath></defs><rect x="-7.5" width="90" fill="#ffffff" y="-7.5" height="89.999996" fill-opacity="1"/><rect x="-7.5" width="90" fill="#ffffff" y="-7.5" height="89.999996" fill-opacity="1"/><rect x="-7.5" width="90" fill="#46a49e" y="-7.5" height="89.999996" fill-opacity="1"/><path fill="#de335e" d="M 33.332031 36.675781 L 33.332031 40.492188 L 42.613281 40.492188 L 42.613281 36.675781 C 42.304688 36.980469 41.972656 37.25 41.617188 37.488281 C 41.257812 37.730469 40.878906 37.929688 40.480469 38.09375 C 40.082031 38.257812 39.671875 38.382812 39.25 38.46875 C 38.828125 38.550781 38.402344 38.59375 37.972656 38.59375 C 37.539062 38.59375 37.113281 38.550781 36.691406 38.46875 C 36.269531 38.382812 35.859375 38.257812 35.460938 38.09375 C 35.0625 37.929688 34.6875 37.730469 34.328125 37.488281 C 33.96875 37.25 33.636719 36.980469 33.332031 36.675781 Z M 33.332031 36.675781 " fill-opacity="1" fill-rule="evenodd"/><path fill="#de335e" d="M 33.332031 22.308594 L 33.332031 27.246094 C 33.636719 26.941406 33.96875 26.667969 34.328125 26.429688 C 34.6875 26.191406 35.066406 25.992188 35.460938 25.828125 C 35.859375 25.664062 36.269531 25.539062 36.691406 25.453125 C 37.113281 25.371094 37.542969 25.328125 37.972656 25.328125 C 38.402344 25.328125 38.828125 25.371094 39.25 25.453125 C 39.671875 25.539062 40.082031 25.664062 40.480469 25.828125 C 40.878906 25.992188 41.257812 26.191406 41.613281 26.429688 C 41.972656 26.667969 42.304688 26.941406 42.613281 27.246094 L 42.613281 22.308594 Z M 33.332031 22.308594 " fill-opacity="1" fill-rule="evenodd"/><path fill="#de335e" d="M 33.863281 19.058594 C 34.265625 18.792969 34.703125 18.011719 34.898438 17.160156 C 35.4375 14.808594 33.085938 13.398438 32.675781 16.222656 C 31.324219 15.339844 29.449219 16.441406 30.910156 17.894531 C 31.753906 18.734375 33.433594 19.253906 33.863281 19.058594 Z M 33.863281 19.058594 " fill-opacity="1" fill-rule="evenodd"/><path fill="#de335e" d="M 36.976562 13.816406 C 37.3125 13.75 37.804688 13.359375 38.160156 12.847656 C 39.140625 11.457031 37.980469 9.902344 36.953125 11.636719 C 36.304688 10.695312 34.78125 10.90625 35.351562 12.253906 C 35.683594 13.039062 36.644531 13.832031 36.976562 13.816406 Z M 36.976562 13.816406 " fill-opacity="1" fill-rule="evenodd"/><path fill="#de335e" d="M 32.0625 12.515625 C 32.335938 12.425781 32.707031 12.042969 32.949219 11.578125 C 33.617188 10.308594 32.480469 9.132812 31.8125 10.699219 C 31.167969 9.980469 29.917969 10.328125 30.539062 11.390625 C 30.898438 12.003906 31.789062 12.5625 32.0625 12.515625 Z M 32.0625 12.515625 " fill-opacity="1" fill-rule="evenodd"/><path fill="#f5ac37" d="M 33.332031 36.675781 L 33.332031 40.492188 L 28.546875 40.492188 L 28.546875 22.308594 L 33.332031 22.308594 L 33.332031 27.246094 L 33.304688 27.269531 C 32.996094 27.578125 32.722656 27.914062 32.480469 28.277344 C 32.242188 28.636719 32.039062 29.019531 31.871094 29.421875 C 31.707031 29.824219 31.582031 30.238281 31.496094 30.667969 C 31.410156 31.09375 31.371094 31.523438 31.371094 31.960938 C 31.371094 32.394531 31.410156 32.828125 31.496094 33.253906 C 31.582031 33.683594 31.707031 34.097656 31.871094 34.5 C 32.039062 34.902344 32.242188 35.285156 32.480469 35.644531 C 32.722656 36.007812 32.996094 36.34375 33.304688 36.652344 Z M 33.332031 36.675781 " fill-opacity="1" fill-rule="evenodd"/><path fill="#f5ac37" d="M 28.546875 27.613281 L 28.546875 22.308594 L 33.332031 22.308594 L 33.332031 27.246094 L 33.304688 27.269531 C 33.195312 27.382812 33.085938 27.496094 32.984375 27.613281 Z M 28.546875 27.613281 " fill-opacity="1" fill-rule="evenodd"/><path fill="#f9e70f" d="M 25.195312 22.308594 L 28.546875 22.308594 L 28.546875 40.488281 L 25.195312 40.488281 Z M 25.195312 22.308594 " fill-opacity="1" fill-rule="nonzero"/><path fill="#ffee5f" d="M 25.195312 22.308594 L 28.546875 22.308594 L 28.546875 27.613281 L 25.195312 27.613281 Z M 25.195312 22.308594 " fill-opacity="1" fill-rule="nonzero"/><path fill="#89c8b7" d="M 25.195312 22.308594 L 25.195312 40.492188 L 24.953125 40.492188 C 24.742188 40.492188 24.542969 40.449219 24.347656 40.371094 C 24.152344 40.289062 23.980469 40.171875 23.832031 40.023438 C 23.683594 39.875 23.570312 39.703125 23.488281 39.507812 C 23.40625 39.3125 23.367188 39.109375 23.367188 38.898438 L 23.367188 23.902344 C 23.367188 23.691406 23.410156 23.488281 23.488281 23.292969 C 23.570312 23.097656 23.683594 22.925781 23.832031 22.777344 C 23.984375 22.628906 24.15625 22.511719 24.347656 22.429688 C 24.542969 22.351562 24.746094 22.308594 24.957031 22.308594 Z M 25.195312 22.308594 " fill-opacity="1" fill-rule="evenodd"/><path fill="#c8e5df" d="M 24.324219 40.355469 C 24.035156 40.230469 23.804688 40.035156 23.632812 39.769531 C 23.457031 39.507812 23.371094 39.214844 23.371094 38.902344 L 23.371094 23.902344 C 23.371094 23.585938 23.457031 23.296875 23.632812 23.03125 C 23.804688 22.769531 24.035156 22.574219 24.324219 22.445312 Z M 24.324219 40.355469 " fill-opacity="1" fill-rule="evenodd"/><path fill="#c8e5e1" d="M 25.195312 22.308594 L 25.195312 27.613281 L 23.371094 27.613281 L 23.371094 23.902344 C 23.371094 23.691406 23.410156 23.488281 23.492188 23.292969 C 23.570312 23.097656 23.6875 22.925781 23.835938 22.777344 C 23.984375 22.628906 24.15625 22.511719 24.347656 22.433594 C 24.542969 22.351562 24.746094 22.308594 24.957031 22.308594 Z M 25.195312 22.308594 " fill-opacity="1" fill-rule="evenodd"/><path fill="#e3f2f1" d="M 24.324219 27.613281 L 23.371094 27.613281 L 23.371094 23.902344 C 23.371094 23.585938 23.457031 23.296875 23.632812 23.03125 C 23.804688 22.769531 24.035156 22.574219 24.324219 22.445312 Z M 24.324219 27.613281 " fill-opacity="1" fill-rule="evenodd"/><path fill="#ffffff" d="M 37.972656 38.949219 C 38.429688 38.949219 38.878906 38.902344 39.328125 38.8125 C 39.777344 38.722656 40.210938 38.589844 40.632812 38.414062 C 41.054688 38.238281 41.457031 38.023438 41.835938 37.769531 C 42.214844 37.515625 42.566406 37.226562 42.890625 36.902344 C 43.210938 36.574219 43.5 36.222656 43.753906 35.839844 C 44.007812 35.460938 44.222656 35.058594 44.398438 34.632812 C 44.570312 34.210938 44.703125 33.773438 44.792969 33.324219 C 44.882812 32.871094 44.925781 32.417969 44.925781 31.960938 C 44.925781 31.5 44.882812 31.046875 44.792969 30.597656 C 44.703125 30.144531 44.570312 29.710938 44.394531 29.285156 C 44.222656 28.863281 44.007812 28.457031 43.753906 28.078125 C 43.5 27.695312 43.210938 27.34375 42.886719 27.019531 C 42.566406 26.695312 42.214844 26.40625 41.835938 26.148438 C 41.453125 25.894531 41.054688 25.679688 40.632812 25.503906 C 40.210938 25.328125 39.773438 25.195312 39.328125 25.105469 C 38.878906 25.015625 38.425781 24.972656 37.96875 24.972656 C 37.511719 24.972656 37.0625 25.015625 36.613281 25.105469 C 36.164062 25.195312 35.730469 25.328125 35.308594 25.503906 C 34.886719 25.679688 34.484375 25.894531 34.105469 26.148438 C 33.726562 26.40625 33.375 26.695312 33.050781 27.019531 C 32.730469 27.34375 32.441406 27.695312 32.1875 28.078125 C 31.933594 28.460938 31.71875 28.863281 31.542969 29.285156 C 31.367188 29.710938 31.238281 30.148438 31.148438 30.597656 C 31.058594 31.046875 31.015625 31.5 31.015625 31.960938 C 31.015625 32.417969 31.0625 32.871094 31.148438 33.324219 C 31.238281 33.773438 31.371094 34.207031 31.546875 34.632812 C 31.722656 35.054688 31.9375 35.457031 32.191406 35.839844 C 32.445312 36.222656 32.734375 36.574219 33.054688 36.898438 C 33.378906 37.222656 33.730469 37.511719 34.109375 37.765625 C 34.488281 38.019531 34.890625 38.238281 35.3125 38.414062 C 35.734375 38.589844 36.167969 38.722656 36.613281 38.8125 C 37.0625 38.902344 37.515625 38.945312 37.972656 38.949219 Z M 37.972656 38.949219 " fill-opacity="1" fill-rule="evenodd"/><path fill="#203344" d="M 41.601562 28.3125 C 41.839844 28.550781 42.054688 28.8125 42.242188 29.09375 C 42.429688 29.375 42.585938 29.671875 42.714844 29.984375 C 42.84375 30.300781 42.941406 30.621094 43.007812 30.953125 C 43.074219 31.285156 43.105469 31.621094 43.105469 31.960938 C 43.105469 32.300781 43.074219 32.632812 43.007812 32.964844 C 42.941406 33.300781 42.84375 33.621094 42.714844 33.933594 C 42.585938 34.246094 42.429688 34.542969 42.242188 34.828125 C 42.054688 35.109375 41.839844 35.367188 41.601562 35.609375 C 41.363281 35.847656 41.105469 36.0625 40.824219 36.25 C 40.542969 36.4375 40.246094 36.597656 39.9375 36.726562 C 39.625 36.855469 39.304688 36.953125 38.972656 37.019531 C 38.640625 37.085938 38.308594 37.117188 37.972656 37.117188 C 37.632812 37.117188 37.300781 37.085938 36.96875 37.019531 C 36.640625 36.953125 36.316406 36.855469 36.007812 36.726562 C 35.695312 36.597656 35.398438 36.4375 35.117188 36.25 C 34.839844 36.0625 34.578125 35.847656 34.339844 35.609375 C 34.101562 35.367188 33.890625 35.109375 33.703125 34.828125 C 33.515625 34.542969 33.355469 34.246094 33.226562 33.933594 C 33.097656 33.621094 33 33.300781 32.933594 32.964844 C 32.867188 32.632812 32.835938 32.300781 32.835938 31.960938 C 32.835938 31.621094 32.867188 31.285156 32.933594 30.953125 C 33 30.621094 33.097656 30.300781 33.226562 29.984375 C 33.355469 29.671875 33.515625 29.375 33.703125 29.09375 C 33.890625 28.8125 34.101562 28.550781 34.339844 28.3125 C 34.578125 28.074219 34.839844 27.859375 35.117188 27.671875 C 35.398438 27.484375 35.695312 27.324219 36.007812 27.195312 C 36.316406 27.066406 36.640625 26.96875 36.96875 26.902344 C 37.300781 26.835938 37.632812 26.800781 37.972656 26.800781 C 38.308594 26.800781 38.640625 26.835938 38.972656 26.902344 C 39.304688 26.96875 39.625 27.066406 39.9375 27.195312 C 40.246094 27.324219 40.542969 27.484375 40.824219 27.671875 C 41.105469 27.859375 41.363281 28.074219 41.601562 28.3125 Z M 41.601562 28.3125 " fill-opacity="1" fill-rule="nonzero"/><path fill="#ffffff" d="M 49.261719 24.09375 L 45.921875 24.09375 L 45.863281 24.160156 L 45.878906 25.808594 L 45.921875 25.828125 L 49.261719 25.828125 L 49.324219 25.761719 L 49.308594 24.113281 Z M 49.261719 24.09375 " fill-opacity="1" fill-rule="evenodd"/><path fill="#89c8b7" d="M 42.925781 27.578125 C 43.199219 27.890625 43.441406 28.226562 43.652344 28.585938 C 43.867188 28.945312 44.042969 29.324219 44.183594 29.714844 C 44.324219 30.109375 44.425781 30.511719 44.492188 30.925781 C 44.554688 31.335938 44.582031 31.753906 44.570312 32.171875 C 44.554688 32.585938 44.503906 33 44.414062 33.40625 C 44.324219 33.816406 44.195312 34.210938 44.03125 34.59375 C 43.863281 34.976562 43.664062 35.34375 43.433594 35.6875 C 43.199219 36.035156 42.933594 36.355469 42.640625 36.648438 L 42.613281 36.675781 L 42.613281 40.492188 L 50.988281 40.492188 C 51.199219 40.492188 51.402344 40.449219 51.59375 40.371094 C 51.789062 40.289062 51.960938 40.171875 52.109375 40.023438 C 52.257812 39.875 52.371094 39.703125 52.453125 39.507812 C 52.535156 39.3125 52.574219 39.109375 52.574219 38.898438 L 52.574219 27.617188 L 42.957031 27.617188 C 42.945312 27.601562 42.933594 27.589844 42.925781 27.578125 Z M 42.925781 27.578125 " fill-opacity="1" fill-rule="nonzero"/><path fill="#89c8b7" d="M 42.613281 22.308594 L 42.613281 27.246094 L 42.628906 27.261719 L 42.613281 27.246094 Z M 42.613281 22.308594 " fill-opacity="1" fill-rule="nonzero"/><path fill="#89c8b7" d="M 46.878906 20.527344 L 47.351562 21.363281 Z M 46.878906 20.527344 " fill-opacity="1" fill-rule="nonzero"/><path fill="#b5ddd6" d="M 52.574219 23.902344 C 52.574219 23.691406 52.53125 23.488281 52.453125 23.292969 C 52.371094 23.097656 52.253906 22.925781 52.105469 22.777344 C 51.957031 22.628906 51.789062 22.511719 51.59375 22.433594 C 51.398438 22.351562 51.195312 22.308594 50.988281 22.308594 L 42.613281 22.308594 L 42.613281 27.246094 L 42.628906 27.261719 L 42.640625 27.269531 C 42.738281 27.371094 42.832031 27.472656 42.925781 27.578125 C 42.933594 27.589844 42.945312 27.601562 42.957031 27.613281 L 52.574219 27.613281 Z M 52.574219 23.902344 " fill-opacity="1" fill-rule="nonzero"/><path fill="#b5ddd6" d="M 47.441406 21.523438 L 47.347656 21.363281 L 46.878906 20.527344 L 46.722656 20.253906 C 46.648438 20.125 46.542969 20.023438 46.414062 19.953125 C 46.257812 19.871094 46.09375 19.835938 45.921875 19.839844 L 37.710938 19.839844 C 37.539062 19.835938 37.375 19.871094 37.21875 19.953125 C 37.085938 20.023438 36.984375 20.125 36.910156 20.253906 L 36.191406 21.523438 Z M 47.441406 21.523438 " fill-opacity="1" fill-rule="nonzero"/><path fill="#f9cb81" d="M 30.542969 21.546875 L 30.542969 20.707031 C 30.542969 20.632812 30.515625 20.566406 30.460938 20.515625 C 30.40625 20.460938 30.34375 20.433594 30.265625 20.433594 L 26.789062 20.433594 C 26.710938 20.433594 26.648438 20.460938 26.59375 20.511719 C 26.539062 20.566406 26.515625 20.632812 26.511719 20.707031 L 26.511719 21.546875 Z M 30.542969 21.546875 " fill-opacity="1" fill-rule="evenodd"/><path fill="#f5ac37" d="M 30.542969 21.546875 L 30.542969 20.707031 C 30.542969 20.671875 30.535156 20.632812 30.519531 20.597656 C 30.492188 20.589844 30.46875 20.585938 30.441406 20.585938 L 26.964844 20.585938 C 26.886719 20.585938 26.824219 20.613281 26.769531 20.667969 C 26.71875 20.722656 26.691406 20.785156 26.691406 20.863281 L 26.691406 21.546875 Z M 30.542969 21.546875 " fill-opacity="1" fill-rule="evenodd"/><path fill="#c62855" d="M 42.613281 26.300781 L 42.613281 25.4375 C 41.542969 24.902344 40.414062 24.632812 39.21875 24.636719 C 39.023438 24.636719 38.824219 24.644531 38.632812 24.660156 C 40.128906 24.792969 41.453125 25.339844 42.613281 26.300781 Z M 42.613281 26.300781 " fill-opacity="1" fill-rule="evenodd"/><path fill="#c62855" d="M 42.613281 37.625 C 42.117188 38.03125 41.582031 38.371094 41 38.636719 C 40.417969 38.902344 39.8125 39.085938 39.183594 39.195312 C 38.550781 39.300781 37.917969 39.324219 37.28125 39.261719 C 36.648438 39.203125 36.027344 39.0625 35.429688 38.835938 C 35.972656 39.152344 36.546875 39.394531 37.148438 39.566406 C 37.753906 39.738281 38.367188 39.835938 38.992188 39.855469 C 39.621094 39.871094 40.242188 39.816406 40.851562 39.679688 C 41.464844 39.542969 42.050781 39.335938 42.613281 39.054688 Z M 42.613281 37.625 " fill-opacity="1" fill-rule="evenodd"/><path fill="#ffffff" d="M 43.71875 28.023438 C 43.863281 28.238281 43.996094 28.457031 44.117188 28.679688 L 43.71875 28.679688 Z M 43.71875 28.023438 " fill-opacity="1" fill-rule="evenodd"/><path fill="#79b1a3" d="M 43.605469 27.296875 L 44.980469 27.296875 C 44.3125 26.515625 43.523438 25.894531 42.609375 25.433594 L 42.609375 26.300781 C 42.792969 26.449219 42.964844 26.609375 43.132812 26.777344 C 43.300781 26.945312 43.457031 27.113281 43.605469 27.296875 Z M 43.605469 27.296875 " fill-opacity="1" fill-rule="evenodd"/><path fill="#79b1a3" d="M 52.574219 28.679688 L 52.574219 27.925781 L 43.71875 27.925781 L 43.71875 28.679688 L 44.503906 28.679688 C 44.847656 29.371094 45.074219 30.09375 45.191406 30.855469 C 45.304688 31.617188 45.300781 32.375 45.179688 33.136719 C 45.054688 33.894531 44.820312 34.617188 44.472656 35.304688 C 44.121094 35.988281 43.675781 36.601562 43.136719 37.148438 C 42.96875 37.316406 42.792969 37.472656 42.613281 37.625 L 42.613281 39.054688 C 43.0625 38.828125 43.488281 38.558594 43.886719 38.246094 C 44.285156 37.933594 44.648438 37.585938 44.976562 37.199219 C 45.304688 36.8125 45.59375 36.398438 45.839844 35.957031 C 46.085938 35.515625 46.285156 35.050781 46.4375 34.566406 C 46.59375 34.085938 46.699219 33.589844 46.753906 33.085938 C 46.808594 32.582031 46.816406 32.078125 46.769531 31.570312 C 46.726562 31.066406 46.632812 30.570312 46.488281 30.085938 C 46.34375 29.597656 46.15625 29.128906 45.917969 28.679688 Z M 52.574219 28.679688 " fill-opacity="1" fill-rule="evenodd"/><g clip-path="url(#5451381e97)"><path fill="#203344" d="M 58.167969 10.910156 C 50.945312 5.617188 46.8125 7.074219 43.773438 11.261719 C 42.226562 13.390625 41.003906 16.222656 39.789062 19.210938 L 37.714844 19.210938 C 37.4375 19.207031 37.175781 19.269531 36.929688 19.398438 C 36.6875 19.527344 36.503906 19.710938 36.367188 19.945312 L 35.460938 21.550781 L 31.171875 21.550781 L 31.171875 20.707031 C 31.167969 20.457031 31.082031 20.246094 30.90625 20.070312 C 30.730469 19.890625 30.515625 19.804688 30.269531 19.804688 L 26.789062 19.804688 C 26.539062 19.804688 26.328125 19.890625 26.152344 20.070312 C 25.976562 20.246094 25.886719 20.460938 25.886719 20.707031 L 25.886719 21.546875 L 24.957031 21.546875 C 24.308594 21.550781 23.757812 21.78125 23.300781 22.238281 C 22.84375 22.699219 22.613281 23.25 22.613281 23.902344 L 22.613281 26.40625 C 22.324219 26.410156 22.066406 26.5 21.839844 26.671875 C 21.609375 26.847656 21.453125 27.070312 21.375 27.347656 C 20.101562 27.46875 19.054688 27.710938 18.210938 28.066406 C 17.210938 28.480469 16.496094 29.035156 16.019531 29.667969 L 15.992188 29.644531 C 15.929688 29.597656 15.863281 29.582031 15.785156 29.597656 C 15.710938 29.609375 15.648438 29.648438 15.609375 29.714844 C 15.304688 30.183594 15.113281 30.695312 15.03125 31.25 C 14.941406 31.917969 15.003906 32.574219 15.214844 33.214844 C 15.804688 35.070312 18.121094 35.859375 20.667969 36.160156 C 21.3125 36.238281 21.964844 36.28125 22.609375 36.308594 L 22.609375 38.898438 C 22.613281 39.546875 22.839844 40.101562 23.300781 40.558594 C 23.757812 41.019531 24.308594 41.25 24.957031 41.25 L 50.988281 41.25 C 51.296875 41.25 51.597656 41.1875 51.882812 41.070312 C 52.167969 40.949219 52.421875 40.777344 52.640625 40.558594 C 52.863281 40.339844 53.03125 40.082031 53.152344 39.796875 C 53.269531 39.507812 53.328125 39.207031 53.332031 38.894531 L 53.332031 29.023438 C 53.6875 29.019531 53.988281 28.890625 54.242188 28.640625 C 54.476562 28.40625 54.601562 28.121094 54.621094 27.789062 C 55.488281 27.464844 56.753906 27.195312 58.140625 26.902344 C 58.757812 26.769531 59.398438 26.632812 60.03125 26.488281 L 60.042969 26.53125 C 60.058594 26.601562 60.097656 26.660156 60.160156 26.699219 C 60.222656 26.738281 60.292969 26.75 60.363281 26.730469 C 63.570312 25.96875 66.722656 24.859375 67.296875 22.421875 C 67.859375 20.011719 65.722656 16.453125 58.167969 10.910156 Z M 22.609375 35.050781 C 22.007812 35.023438 21.402344 34.984375 20.8125 34.914062 C 18.699219 34.664062 16.804688 34.085938 16.40625 32.832031 C 16.253906 32.375 16.207031 31.90625 16.273438 31.429688 C 16.324219 31.074219 16.445312 30.746094 16.632812 30.4375 C 16.71875 30.300781 16.699219 30.179688 16.566406 30.082031 L 16.519531 30.046875 C 16.929688 29.5 17.5625 29.019531 18.453125 28.652344 C 19.222656 28.332031 20.183594 28.097656 21.351562 27.988281 C 21.402344 28.242188 21.523438 28.460938 21.703125 28.644531 C 21.957031 28.894531 22.257812 29.023438 22.613281 29.027344 Z M 22.609375 28.394531 C 22.429688 28.390625 22.273438 28.324219 22.144531 28.195312 C 21.933594 27.984375 21.886719 27.738281 22 27.460938 C 22.109375 27.183594 22.316406 27.042969 22.613281 27.039062 Z M 36.914062 20.257812 C 36.988281 20.125 37.089844 20.023438 37.222656 19.953125 C 37.378906 19.875 37.539062 19.835938 37.714844 19.839844 L 45.925781 19.839844 C 46.097656 19.835938 46.261719 19.875 46.414062 19.953125 C 46.546875 20.023438 46.652344 20.125 46.726562 20.257812 L 47.441406 21.523438 L 36.195312 21.523438 Z M 26.511719 20.707031 C 26.515625 20.632812 26.539062 20.566406 26.59375 20.511719 C 26.648438 20.460938 26.710938 20.433594 26.789062 20.433594 L 30.265625 20.433594 C 30.34375 20.433594 30.40625 20.460938 30.460938 20.515625 C 30.515625 20.566406 30.542969 20.632812 30.542969 20.707031 L 30.542969 21.546875 L 26.511719 21.546875 Z M 52.703125 38.894531 C 52.703125 39.125 52.660156 39.34375 52.570312 39.554688 C 52.484375 39.765625 52.359375 39.953125 52.199219 40.113281 C 52.039062 40.273438 51.851562 40.398438 51.644531 40.488281 C 51.433594 40.574219 51.214844 40.621094 50.988281 40.621094 L 24.957031 40.621094 C 24.484375 40.617188 24.082031 40.449219 23.75 40.113281 C 23.414062 39.777344 23.242188 39.371094 23.242188 38.894531 L 23.242188 27.925781 L 31.878906 27.925781 C 31.703125 28.195312 31.546875 28.472656 31.40625 28.761719 C 31.265625 29.050781 31.148438 29.34375 31.046875 29.648438 C 30.945312 29.953125 30.867188 30.261719 30.804688 30.578125 C 30.746094 30.890625 30.707031 31.210938 30.6875 31.53125 C 30.667969 31.847656 30.671875 32.167969 30.695312 32.488281 C 30.71875 32.808594 30.761719 33.125 30.824219 33.4375 C 30.890625 33.753906 30.972656 34.0625 31.078125 34.363281 C 31.183594 34.667969 31.308594 34.960938 31.449219 35.246094 C 31.59375 35.535156 31.753906 35.808594 31.933594 36.074219 C 32.113281 36.339844 32.308594 36.59375 32.519531 36.832031 C 32.730469 37.070312 32.957031 37.296875 33.199219 37.503906 C 33.4375 37.714844 33.691406 37.910156 33.960938 38.085938 C 34.226562 38.261719 34.503906 38.417969 34.789062 38.558594 C 35.074219 38.699219 35.371094 38.820312 35.671875 38.921875 C 35.976562 39.023438 36.285156 39.101562 36.597656 39.164062 C 36.910156 39.222656 37.226562 39.261719 37.542969 39.28125 C 37.863281 39.300781 38.179688 39.300781 38.5 39.277344 C 38.816406 39.253906 39.132812 39.210938 39.445312 39.144531 C 39.757812 39.082031 40.0625 38.996094 40.367188 38.890625 C 40.667969 38.789062 40.960938 38.664062 41.246094 38.519531 C 41.53125 38.375 41.804688 38.214844 42.070312 38.035156 C 42.332031 37.855469 42.585938 37.660156 42.824219 37.445312 C 43.0625 37.234375 43.285156 37.007812 43.496094 36.765625 C 43.703125 36.523438 43.894531 36.269531 44.070312 36 C 44.246094 35.734375 44.40625 35.457031 44.542969 35.167969 C 44.683594 34.878906 44.804688 34.582031 44.90625 34.28125 C 45.007812 33.976562 45.085938 33.667969 45.148438 33.351562 C 45.207031 33.039062 45.246094 32.71875 45.265625 32.398438 C 45.285156 32.082031 45.285156 31.761719 45.261719 31.441406 C 45.238281 31.121094 45.195312 30.804688 45.132812 30.492188 C 45.070312 30.175781 44.984375 29.867188 44.878906 29.566406 C 44.777344 29.261719 44.652344 28.96875 44.511719 28.679688 C 44.5 28.65625 44.484375 28.632812 44.472656 28.609375 C 44.429688 28.523438 44.386719 28.441406 44.339844 28.367188 L 44.269531 28.246094 C 44.222656 28.164062 44.171875 28.085938 44.125 28.003906 C 44.109375 27.976562 44.09375 27.953125 44.078125 27.925781 L 52.707031 27.925781 Z M 32.71875 27.925781 C 32.886719 27.707031 33.070312 27.496094 33.265625 27.296875 L 33.296875 27.265625 C 33.605469 26.957031 33.9375 26.683594 34.300781 26.441406 C 34.660156 26.199219 35.042969 25.996094 35.441406 25.828125 C 35.84375 25.664062 36.257812 25.535156 36.679688 25.453125 C 37.105469 25.367188 37.535156 25.324219 37.96875 25.324219 C 38.402344 25.324219 38.832031 25.367188 39.257812 25.453125 C 39.683594 25.539062 40.097656 25.664062 40.496094 25.832031 C 40.898438 26 41.277344 26.203125 41.640625 26.445312 C 42 26.6875 42.332031 26.960938 42.640625 27.269531 L 42.671875 27.304688 C 42.867188 27.5 43.050781 27.710938 43.21875 27.933594 C 43.464844 28.261719 43.683594 28.605469 43.867188 28.972656 C 44.050781 29.339844 44.199219 29.722656 44.3125 30.117188 C 44.425781 30.511719 44.503906 30.914062 44.542969 31.324219 C 44.582031 31.734375 44.585938 32.140625 44.546875 32.550781 C 44.511719 32.960938 44.4375 33.363281 44.328125 33.761719 C 44.21875 34.15625 44.070312 34.539062 43.890625 34.90625 C 43.707031 35.273438 43.496094 35.625 43.25 35.953125 C 43.003906 36.28125 42.730469 36.585938 42.425781 36.863281 C 42.125 37.140625 41.800781 37.386719 41.453125 37.605469 C 41.105469 37.820312 40.738281 38.003906 40.359375 38.152344 C 39.976562 38.300781 39.585938 38.414062 39.183594 38.488281 C 38.78125 38.566406 38.375 38.601562 37.964844 38.601562 C 37.554688 38.601562 37.148438 38.566406 36.746094 38.488281 C 36.34375 38.414062 35.953125 38.300781 35.570312 38.152344 C 35.191406 38.003906 34.824219 37.820312 34.476562 37.605469 C 34.128906 37.386719 33.804688 37.140625 33.503906 36.863281 C 33.203125 36.585938 32.929688 36.28125 32.683594 35.953125 C 32.4375 35.625 32.222656 35.273438 32.039062 34.90625 C 31.859375 34.539062 31.714844 34.15625 31.601562 33.761719 C 31.492188 33.363281 31.417969 32.960938 31.382812 32.550781 C 31.347656 32.140625 31.347656 31.734375 31.386719 31.324219 C 31.425781 30.914062 31.503906 30.511719 31.617188 30.117188 C 31.730469 29.722656 31.878906 29.339844 32.0625 28.972656 C 32.25 28.605469 32.464844 28.261719 32.714844 27.933594 Z M 52.703125 27.296875 L 43.605469 27.296875 C 43.457031 27.113281 43.296875 26.941406 43.132812 26.773438 C 42.792969 26.433594 42.425781 26.128906 42.027344 25.859375 C 41.628906 25.59375 41.207031 25.367188 40.761719 25.183594 C 40.320312 25 39.863281 24.859375 39.394531 24.765625 C 38.921875 24.671875 38.449219 24.625 37.96875 24.625 C 37.488281 24.625 37.015625 24.671875 36.542969 24.765625 C 36.074219 24.859375 35.617188 25 35.175781 25.183594 C 34.730469 25.367188 34.308594 25.59375 33.910156 25.859375 C 33.511719 26.128906 33.144531 26.433594 32.804688 26.773438 C 32.636719 26.941406 32.480469 27.117188 32.332031 27.296875 L 23.238281 27.296875 L 23.238281 23.902344 C 23.238281 23.671875 23.28125 23.453125 23.371094 23.242188 C 23.457031 23.03125 23.582031 22.84375 23.742188 22.683594 C 23.902344 22.523438 24.089844 22.398438 24.300781 22.308594 C 24.507812 22.222656 24.726562 22.175781 24.957031 22.175781 L 50.988281 22.175781 C 51.460938 22.175781 51.867188 22.347656 52.199219 22.683594 C 52.535156 23.019531 52.703125 23.421875 52.703125 23.898438 Z M 53.800781 28.195312 C 53.667969 28.324219 53.515625 28.390625 53.332031 28.390625 L 53.332031 27.039062 C 53.515625 27.042969 53.667969 27.109375 53.800781 27.238281 C 53.929688 27.371094 53.996094 27.527344 53.996094 27.714844 C 53.996094 27.902344 53.929688 28.0625 53.800781 28.195312 Z M 66.074219 22.128906 C 65.65625 23.914062 62.902344 24.832031 60.078125 25.5 C 60.007812 25.519531 59.953125 25.558594 59.914062 25.621094 C 59.875 25.683594 59.863281 25.75 59.878906 25.820312 L 59.890625 25.867188 C 59.253906 26.015625 58.621094 26.148438 58.011719 26.28125 C 56.65625 26.570312 55.410156 26.832031 54.5 27.160156 C 54.394531 26.929688 54.234375 26.75 54.023438 26.613281 C 53.8125 26.476562 53.582031 26.40625 53.332031 26.40625 L 53.332031 23.902344 C 53.332031 23.253906 53.101562 22.699219 52.640625 22.238281 C 52.1875 21.78125 51.632812 21.550781 50.988281 21.546875 L 48.175781 21.546875 L 47.269531 19.945312 C 47.136719 19.707031 46.949219 19.527344 46.707031 19.398438 C 46.460938 19.269531 46.199219 19.207031 45.921875 19.207031 L 41.144531 19.207031 C 42.261719 16.46875 43.402344 13.898438 44.78125 11.996094 C 47.386719 8.410156 51 7.210938 57.433594 11.925781 C 64.484375 17.09375 66.53125 20.195312 66.074219 22.132812 Z M 66.074219 22.128906 " fill-opacity="1" fill-rule="evenodd"/></g><path fill="#203344" d="M 49.75 23.667969 C 49.613281 23.535156 49.453125 23.46875 49.265625 23.464844 L 45.921875 23.464844 C 45.734375 23.46875 45.574219 23.535156 45.441406 23.667969 C 45.304688 23.804688 45.238281 23.964844 45.238281 24.15625 L 45.238281 25.761719 C 45.238281 25.949219 45.304688 26.113281 45.441406 26.246094 C 45.574219 26.378906 45.734375 26.449219 45.921875 26.449219 L 49.261719 26.449219 C 49.449219 26.449219 49.613281 26.378906 49.746094 26.246094 C 49.878906 26.113281 49.945312 25.949219 49.949219 25.761719 L 49.949219 24.160156 C 49.945312 23.96875 49.878906 23.808594 49.746094 23.671875 Z M 49.324219 25.765625 C 49.324219 25.78125 49.320312 25.796875 49.308594 25.808594 C 49.296875 25.820312 49.28125 25.828125 49.261719 25.828125 L 45.921875 25.828125 C 45.90625 25.828125 45.890625 25.820312 45.878906 25.808594 C 45.867188 25.796875 45.863281 25.78125 45.863281 25.765625 L 45.863281 24.160156 C 45.863281 24.140625 45.867188 24.125 45.878906 24.113281 C 45.890625 24.101562 45.90625 24.097656 45.921875 24.097656 L 49.261719 24.097656 C 49.277344 24.097656 49.292969 24.101562 49.304688 24.113281 C 49.316406 24.125 49.324219 24.140625 49.324219 24.160156 Z M 49.324219 25.765625 " fill-opacity="1" fill-rule="evenodd"/><path fill="#203344" d="M 16.515625 13.097656 C 16.535156 13.109375 16.539062 13.125 16.527344 13.144531 C 16.476562 13.234375 16.367188 13.527344 16.953125 13.714844 C 16.96875 13.71875 16.972656 13.730469 16.964844 13.746094 C 16.929688 13.808594 16.863281 14.011719 17.328125 14.152344 C 17.328125 14.152344 17.328125 14.160156 17.328125 14.160156 C 17.273438 14.191406 16.992188 14.382812 17.949219 14.566406 L 17.949219 14.578125 C 17.859375 14.625 17.382812 14.886719 18.324219 14.972656 C 18.324219 14.972656 18.328125 14.980469 18.324219 14.980469 C 18.246094 15.042969 17.828125 15.421875 18.757812 15.476562 C 18.761719 15.480469 18.761719 15.484375 18.757812 15.488281 C 18.691406 15.558594 18.382812 15.917969 19.121094 15.886719 C 19.125 15.886719 19.128906 15.890625 19.125 15.894531 C 19.105469 15.953125 19.023438 16.28125 19.558594 16.207031 C 19.558594 16.207031 19.566406 16.214844 19.558594 16.21875 C 19.507812 16.28125 19.257812 16.613281 19.800781 16.605469 C 19.808594 16.644531 19.90625 17.128906 20.097656 16.910156 L 20.101562 16.910156 C 20.101562 16.972656 20.082031 17.222656 20.273438 17.203125 C 20.285156 17.246094 20.363281 17.574219 20.652344 17.644531 C 20.660156 17.648438 20.664062 17.652344 20.660156 17.660156 C 20.496094 17.886719 18.363281 20.824219 17.511719 21.507812 C 17.511719 21.507812 17.28125 21.753906 17.570312 21.714844 C 17.5625 21.746094 17.535156 21.882812 17.714844 21.773438 L 17.722656 21.773438 C 17.800781 21.714844 19.023438 20.8125 19.113281 20.710938 C 19.132812 20.6875 21.140625 19.941406 21.261719 19.792969 L 21.265625 19.792969 C 23.707031 19.457031 24.839844 17.8125 24.960938 16.566406 C 24.960938 16.566406 25.917969 15.546875 26.027344 14.597656 C 26.027344 14.597656 26.171875 14.132812 26.902344 13.878906 C 27.628906 13.628906 29.074219 13.25 29.09375 13.273438 C 29.09375 13.273438 29.28125 13.175781 29.066406 13.167969 C 29.066406 13.167969 27.636719 13.269531 26.625 13.597656 C 26.457031 13.644531 26.289062 13.648438 26.117188 13.609375 C 25.636719 13.46875 24.621094 13.195312 24.03125 13.828125 C 23.800781 14.105469 23.597656 14.40625 23.429688 14.730469 C 23.390625 14.8125 23.34375 14.886719 23.277344 14.949219 C 23.179688 15.042969 23.035156 15.132812 22.886719 15.039062 C 22.898438 15.003906 19.066406 10.671875 16.609375 10.972656 C 16.609375 10.972656 16.21875 11.117188 16.769531 11.296875 C 16.789062 11.304688 16.800781 11.316406 16.804688 11.339844 C 16.804688 11.359375 16.796875 11.375 16.78125 11.386719 C 16.613281 11.488281 16.539062 11.757812 17.261719 11.863281 C 17.269531 11.863281 17.273438 11.871094 17.261719 11.875 C 16.765625 11.996094 17.6875 12.558594 18.464844 13.023438 C 18.75 13.164062 19.019531 13.332031 19.269531 13.53125 C 19.277344 13.539062 19.285156 13.546875 19.296875 13.550781 L 18.996094 13.367188 C 18.441406 13.042969 17.847656 12.800781 17.226562 12.636719 C 17.078125 12.621094 16.914062 12.605469 16.726562 12.59375 C 16.527344 12.589844 16.335938 12.613281 16.144531 12.671875 C 16.109375 12.757812 16.1875 12.882812 16.515625 13.097656 Z M 25.074219 14.261719 C 25.078125 14.199219 25.109375 14.148438 25.15625 14.109375 C 25.207031 14.070312 25.261719 14.054688 25.324219 14.0625 C 25.386719 14.070312 25.4375 14.101562 25.476562 14.152344 C 25.511719 14.203125 25.527344 14.261719 25.515625 14.324219 C 25.503906 14.386719 25.472656 14.433594 25.421875 14.472656 C 25.367188 14.507812 25.3125 14.519531 25.25 14.503906 C 25.109375 14.480469 25.050781 14.402344 25.074219 14.261719 Z M 25.074219 14.261719 " fill-opacity="1" fill-rule="evenodd"/><path fill="#ffffff" d="M 35.988281 31.890625 C 36.175781 31.890625 36.359375 31.855469 36.53125 31.78125 C 36.707031 31.707031 36.863281 31.601562 36.996094 31.46875 C 37.128906 31.332031 37.234375 31.175781 37.304688 31 C 37.375 30.824219 37.414062 30.640625 37.414062 30.453125 C 37.410156 30.261719 37.375 30.078125 37.300781 29.902344 C 37.230469 29.726562 37.125 29.570312 36.992188 29.4375 C 36.855469 29.300781 36.703125 29.199219 36.527344 29.125 C 36.351562 29.054688 36.167969 29.015625 35.980469 29.015625 C 35.789062 29.019531 35.609375 29.054688 35.433594 29.128906 C 35.257812 29.199219 35.101562 29.304688 34.96875 29.4375 C 34.835938 29.574219 34.730469 29.730469 34.660156 29.90625 C 34.585938 30.082031 34.550781 30.265625 34.550781 30.453125 C 34.550781 30.644531 34.585938 30.828125 34.660156 31.003906 C 34.734375 31.183594 34.835938 31.335938 34.972656 31.472656 C 35.105469 31.605469 35.261719 31.710938 35.4375 31.785156 C 35.613281 31.855469 35.796875 31.890625 35.988281 31.890625 Z M 35.988281 31.890625 " fill-opacity="1" fill-rule="evenodd"/><g fill="#ffffff" fill-opacity="1"><g transform="translate(10.139311, 53.638966)"><g><path d="M 0.953125 -3.546875 L 0.230469 -3.546875 L 1.707031 -1.1875 L 1.707031 0 L 2.3125 0 L 2.3125 -1.1875 L 3.804688 -3.546875 L 3.078125 -3.546875 L 2.011719 -1.828125 Z M 0.953125 -3.546875 "/></g></g></g><g fill="#ffffff" fill-opacity="1"><g transform="translate(15.635888, 53.638966)"><g><path d="M 3.589844 -0.867188 C 3.75 -1.140625 3.832031 -1.445312 3.832031 -1.773438 C 3.832031 -2.097656 3.75 -2.394531 3.589844 -2.671875 C 3.425781 -2.953125 3.210938 -3.175781 2.9375 -3.335938 C 2.664062 -3.496094 2.359375 -3.578125 2.035156 -3.578125 C 1.714844 -3.578125 1.410156 -3.496094 1.136719 -3.335938 C 0.863281 -3.175781 0.648438 -2.957031 0.484375 -2.679688 C 0.324219 -2.402344 0.242188 -2.101562 0.242188 -1.773438 C 0.242188 -1.449219 0.324219 -1.148438 0.484375 -0.867188 C 0.648438 -0.585938 0.863281 -0.371094 1.140625 -0.210938 C 1.417969 -0.046875 1.714844 0.03125 2.035156 0.03125 C 2.359375 0.03125 2.65625 -0.0429688 2.929688 -0.203125 C 3.207031 -0.367188 3.425781 -0.585938 3.589844 -0.867188 Z M 3.066406 -2.375 C 3.167969 -2.1875 3.222656 -1.988281 3.222656 -1.773438 C 3.222656 -1.558594 3.167969 -1.351562 3.066406 -1.167969 C 2.957031 -0.984375 2.820312 -0.839844 2.636719 -0.734375 C 2.453125 -0.625 2.253906 -0.570312 2.035156 -0.570312 C 1.820312 -0.570312 1.621094 -0.625 1.4375 -0.734375 C 1.253906 -0.839844 1.117188 -0.984375 1.011719 -1.175781 C 0.90625 -1.359375 0.851562 -1.558594 0.851562 -1.773438 C 0.851562 -1.988281 0.898438 -2.1875 1.007812 -2.371094 C 1.117188 -2.554688 1.261719 -2.707031 1.445312 -2.8125 C 1.621094 -2.921875 1.820312 -2.976562 2.035156 -2.976562 C 2.246094 -2.976562 2.445312 -2.921875 2.628906 -2.8125 C 2.8125 -2.707031 2.957031 -2.558594 3.066406 -2.375 Z M 3.066406 -2.375 "/></g></g></g><g fill="#ffffff" fill-opacity="1"><g transform="translate(21.170183, 53.638966)"><g><path d="M 2.835938 -0.382812 C 2.964844 -0.515625 3.0625 -0.671875 3.132812 -0.847656 C 3.199219 -1.019531 3.238281 -1.195312 3.238281 -1.386719 L 3.238281 -3.546875 L 2.628906 -3.546875 L 2.628906 -1.386719 C 2.628906 -1.273438 2.609375 -1.164062 2.570312 -1.066406 C 2.527344 -0.96875 2.472656 -0.882812 2.398438 -0.808594 C 2.324219 -0.734375 2.242188 -0.671875 2.144531 -0.628906 C 2.046875 -0.585938 1.945312 -0.570312 1.84375 -0.570312 C 1.628906 -0.570312 1.4375 -0.648438 1.28125 -0.808594 C 1.207031 -0.882812 1.148438 -0.96875 1.109375 -1.066406 C 1.066406 -1.164062 1.050781 -1.273438 1.050781 -1.386719 L 1.050781 -3.546875 L 0.441406 -3.546875 L 0.441406 -1.386719 C 0.441406 -1.195312 0.472656 -1.019531 0.542969 -0.847656 C 0.613281 -0.671875 0.714844 -0.515625 0.851562 -0.382812 C 0.980469 -0.246094 1.125 -0.144531 1.296875 -0.0742188 C 1.472656 0 1.648438 0.03125 1.84375 0.03125 C 2.027344 0.03125 2.203125 0 2.375 -0.0742188 C 2.550781 -0.144531 2.699219 -0.246094 2.835938 -0.382812 Z M 2.835938 -0.382812 "/></g></g></g><g fill="#ffffff" fill-opacity="1"><g transform="translate(26.311136, 53.638966)"><g><path d="M 2.242188 0 L 2.992188 0 L 1.914062 -1.433594 C 1.949219 -1.433594 2.011719 -1.4375 2.097656 -1.460938 C 2.183594 -1.476562 2.257812 -1.5 2.324219 -1.523438 C 2.507812 -1.589844 2.664062 -1.714844 2.792969 -1.886719 C 2.921875 -2.058594 2.984375 -2.246094 2.984375 -2.460938 C 2.984375 -2.601562 2.953125 -2.742188 2.894531 -2.871094 C 2.828125 -3 2.742188 -3.121094 2.628906 -3.222656 C 2.511719 -3.324219 2.375 -3.40625 2.226562 -3.460938 C 2.074219 -3.511719 1.914062 -3.546875 1.742188 -3.546875 L 0.441406 -3.546875 L 0.449219 0 L 1.050781 0 L 1.050781 -1.5625 Z M 1.050781 -2.9375 L 1.742188 -2.9375 C 1.933594 -2.9375 2.085938 -2.886719 2.203125 -2.792969 C 2.316406 -2.695312 2.375 -2.585938 2.375 -2.460938 C 2.375 -2.375 2.34375 -2.300781 2.289062 -2.226562 C 2.238281 -2.148438 2.167969 -2.101562 2.085938 -2.070312 C 1.96875 -2.011719 1.792969 -1.984375 1.578125 -1.984375 L 1.050781 -1.984375 Z M 1.050781 -2.9375 "/></g></g></g><g fill="#ffffff" fill-opacity="1"><g transform="translate(31.085691, 53.638966)"><g/></g></g><g fill="#ffffff" fill-opacity="1"><g transform="translate(34.16295, 53.638966)"><g><path d="M 0.441406 0 L 1.050781 0 L 1.046875 -1.375 L 1.761719 -1.375 C 1.917969 -1.375 2.070312 -1.394531 2.214844 -1.449219 C 2.359375 -1.503906 2.488281 -1.578125 2.609375 -1.675781 C 2.855469 -1.902344 2.980469 -2.160156 2.980469 -2.460938 C 2.980469 -2.609375 2.949219 -2.75 2.882812 -2.882812 C 2.820312 -3.019531 2.726562 -3.136719 2.609375 -3.246094 C 2.488281 -3.339844 2.359375 -3.410156 2.214844 -3.464844 C 2.070312 -3.519531 1.917969 -3.546875 1.761719 -3.546875 L 0.441406 -3.546875 Z M 1.046875 -1.984375 L 1.046875 -2.9375 L 1.761719 -2.9375 C 1.933594 -2.9375 2.082031 -2.886719 2.199219 -2.796875 C 2.3125 -2.699219 2.371094 -2.59375 2.371094 -2.460938 C 2.371094 -2.332031 2.316406 -2.226562 2.210938 -2.140625 C 2.089844 -2.03125 1.945312 -1.984375 1.761719 -1.984375 Z M 1.046875 -1.984375 "/></g></g></g><g fill="#ffffff" fill-opacity="1"><g transform="translate(38.899786, 53.638966)"><g><path d="M 0.5 -3.546875 L 0.5 0 L 1.109375 0 L 1.109375 -3.546875 Z M 0.5 -3.546875 "/></g></g></g><g fill="#ffffff" fill-opacity="1"><g transform="translate(41.971655, 53.638966)"><g><path d="M 3.425781 -0.640625 L 2.953125 -1.019531 C 2.835938 -0.878906 2.695312 -0.765625 2.539062 -0.691406 C 2.375 -0.609375 2.210938 -0.570312 2.03125 -0.570312 C 1.816406 -0.570312 1.621094 -0.625 1.4375 -0.734375 C 1.253906 -0.839844 1.109375 -0.992188 1.007812 -1.179688 C 0.898438 -1.363281 0.847656 -1.5625 0.847656 -1.777344 C 0.847656 -1.992188 0.894531 -2.191406 1.003906 -2.375 C 1.109375 -2.558594 1.253906 -2.710938 1.4375 -2.820312 C 1.617188 -2.925781 1.816406 -2.980469 2.03125 -2.980469 C 2.191406 -2.980469 2.355469 -2.941406 2.507812 -2.878906 C 2.65625 -2.808594 2.792969 -2.710938 2.910156 -2.585938 L 3.355469 -2.992188 C 3.183594 -3.179688 2.984375 -3.324219 2.753906 -3.425781 C 2.523438 -3.53125 2.28125 -3.582031 2.03125 -3.582031 C 1.707031 -3.582031 1.40625 -3.503906 1.132812 -3.339844 C 0.855469 -3.179688 0.640625 -2.964844 0.484375 -2.683594 C 0.324219 -2.410156 0.242188 -2.105469 0.242188 -1.777344 C 0.242188 -1.453125 0.316406 -1.152344 0.480469 -0.871094 C 0.640625 -0.59375 0.855469 -0.378906 1.136719 -0.214844 C 1.40625 -0.046875 1.707031 0.03125 2.03125 0.03125 C 2.300781 0.03125 2.558594 -0.0273438 2.808594 -0.144531 C 3.050781 -0.265625 3.253906 -0.425781 3.425781 -0.640625 Z M 3.425781 -0.640625 "/></g></g></g><g fill="#ffffff" fill-opacity="1"><g transform="translate(47.101829, 53.638966)"><g><path d="M 0.265625 -3.546875 L 0.265625 -2.9375 L 1.324219 -2.9375 L 1.324219 0 L 1.929688 0 L 1.929688 -2.9375 L 2.996094 -2.9375 L 2.996094 -3.546875 Z M 0.265625 -3.546875 "/></g></g></g><g fill="#ffffff" fill-opacity="1"><g transform="translate(51.822498, 53.638966)"><g><path d="M 2.835938 -0.382812 C 2.964844 -0.515625 3.0625 -0.671875 3.132812 -0.847656 C 3.199219 -1.019531 3.238281 -1.195312 3.238281 -1.386719 L 3.238281 -3.546875 L 2.628906 -3.546875 L 2.628906 -1.386719 C 2.628906 -1.273438 2.609375 -1.164062 2.570312 -1.066406 C 2.527344 -0.96875 2.472656 -0.882812 2.398438 -0.808594 C 2.324219 -0.734375 2.242188 -0.671875 2.144531 -0.628906 C 2.046875 -0.585938 1.945312 -0.570312 1.84375 -0.570312 C 1.628906 -0.570312 1.4375 -0.648438 1.28125 -0.808594 C 1.207031 -0.882812 1.148438 -0.96875 1.109375 -1.066406 C 1.066406 -1.164062 1.050781 -1.273438 1.050781 -1.386719 L 1.050781 -3.546875 L 0.441406 -3.546875 L 0.441406 -1.386719 C 0.441406 -1.195312 0.472656 -1.019531 0.542969 -0.847656 C 0.613281 -0.671875 0.714844 -0.515625 0.851562 -0.382812 C 0.980469 -0.246094 1.125 -0.144531 1.296875 -0.0742188 C 1.472656 0 1.648438 0.03125 1.84375 0.03125 C 2.027344 0.03125 2.203125 0 2.375 -0.0742188 C 2.550781 -0.144531 2.699219 -0.246094 2.835938 -0.382812 Z M 2.835938 -0.382812 "/></g></g></g><g fill="#ffffff" fill-opacity="1"><g transform="translate(56.963452, 53.638966)"><g><path d="M 2.242188 0 L 2.992188 0 L 1.914062 -1.433594 C 1.949219 -1.433594 2.011719 -1.4375 2.097656 -1.460938 C 2.183594 -1.476562 2.257812 -1.5 2.324219 -1.523438 C 2.507812 -1.589844 2.664062 -1.714844 2.792969 -1.886719 C 2.921875 -2.058594 2.984375 -2.246094 2.984375 -2.460938 C 2.984375 -2.601562 2.953125 -2.742188 2.894531 -2.871094 C 2.828125 -3 2.742188 -3.121094 2.628906 -3.222656 C 2.511719 -3.324219 2.375 -3.40625 2.226562 -3.460938 C 2.074219 -3.511719 1.914062 -3.546875 1.742188 -3.546875 L 0.441406 -3.546875 L 0.449219 0 L 1.050781 0 L 1.050781 -1.5625 Z M 1.050781 -2.9375 L 1.742188 -2.9375 C 1.933594 -2.9375 2.085938 -2.886719 2.203125 -2.792969 C 2.316406 -2.695312 2.375 -2.585938 2.375 -2.460938 C 2.375 -2.375 2.34375 -2.300781 2.289062 -2.226562 C 2.238281 -2.148438 2.167969 -2.101562 2.085938 -2.070312 C 1.96875 -2.011719 1.792969 -1.984375 1.578125 -1.984375 L 1.050781 -1.984375 Z M 1.050781 -2.9375 "/></g></g></g><g fill="#ffffff" fill-opacity="1"><g transform="translate(61.738006, 53.638966)"><g><path d="M 0.441406 -3.546875 L 0.441406 0 L 2.683594 0 L 2.683594 -0.605469 L 1.050781 -0.605469 L 1.050781 -1.472656 L 2.28125 -1.472656 L 2.28125 -2.082031 L 1.050781 -2.082031 L 1.050781 -2.9375 L 2.683594 -2.9375 L 2.683594 -3.546875 Z M 0.441406 -3.546875 "/></g></g></g><g fill="#ffffff" fill-opacity="1"><g transform="translate(28.739211, 61.118091)"><g><path d="M 1.050781 -1.472656 L 2.53125 -1.472656 L 2.53125 0 L 3.140625 0 L 3.136719 -3.546875 L 2.53125 -3.546875 L 2.53125 -2.082031 L 1.050781 -2.082031 L 1.050781 -3.546875 L 0.449219 -3.546875 L 0.449219 0 L 1.050781 0 Z M 1.050781 -1.472656 "/></g></g></g><g fill="#ffffff" fill-opacity="1"><g transform="translate(33.788564, 61.118091)"><g><path d="M 0.441406 -3.546875 L 0.441406 0 L 2.683594 0 L 2.683594 -0.605469 L 1.050781 -0.605469 L 1.050781 -1.472656 L 2.28125 -1.472656 L 2.28125 -2.082031 L 1.050781 -2.082031 L 1.050781 -2.9375 L 2.683594 -2.9375 L 2.683594 -3.546875 Z M 0.441406 -3.546875 "/></g></g></g><g fill="#ffffff" fill-opacity="1"><g transform="translate(38.369141, 61.118091)"><g><path d="M 2.242188 0 L 2.992188 0 L 1.914062 -1.433594 C 1.949219 -1.433594 2.011719 -1.4375 2.097656 -1.460938 C 2.183594 -1.476562 2.257812 -1.5 2.324219 -1.523438 C 2.507812 -1.589844 2.664062 -1.714844 2.792969 -1.886719 C 2.921875 -2.058594 2.984375 -2.246094 2.984375 -2.460938 C 2.984375 -2.601562 2.953125 -2.742188 2.894531 -2.871094 C 2.828125 -3 2.742188 -3.121094 2.628906 -3.222656 C 2.511719 -3.324219 2.375 -3.40625 2.226562 -3.460938 C 2.074219 -3.511719 1.914062 -3.546875 1.742188 -3.546875 L 0.441406 -3.546875 L 0.449219 0 L 1.050781 0 L 1.050781 -1.5625 Z M 1.050781 -2.9375 L 1.742188 -2.9375 C 1.933594 -2.9375 2.085938 -2.886719 2.203125 -2.792969 C 2.316406 -2.695312 2.375 -2.585938 2.375 -2.460938 C 2.375 -2.375 2.34375 -2.300781 2.289062 -2.226562 C 2.238281 -2.148438 2.167969 -2.101562 2.085938 -2.070312 C 1.96875 -2.011719 1.792969 -1.984375 1.578125 -1.984375 L 1.050781 -1.984375 Z M 1.050781 -2.9375 "/></g></g></g><g fill="#ffffff" fill-opacity="1"><g transform="translate(43.143696, 61.118091)"><g><path d="M 0.441406 -3.546875 L 0.441406 0 L 2.683594 0 L 2.683594 -0.605469 L 1.050781 -0.605469 L 1.050781 -1.472656 L 2.28125 -1.472656 L 2.28125 -2.082031 L 1.050781 -2.082031 L 1.050781 -2.9375 L 2.683594 -2.9375 L 2.683594 -3.546875 Z M 0.441406 -3.546875 "/></g></g></g></svg>