<svg xmlns="http://www.w3.org/2000/svg" xmlns:xlink="http://www.w3.org/1999/xlink" width="150" zoomAndPan="magnify" viewBox="0 0 112.5 112.499997" height="150" preserveAspectRatio="xMidYMid meet" version="1.0"><defs><g/><clipPath id="33891e7b3f"><path d="M 0 0 L 112.003906 0 L 112.003906 112.003906 L 0 112.003906 Z M 0 0 " clip-rule="nonzero"/></clipPath><clipPath id="7e5353b50f"><path d="M 33.355469 20 L 91.984375 20 L 91.984375 78.640625 L 33.355469 78.640625 Z M 33.355469 20 " clip-rule="nonzero"/></clipPath><clipPath id="1032da26be"><path d="M 21 17 L 91.984375 17 L 91.984375 65 L 21 65 Z M 21 17 " clip-rule="nonzero"/></clipPath><clipPath id="a2379562ea"><path d="M 25 11.25 L 91.984375 11.25 L 91.984375 65 L 25 65 Z M 25 11.25 " clip-rule="nonzero"/></clipPath></defs><g clip-path="url(#33891e7b3f)"><path fill="#ffffff" d="M 0 0 L 112.5 0 L 112.5 120 L 0 120 Z M 0 0 " fill-opacity="1" fill-rule="nonzero"/><path fill="#ffffff" d="M 0 0 L 112.5 0 L 112.5 112.5 L 0 112.5 Z M 0 0 " fill-opacity="1" fill-rule="nonzero"/><path fill="#46a49e" d="M 0 0 L 112.5 0 L 112.5 112.5 L 0 112.5 Z M 0 0 " fill-opacity="1" fill-rule="nonzero"/></g><path fill="#e9bc8b" d="M 74.574219 60.28125 C 73.316406 59.082031 72.207031 59.007812 71.699219 59.082031 C 71.191406 59.160156 71.1875 60.050781 70.476562 59.835938 C 69.765625 59.621094 69.257812 58.871094 68.882812 58.644531 C 68.507812 58.414062 67.488281 58.640625 68.082031 59.941406 C 68.675781 61.242188 64.941406 60.511719 64.941406 60.511719 C 60.96875 63.703125 60.203125 61.257812 57.230469 62.472656 L 51.652344 60.019531 C 51.652344 60.019531 46.542969 64.152344 43.785156 69.726562 C 43.785156 69.726562 47.515625 72.277344 50.578125 74.367188 C 52.984375 76.011719 54.699219 77.257812 55.753906 77.507812 C 60.976562 78.753906 71.527344 76.5625 74.132812 74.402344 C 76.734375 72.246094 73.777344 69.847656 75.609375 69.171875 C 77.441406 68.496094 75.914062 65.207031 76.132812 63.609375 C 76.355469 62.011719 75.832031 61.476562 74.574219 60.28125 Z M 43.144531 47.703125 C 43.109375 47.214844 43.65625 46.765625 44.449219 46.089844 C 45.238281 45.417969 45.914062 44.371094 45.085938 43.472656 C 44.261719 42.570312 43.019531 40.847656 43.019531 40.847656 C 43.019531 40.847656 43.433594 40.0625 43.433594 39.578125 C 43.433594 39.089844 42.117188 39.128906 41.289062 38.828125 C 40.460938 38.527344 40.679688 38.203125 40.382812 37.488281 C 39.878906 36.265625 38.636719 35.664062 37.679688 35.382812 C 31.796875 33.648438 28.582031 37.292969 28.320312 40.925781 C 28.0625 44.457031 31.140625 46.503906 32.832031 48.414062 C 34.523438 50.324219 37.457031 53.84375 37.457031 53.84375 L 44.421875 50.621094 C 44.421875 50.621094 43.183594 48.1875 43.144531 47.703125 Z M 85.019531 28.925781 C 84.167969 30.847656 84.382812 32.589844 84.382812 32.589844 L 77.824219 34.078125 C 77.824219 34.078125 77.664062 32.324219 77.640625 32.019531 C 77.617188 31.714844 75.78125 31.1875 75.488281 31.136719 C 75.195312 31.089844 74.609375 28.511719 74.609375 28.511719 L 75.226562 24.824219 C 76.667969 22.960938 76.28125 22.539062 76.4375 21.589844 C 76.597656 20.636719 76.773438 20.378906 76.773438 20.378906 L 81.273438 20.535156 L 85.175781 23.695312 C 85.175781 23.695312 85.867188 27 85.019531 28.925781 " fill-opacity="1" fill-rule="nonzero"/><path fill="#000000" d="M 35.703125 45.152344 C 35.703125 45.152344 33.773438 44.984375 33.210938 43.414062 C 32.648438 41.847656 33.03125 41.105469 33.945312 40.925781 C 34.382812 40.839844 34.820312 41.34375 35.050781 41.671875 C 35.164062 41.835938 35.355469 41.929688 35.558594 41.929688 L 36.359375 41.917969 C 36.359375 41.917969 36.359375 41.917969 36.359375 41.914062 C 36.988281 41.960938 37.621094 42.007812 38.253906 42.054688 C 38.226562 41.992188 38.214844 41.925781 38.222656 41.859375 C 38.226562 41.839844 38.234375 41.824219 38.238281 41.808594 C 37.578125 41.757812 36.917969 41.710938 36.257812 41.664062 C 35.921875 40.75 34.96875 37.667969 37.269531 37.054688 C 39.980469 36.332031 39.199219 33.78125 39.199219 33.78125 C 39.199219 33.78125 38.535156 34.601562 35.058594 34.191406 C 31.585938 33.78125 30.0625 36.246094 29.324219 36.84375 C 28.585938 37.441406 27.773438 38.933594 27.792969 41.25 C 27.8125 43.5625 28.75 45.246094 28.75 45.246094 C 28.75 45.246094 31.136719 49.265625 33.933594 48.320312 C 36.074219 47.597656 35.976562 46.128906 35.8125 45.476562 C 36.1875 45.550781 36.566406 45.621094 36.941406 45.691406 C 37.945312 45.871094 38.949219 46.042969 39.953125 46.214844 C 40.125 46.242188 40.296875 46.273438 40.46875 46.300781 C 40.457031 46.222656 40.453125 46.140625 40.453125 46.050781 C 38.90625 45.792969 35.703125 45.152344 35.703125 45.152344 Z M 36.675781 38.882812 C 36.640625 39.035156 36.722656 39.195312 36.878906 39.238281 C 37.023438 39.28125 37.199219 39.191406 37.234375 39.035156 C 37.332031 38.636719 37.589844 38.296875 37.941406 38.078125 C 38.351562 37.820312 38.835938 37.734375 39.320312 37.746094 C 39.695312 37.757812 39.691406 37.179688 39.320312 37.167969 C 38.730469 37.152344 38.113281 37.273438 37.617188 37.597656 C 37.160156 37.894531 36.800781 38.347656 36.675781 38.882812 Z M 39.476562 38.648438 C 39.378906 38.855469 39.203125 38.980469 38.972656 39.007812 C 38.84375 39.023438 38.710938 39.011719 38.578125 39 C 38.429688 38.988281 38.28125 38.976562 38.132812 38.960938 C 37.976562 38.949219 37.976562 39.195312 38.132812 39.207031 C 38.445312 39.234375 38.777344 39.296875 39.085938 39.238281 C 39.347656 39.1875 39.578125 39.011719 39.691406 38.769531 C 39.71875 38.710938 39.707031 38.640625 39.644531 38.605469 C 39.59375 38.574219 39.503906 38.585938 39.476562 38.648438 Z M 77.144531 22.597656 C 77.132812 22.601562 77.125 22.601562 77.144531 22.597656 Z M 78.160156 22.316406 C 77.804688 22.167969 77.425781 22.125 77.046875 22.179688 C 76.929688 22.195312 76.863281 22.34375 76.894531 22.445312 C 76.929688 22.570312 77.042969 22.613281 77.160156 22.597656 C 77.15625 22.597656 77.148438 22.597656 77.144531 22.597656 C 77.152344 22.597656 77.160156 22.597656 77.164062 22.597656 C 77.183594 22.59375 77.203125 22.59375 77.222656 22.589844 C 77.257812 22.589844 77.289062 22.585938 77.324219 22.585938 C 77.402344 22.585938 77.476562 22.589844 77.554688 22.597656 C 77.558594 22.597656 77.5625 22.597656 77.566406 22.597656 C 77.566406 22.597656 77.570312 22.597656 77.574219 22.601562 C 77.59375 22.601562 77.613281 22.605469 77.632812 22.609375 C 77.671875 22.617188 77.714844 22.625 77.753906 22.636719 C 77.832031 22.65625 77.9375 22.691406 77.992188 22.714844 C 78.355469 22.867188 78.648438 23.171875 78.847656 23.546875 C 78.976562 23.792969 79.351562 23.574219 79.222656 23.328125 C 78.988281 22.882812 78.625 22.515625 78.160156 22.316406 Z M 77.605469 23.324219 C 77.398438 23.324219 77.230469 23.492188 77.230469 23.699219 C 77.230469 23.902344 77.398438 24.070312 77.605469 24.070312 C 77.8125 24.070312 77.980469 23.902344 77.980469 23.699219 C 77.980469 23.492188 77.8125 23.324219 77.605469 23.324219 Z M 84.085938 26.71875 C 82.496094 27.949219 80.957031 29.246094 79.472656 30.605469 C 79.300781 30.765625 79.5625 31.027344 79.734375 30.867188 C 81.21875 29.507812 82.757812 28.210938 84.347656 26.976562 C 84.535156 26.832031 84.273438 26.574219 84.085938 26.71875 Z M 79.496094 27.125 C 80.355469 26.519531 81.269531 25.984375 82.222656 25.535156 C 82.433594 25.433594 82.621094 25.75 82.40625 25.851562 C 81.457031 26.304688 80.542969 26.835938 79.683594 27.441406 C 79.488281 27.582031 79.304688 27.261719 79.496094 27.125 " fill-opacity="1" fill-rule="nonzero"/><g clip-path="url(#7e5353b50f)"><path fill="#ffffff" d="M 91.921875 63.710938 C 91.425781 63.6875 89.90625 63.671875 89.90625 63.671875 C 87.164062 60.941406 81.40625 62.566406 76.511719 63.75 C 76.402344 63.683594 76.277344 63.628906 76.136719 63.582031 C 76.136719 63.589844 76.136719 63.601562 76.132812 63.609375 C 75.914062 65.207031 74.738281 65.253906 72.90625 65.929688 C 71.074219 66.601562 70.5625 68.347656 67.957031 70.507812 C 65.355469 72.664062 60.945312 78.425781 55.722656 77.179688 C 54.777344 76.957031 52.722656 75.75 50.578125 74.367188 C 50.597656 74.390625 54.601562 78.640625 62.230469 78.640625 C 69.878906 78.640625 90.546875 78.640625 90.546875 78.640625 C 92.472656 72.980469 91.921875 63.710938 91.921875 63.710938 Z M 51.554688 64.234375 L 56.664062 68.65625 C 59.640625 67.445312 64.796875 65.078125 68.769531 61.886719 C 68.769531 61.886719 68.675781 61.242188 68.082031 59.941406 C 68.046875 59.867188 68.019531 59.796875 67.996094 59.730469 C 66.253906 58.589844 64.632812 57.378906 63.277344 56.347656 C 59.9375 53.792969 56.957031 53.167969 54.339844 52.503906 C 51.71875 51.839844 51.050781 51.171875 49.714844 50.617188 C 48.378906 50.058594 45.050781 50.019531 45.050781 50.019531 C 45.050781 50.019531 41.863281 50.507812 39.414062 50.117188 C 36.960938 49.730469 34.734375 50.617188 34.734375 50.617188 L 33.507812 56.164062 C 33.507812 56.164062 34.121094 61.601562 39.023438 66.484375 C 40.285156 67.738281 42.109375 68.914062 44.121094 69.96875 C 43.90625 69.8125 43.785156 69.726562 43.785156 69.726562 C 46.542969 64.152344 51.554688 64.234375 51.554688 64.234375 Z M 78.398438 31.769531 C 79.15625 31.519531 79.96875 31.167969 79.769531 30.570312 C 79.566406 29.972656 79.632812 29.121094 79.769531 28.015625 C 79.90625 26.914062 79.71875 27.03125 78.683594 26.222656 C 77.652344 25.414062 75.539062 24.394531 75.539062 24.394531 C 75.539062 24.394531 74.75 25.304688 74.191406 26.265625 C 73.375 27.675781 73.214844 28.957031 74.453125 30.890625 C 75.691406 32.820312 77.640625 32.019531 78.398438 31.769531 Z M 53.359375 33.707031 L 53.359375 22.089844 C 53.359375 21.375 53.996094 20.828125 54.707031 20.9375 L 57.148438 21.304688 L 57.210938 21.109375 C 57.324219 21.125 57.445312 21.125 57.558594 21.109375 L 57.621094 21.304688 L 59.257812 21.058594 L 60.378906 20.074219 C 61.085938 19.964844 63.386719 22.058594 63.386719 22.773438 L 61.410156 33.507812 L 61.410156 33.707031 C 61.410156 34.421875 60.773438 34.96875 60.0625 34.863281 L 57.621094 34.492188 L 57.542969 34.636719 C 57.425781 34.617188 57.398438 34.726562 57.28125 34.746094 L 57.148438 34.492188 L 54.707031 34.863281 C 53.996094 34.96875 53.359375 34.421875 53.359375 33.707031 " fill-opacity="1" fill-rule="nonzero"/></g><g clip-path="url(#1032da26be)"><path fill="#ffffff" d="M 32.152344 44.546875 C 32.152344 44.546875 30.1875 41.847656 27.632812 41.589844 C 25.703125 41.398438 23.832031 41.097656 22.285156 43.265625 C 20.738281 45.433594 21.222656 46.296875 23.296875 49.757812 C 25.371094 53.21875 30.046875 59.019531 32.191406 60.171875 C 34.335938 61.324219 35.65625 59.734375 36.476562 57.988281 C 37.300781 56.246094 37.757812 53.996094 36.453125 51.464844 C 35.148438 48.933594 32.152344 44.546875 32.152344 44.546875 Z M 56.332031 25.230469 L 59.542969 25.230469 L 59.542969 24.875 L 56.332031 24.875 Z M 90.203125 41.066406 C 88.875 38.773438 86.621094 34.175781 85.890625 32.984375 C 85.160156 31.796875 84.359375 32.148438 84.359375 32.148438 L 77.824219 34.078125 C 77.824219 34.078125 77.609375 34.085938 77.261719 34.1875 L 71.28125 31.25 L 67.585938 29.433594 C 66.59375 28.949219 65.839844 28.085938 65.496094 27.039062 C 65.496094 27.039062 64.28125 23.550781 63.597656 21.519531 C 62.894531 19.4375 62.601562 18.304688 62.601562 18.304688 L 58.902344 17.988281 C 58.902344 17.988281 59.046875 19.265625 59.257812 21.058594 L 60.0625 20.9375 C 60.773438 20.828125 61.410156 21.375 61.410156 22.089844 L 61.410156 33.507812 C 62.5 34.9375 64.554688 36.890625 66 37.507812 C 66.542969 37.738281 67.421875 38.304688 68.414062 39 C 69.652344 39.875 71.0625 40.949219 72.199219 41.839844 C 71.9375 42.691406 71.835938 43.359375 71.628906 44.941406 C 71.234375 47.980469 70.667969 50.121094 70.492188 54.421875 C 70.40625 56.632812 70.128906 58.1875 69.792969 59.449219 C 69.996094 59.613281 70.222656 59.757812 70.476562 59.835938 C 71.1875 60.050781 71.191406 59.160156 71.699219 59.082031 C 72.207031 59.007812 73.316406 59.082031 74.574219 60.28125 C 75.824219 61.46875 76.347656 62.007812 76.136719 63.582031 C 76.277344 63.628906 76.402344 63.683594 76.511719 63.75 C 80.605469 64.753906 84.523438 63.699219 89.90625 63.671875 C 89.914062 63.445312 89.925781 63.214844 89.9375 62.980469 C 90.203125 58.421875 90.46875 55.84375 90.734375 50.757812 C 91 45.671875 91.53125 43.355469 90.203125 41.066406 Z M 42.082031 39.25 C 41.683594 40.789062 39.292969 41.175781 38.683594 41.4375 C 38.484375 41.523438 38.253906 41.640625 38.222656 41.859375 C 38.203125 42.023438 38.308594 42.175781 38.417969 42.296875 C 39.007812 42.957031 40.09375 42.84375 40.554688 44.082031 C 40.792969 44.722656 40.125 46.316406 40.675781 46.730469 C 41.367188 47.257812 43.699219 46.976562 43.828125 46.945312 C 43.953125 46.917969 44.035156 46.796875 44.148438 46.730469 C 46.332031 45.449219 46.03125 42.351562 44.476562 40.277344 C 43.925781 39.542969 42.382812 38.101562 42.082031 39.25 Z M 55.230469 32.683594 L 57.5 32.683594 L 57.5 31.714844 L 55.230469 31.714844 Z M 56.785156 23.113281 L 55.230469 23.113281 L 55.230469 24.214844 L 56.785156 24.214844 Z M 80.089844 22.550781 C 80.730469 24.347656 81.0625 26.429688 82.515625 27.648438 C 83.972656 28.863281 84.902344 30.746094 86.222656 31.1875 C 87.542969 31.632812 87.921875 30.71875 88.464844 29.945312 C 89.007812 29.171875 88.328125 28.722656 88.390625 27.457031 C 88.453125 26.191406 89.320312 24.609375 88.683594 22.324219 C 88.046875 20.042969 86.691406 18.464844 85.191406 17.957031 C 83.695312 17.445312 83.585938 17.652344 81.777344 17.539062 C 79.964844 17.425781 77.773438 17.25 76.773438 20.378906 C 76.773438 20.378906 79.449219 20.757812 80.089844 22.550781 Z M 58.902344 32.683594 L 59.542969 32.683594 L 59.542969 31.714844 L 58.902344 31.714844 Z M 56.332031 27.039062 L 59.542969 27.039062 L 59.542969 26.6875 L 56.332031 26.6875 Z M 56.332031 25.78125 L 59.542969 25.78125 L 59.542969 26.136719 L 56.332031 26.136719 L 56.332031 25.78125 " fill-opacity="1" fill-rule="nonzero"/></g><g clip-path="url(#a2379562ea)"><path fill="#d6eaf2" d="M 43.414062 40.578125 C 43.414062 40.578125 42.789062 41.351562 41.589844 41.453125 C 40.390625 41.554688 41.269531 42.019531 41.796875 42 C 42.320312 41.984375 44.066406 41.226562 44.046875 41.753906 C 44.027344 42.28125 42.414062 43.027344 42.863281 43.195312 C 43.316406 43.363281 44.289062 42.351562 44.4375 42.660156 C 44.589844 42.972656 43.613281 44.082031 43.914062 44.117188 C 44.214844 44.148438 44.683594 43.550781 44.871094 42.75 C 45.058594 41.945312 44.09375 40.253906 43.414062 40.578125 Z M 72.515625 38.589844 C 71.757812 38.996094 68.414062 39 70.328125 38.085938 C 72.242188 37.171875 73.226562 33.554688 71.925781 34.875 C 70.628906 36.195312 67.128906 35.648438 66.527344 35.199219 C 65.929688 34.75 67.027344 33.804688 66.929688 32.808594 C 66.828125 31.8125 64.527344 33.257812 63.179688 32.511719 C 61.828125 31.765625 61.410156 26.335938 61.410156 26.335938 L 61.410156 33.507812 C 62.5 34.9375 64.554688 36.890625 66 37.507812 C 66.542969 37.738281 67.421875 38.304688 68.414062 39 C 69.5625 39.808594 70.859375 40.796875 71.949219 41.644531 C 72.242188 40.851562 73.164062 38.246094 72.515625 38.589844 Z M 61.257812 13.128906 L 56.292969 11.25 C 56.292969 11.25 55.734375 11.386719 55.585938 12.050781 C 55.4375 12.714844 55.507812 12.90625 55.414062 13.191406 C 55.320312 13.476562 55.414062 14.289062 55.777344 14.621094 C 56.140625 14.953125 55.40625 15.734375 56.074219 16.328125 C 56.320312 16.550781 56.71875 16.796875 57.148438 17.058594 L 57.148438 21.304688 L 57.210938 21.3125 C 57.324219 21.332031 57.445312 21.332031 57.558594 21.3125 L 57.621094 21.304688 L 57.621094 17.339844 C 58.214844 17.699219 58.800781 18.078125 59.117188 18.449219 C 59.753906 19.199219 60.761719 19.933594 62.601562 18.304688 Z M 55.230469 26.136719 L 55.804688 26.136719 L 55.804688 25.78125 L 55.230469 25.78125 Z M 55.230469 27.039062 L 55.804688 27.039062 L 55.804688 26.6875 L 55.230469 26.6875 Z M 55.230469 25.230469 L 55.804688 25.230469 L 55.804688 24.875 L 55.230469 24.875 Z M 57.5 32.683594 L 58.902344 32.683594 L 58.902344 31.714844 L 57.5 31.714844 Z M 87.574219 42 Z M 89.773438 46.003906 C 89.875 44.859375 87.945312 43.578125 87.945312 43.578125 C 87.65625 43.511719 87.359375 43.457031 87.050781 43.414062 C 84.800781 43.117188 83.375 43.9375 82.101562 44.945312 C 80.824219 45.953125 80.152344 47.449219 79.523438 50.019531 C 79.3125 50.890625 79.082031 51.839844 78.835938 52.796875 C 78.835938 52.796875 78.6875 55.402344 79.289062 55.550781 C 79.886719 55.699219 80.902344 55.027344 82.398438 54.542969 C 83.898438 54.058594 85.023438 53.796875 85.101562 54.582031 C 85.175781 55.363281 83.5625 55.777344 82.136719 56.707031 C 80.714844 57.640625 80.226562 59.0625 80.339844 59.84375 C 80.449219 60.628906 83 59.210938 83.523438 60.40625 C 84.050781 61.601562 83.148438 62.800781 85.847656 62.519531 C 87.8125 62.3125 89.355469 61.507812 90.054688 61.082031 C 90.015625 61.679688 89.976562 62.308594 89.9375 62.980469 C 89.925781 63.214844 89.914062 63.445312 89.90625 63.671875 C 89.859375 63.671875 89.808594 63.671875 89.761719 63.671875 C 89.664062 63.671875 89.570312 63.671875 89.472656 63.675781 C 89.394531 63.675781 89.3125 63.679688 89.234375 63.679688 C 89.136719 63.683594 89.035156 63.683594 88.9375 63.6875 C 88.867188 63.6875 88.796875 63.691406 88.730469 63.691406 C 88.621094 63.695312 88.515625 63.699219 88.410156 63.703125 C 88.359375 63.707031 88.308594 63.707031 88.253906 63.710938 C 88.136719 63.714844 88.015625 63.71875 87.894531 63.726562 C 87.886719 63.726562 87.878906 63.726562 87.871094 63.726562 C 85.085938 63.859375 82.683594 64.1875 80.390625 64.179688 C 80.378906 64.179688 80.371094 64.179688 80.359375 64.179688 C 80.230469 64.179688 80.097656 64.179688 79.96875 64.175781 C 79.949219 64.175781 79.929688 64.175781 79.90625 64.175781 C 79.789062 64.171875 79.667969 64.167969 79.550781 64.164062 C 79.523438 64.160156 79.496094 64.160156 79.46875 64.160156 C 79.355469 64.152344 79.242188 64.148438 79.132812 64.140625 C 79.101562 64.136719 79.070312 64.136719 79.042969 64.132812 C 78.929688 64.125 78.820312 64.117188 78.710938 64.109375 C 78.679688 64.105469 78.648438 64.101562 78.617188 64.097656 C 78.507812 64.089844 78.394531 64.078125 78.285156 64.0625 C 78.257812 64.0625 78.226562 64.058594 78.199219 64.054688 C 78.082031 64.039062 77.96875 64.023438 77.851562 64.007812 C 77.828125 64.003906 77.804688 64 77.78125 64 C 77.652344 63.980469 77.523438 63.957031 77.394531 63.933594 C 77.386719 63.933594 77.375 63.933594 77.367188 63.929688 C 77.082031 63.878906 76.796875 63.820312 76.511719 63.75 C 76.402344 63.683594 76.277344 63.628906 76.136719 63.582031 C 76.347656 62.007812 75.824219 61.46875 74.574219 60.28125 C 73.316406 59.082031 72.207031 59.007812 71.699219 59.082031 C 71.191406 59.160156 71.1875 60.050781 70.476562 59.835938 C 70.222656 59.757812 69.996094 59.613281 69.792969 59.449219 C 70.128906 58.1875 70.40625 56.632812 70.492188 54.421875 C 70.546875 53.070312 70.640625 51.929688 70.757812 50.90625 C 70.757812 50.910156 70.742188 52.710938 71.714844 53.011719 C 72.691406 53.308594 74.488281 52.550781 75.164062 51.960938 C 75.839844 51.367188 76.515625 50.894531 76.777344 50.90625 C 77.039062 50.921875 77.5625 51.269531 75.539062 52.796875 C 73.515625 54.320312 73.289062 55.085938 72.953125 55.710938 C 72.613281 56.335938 73.964844 56.542969 74.675781 55.710938 C 75.390625 54.878906 75.800781 55.363281 75.3125 56.261719 C 74.828125 57.15625 74 58.238281 74.640625 58.800781 C 74.941406 59.066406 75.226562 59.355469 75.441406 59.589844 C 75.90625 58.222656 76.40625 56.765625 76.773438 55.613281 C 77.59375 53.023438 79.027344 48.34375 79.523438 45.878906 C 79.933594 43.847656 82.589844 42.324219 83.507812 41.851562 C 83.707031 41.75 83.824219 41.695312 83.824219 41.695312 C 83.847656 41.695312 83.871094 41.691406 83.898438 41.6875 C 84.675781 41.375 86.457031 40.714844 87.574219 40.800781 C 89.035156 40.914062 87.875 39.457031 86.710938 38.894531 C 85.550781 38.335938 82.988281 38.746094 82.84375 38.375 C 82.699219 38 84.3125 37.738281 85.175781 37.625 C 86.035156 37.515625 85.101562 36.097656 84.199219 35.910156 C 83.300781 35.722656 83.589844 33.625 86.5 34.078125 C 87.496094 35.9375 89.144531 39.234375 90.203125 41.066406 C 90.828125 42.144531 91.039062 43.230469 91.0625 44.605469 C 91.765625 47.859375 90.449219 55.710938 90.449219 55.710938 C 90.449219 55.710938 90.199219 50.410156 88.324219 47.996094 C 87.707031 47.199219 89.675781 47.148438 89.773438 46.003906 Z M 57.210938 34.484375 L 57.148438 34.492188 L 57.148438 53.25 C 57.304688 53.296875 57.460938 53.347656 57.621094 53.398438 L 57.621094 34.492188 L 57.558594 34.484375 C 57.445312 34.46875 57.324219 34.46875 57.210938 34.484375 Z M 27.632812 41.589844 C 26.949219 41.523438 26.269531 41.441406 25.609375 41.460938 C 25.722656 42.207031 25.851562 42.792969 27.199219 43.1875 C 28.625 43.601562 28.46875 45.746094 28.519531 46.703125 C 28.570312 47.660156 29.894531 48.710938 31.71875 48.953125 C 33.066406 49.132812 34.839844 49.292969 35.414062 49.621094 C 33.992188 47.238281 32.152344 44.546875 32.152344 44.546875 C 32.152344 44.546875 30.1875 41.847656 27.632812 41.589844 Z M 78.953125 20.179688 C 80.871094 19.367188 82.757812 19.871094 84.539062 18.789062 C 84.6875 18.441406 85.203125 18.46875 85.546875 18.632812 C 86.445312 19.0625 87.308594 20.347656 87.648438 21.28125 C 88.132812 22.621094 88.257812 23.726562 87.941406 25.113281 C 87.667969 25.015625 87.191406 24.726562 87.144531 24.445312 C 87.097656 24.160156 87.136719 23.871094 87.136719 23.582031 C 87.132812 23.105469 87.011719 22.625 86.785156 22.203125 C 86.679688 22.003906 86.488281 21.789062 86.265625 21.84375 C 86.132812 21.875 86.042969 21.996094 85.964844 22.105469 C 85.464844 22.84375 85.039062 23.636719 84.703125 24.460938 C 84.636719 24.625 84.574219 24.792969 84.441406 24.914062 C 84.3125 25.03125 84.097656 25.082031 83.960938 24.972656 C 83.832031 24.875 83.8125 24.6875 83.820312 24.523438 C 83.839844 23.777344 84.089844 23.039062 84.527344 22.429688 C 84.691406 22.199219 84.84375 21.800781 84.574219 21.703125 C 84.492188 21.671875 84.402344 21.695312 84.316406 21.714844 C 83.644531 21.871094 82.945312 21.882812 82.269531 21.753906 C 82.460938 21.238281 83.0625 21.035156 83.585938 20.867188 C 84.109375 20.695312 84.699219 20.402344 84.773438 19.859375 C 82.855469 20.195312 80.898438 20.304688 78.953125 20.179688 " fill-opacity="1" fill-rule="nonzero"/></g><g fill="#ffffff" fill-opacity="1"><g transform="translate(31.144921, 96.22499)"><g><path d="M 3.71875 -7.6875 L 3.71875 0 L 0.90625 0 L 0.90625 -12.375 L 3.71875 -12.375 L 8.640625 -4.6875 L 8.671875 -4.6875 L 8.671875 -12.375 L 11.484375 -12.375 L 11.484375 0 L 8.671875 0 L 3.75 -7.6875 Z M 3.71875 -7.6875 "/></g></g></g><g fill="#ffffff" fill-opacity="1"><g transform="translate(43.533004, 96.22499)"><g><path d="M 8.6875 -3.484375 L 3.109375 -3.484375 C 3.109375 -2.941406 3.28125 -2.539062 3.625 -2.28125 C 3.976562 -2.019531 4.359375 -1.890625 4.765625 -1.890625 C 5.203125 -1.890625 5.546875 -1.945312 5.796875 -2.0625 C 6.046875 -2.175781 6.328125 -2.40625 6.640625 -2.75 L 8.5625 -1.78125 C 7.757812 -0.445312 6.429688 0.21875 4.578125 0.21875 C 3.410156 0.21875 2.410156 -0.175781 1.578125 -0.96875 C 0.753906 -1.757812 0.34375 -2.710938 0.34375 -3.828125 C 0.34375 -4.953125 0.753906 -5.914062 1.578125 -6.71875 C 2.410156 -7.519531 3.410156 -7.921875 4.578125 -7.921875 C 5.796875 -7.921875 6.785156 -7.566406 7.546875 -6.859375 C 8.316406 -6.160156 8.703125 -5.15625 8.703125 -3.84375 C 8.703125 -3.65625 8.695312 -3.535156 8.6875 -3.484375 Z M 3.1875 -4.953125 L 6.109375 -4.953125 C 6.046875 -5.347656 5.882812 -5.648438 5.625 -5.859375 C 5.375 -6.078125 5.050781 -6.1875 4.65625 -6.1875 C 4.207031 -6.1875 3.851562 -6.070312 3.59375 -5.84375 C 3.332031 -5.613281 3.195312 -5.316406 3.1875 -4.953125 Z M 3.1875 -4.953125 "/></g></g></g><g fill="#ffffff" fill-opacity="1"><g transform="translate(52.576605, 96.22499)"><g><path d="M 8.6875 -3.484375 L 3.109375 -3.484375 C 3.109375 -2.941406 3.28125 -2.539062 3.625 -2.28125 C 3.976562 -2.019531 4.359375 -1.890625 4.765625 -1.890625 C 5.203125 -1.890625 5.546875 -1.945312 5.796875 -2.0625 C 6.046875 -2.175781 6.328125 -2.40625 6.640625 -2.75 L 8.5625 -1.78125 C 7.757812 -0.445312 6.429688 0.21875 4.578125 0.21875 C 3.410156 0.21875 2.410156 -0.175781 1.578125 -0.96875 C 0.753906 -1.757812 0.34375 -2.710938 0.34375 -3.828125 C 0.34375 -4.953125 0.753906 -5.914062 1.578125 -6.71875 C 2.410156 -7.519531 3.410156 -7.921875 4.578125 -7.921875 C 5.796875 -7.921875 6.785156 -7.566406 7.546875 -6.859375 C 8.316406 -6.160156 8.703125 -5.15625 8.703125 -3.84375 C 8.703125 -3.65625 8.695312 -3.535156 8.6875 -3.484375 Z M 3.1875 -4.953125 L 6.109375 -4.953125 C 6.046875 -5.347656 5.882812 -5.648438 5.625 -5.859375 C 5.375 -6.078125 5.050781 -6.1875 4.65625 -6.1875 C 4.207031 -6.1875 3.851562 -6.070312 3.59375 -5.84375 C 3.332031 -5.613281 3.195312 -5.316406 3.1875 -4.953125 Z M 3.1875 -4.953125 "/></g></g></g><g fill="#ffffff" fill-opacity="1"><g transform="translate(61.620207, 96.22499)"><g><path d="M 1.421875 -0.953125 C 0.703125 -1.734375 0.34375 -2.691406 0.34375 -3.828125 C 0.34375 -4.972656 0.703125 -5.941406 1.421875 -6.734375 C 2.140625 -7.523438 3.054688 -7.921875 4.171875 -7.921875 C 5.191406 -7.921875 6.03125 -7.597656 6.6875 -6.953125 L 6.6875 -12.90625 L 9.34375 -12.90625 L 9.34375 0 L 6.71875 0 L 6.71875 -0.875 L 6.6875 -0.875 C 6.03125 -0.144531 5.191406 0.21875 4.171875 0.21875 C 3.054688 0.21875 2.140625 -0.171875 1.421875 -0.953125 Z M 3.6875 -5.140625 C 3.34375 -4.804688 3.171875 -4.375 3.171875 -3.84375 C 3.171875 -3.3125 3.332031 -2.878906 3.65625 -2.546875 C 3.988281 -2.210938 4.425781 -2.046875 4.96875 -2.046875 C 5.488281 -2.046875 5.914062 -2.210938 6.25 -2.546875 C 6.582031 -2.890625 6.75 -3.320312 6.75 -3.84375 C 6.75 -4.375 6.578125 -4.804688 6.234375 -5.140625 C 5.890625 -5.484375 5.46875 -5.65625 4.96875 -5.65625 C 4.457031 -5.65625 4.03125 -5.484375 3.6875 -5.140625 Z M 3.6875 -5.140625 "/></g></g></g><g fill="#ffffff" fill-opacity="1"><g transform="translate(71.863622, 96.22499)"><g><path d="M 6.734375 -7.6875 L 9.796875 -7.6875 L 3.75 3.90625 L 0.6875 3.90625 L 3.34375 -1.203125 L -0.296875 -7.6875 L 2.765625 -7.6875 L 4.90625 -3.75 Z M 6.734375 -7.6875 "/></g></g></g><g fill="#ffffff" fill-opacity="1"><g transform="translate(47.774145, 103.649995)"><g><path d="M 2.21875 0 L 2.109375 -1.46875 L 2.09375 -1.46875 L 1.59375 -0.015625 L 1.25 -0.015625 L 0.75 -1.46875 L 0.734375 -1.46875 L 0.609375 0 L 0.046875 0 L 0.265625 -2.46875 L 0.875 -2.46875 L 1.421875 -1.046875 L 1.96875 -2.46875 L 2.5625 -2.46875 L 2.796875 0 Z M 2.21875 0 "/></g></g></g><g fill="#ffffff" fill-opacity="1"><g transform="translate(50.611024, 103.649995)"><g><path d="M 1.734375 -0.703125 L 0.625 -0.703125 C 0.625 -0.585938 0.65625 -0.503906 0.71875 -0.453125 C 0.789062 -0.398438 0.867188 -0.375 0.953125 -0.375 C 1.035156 -0.375 1.101562 -0.382812 1.15625 -0.40625 C 1.207031 -0.4375 1.265625 -0.484375 1.328125 -0.546875 L 1.71875 -0.359375 C 1.550781 -0.0859375 1.285156 0.046875 0.921875 0.046875 C 0.679688 0.046875 0.476562 -0.03125 0.3125 -0.1875 C 0.144531 -0.351562 0.0625 -0.546875 0.0625 -0.765625 C 0.0625 -0.992188 0.144531 -1.1875 0.3125 -1.34375 C 0.476562 -1.5 0.679688 -1.578125 0.921875 -1.578125 C 1.160156 -1.578125 1.351562 -1.503906 1.5 -1.359375 C 1.65625 -1.222656 1.734375 -1.023438 1.734375 -0.765625 C 1.734375 -0.734375 1.734375 -0.710938 1.734375 -0.703125 Z M 0.640625 -0.984375 L 1.21875 -0.984375 C 1.207031 -1.066406 1.175781 -1.128906 1.125 -1.171875 C 1.070312 -1.210938 1.007812 -1.234375 0.9375 -1.234375 C 0.84375 -1.234375 0.769531 -1.207031 0.71875 -1.15625 C 0.664062 -1.113281 0.640625 -1.054688 0.640625 -0.984375 Z M 0.640625 -0.984375 "/></g></g></g><g fill="#ffffff" fill-opacity="1"><g transform="translate(52.419312, 103.649995)"><g><path d="M 0.28125 -0.1875 C 0.132812 -0.34375 0.0625 -0.535156 0.0625 -0.765625 C 0.0625 -0.992188 0.132812 -1.1875 0.28125 -1.34375 C 0.425781 -1.5 0.609375 -1.578125 0.828125 -1.578125 C 1.035156 -1.578125 1.207031 -1.515625 1.34375 -1.390625 L 1.34375 -2.578125 L 1.875 -2.578125 L 1.875 0 L 1.34375 0 L 1.34375 -0.171875 C 1.207031 -0.0234375 1.035156 0.046875 0.828125 0.046875 C 0.609375 0.046875 0.425781 -0.03125 0.28125 -0.1875 Z M 0.734375 -1.015625 C 0.671875 -0.953125 0.640625 -0.867188 0.640625 -0.765625 C 0.640625 -0.660156 0.671875 -0.570312 0.734375 -0.5 C 0.796875 -0.4375 0.882812 -0.40625 1 -0.40625 C 1.101562 -0.40625 1.1875 -0.4375 1.25 -0.5 C 1.3125 -0.570312 1.34375 -0.660156 1.34375 -0.765625 C 1.34375 -0.867188 1.304688 -0.953125 1.234375 -1.015625 C 1.171875 -1.085938 1.09375 -1.125 1 -1.125 C 0.894531 -1.125 0.804688 -1.085938 0.734375 -1.015625 Z M 0.734375 -1.015625 "/></g></g></g><g fill="#ffffff" fill-opacity="1"><g transform="translate(54.467503, 103.649995)"><g><path d="M 0.234375 -2.390625 C 0.296875 -2.453125 0.367188 -2.484375 0.453125 -2.484375 C 0.535156 -2.484375 0.609375 -2.453125 0.671875 -2.390625 C 0.734375 -2.328125 0.765625 -2.253906 0.765625 -2.171875 C 0.765625 -2.085938 0.734375 -2.015625 0.671875 -1.953125 C 0.609375 -1.890625 0.535156 -1.859375 0.453125 -1.859375 C 0.367188 -1.859375 0.296875 -1.890625 0.234375 -1.953125 C 0.171875 -2.015625 0.140625 -2.085938 0.140625 -2.171875 C 0.140625 -2.253906 0.171875 -2.328125 0.234375 -2.390625 Z M 0.1875 -1.53125 L 0.1875 0 L 0.71875 0 L 0.71875 -1.53125 Z M 0.1875 -1.53125 "/></g></g></g><g fill="#ffffff" fill-opacity="1"><g transform="translate(55.373147, 103.649995)"><g><path d="M 1.09375 -2.515625 C 1.226562 -2.515625 1.359375 -2.492188 1.484375 -2.453125 C 1.609375 -2.421875 1.703125 -2.382812 1.765625 -2.34375 L 1.859375 -2.28125 L 1.625 -1.84375 C 1.613281 -1.851562 1.59375 -1.863281 1.5625 -1.875 C 1.53125 -1.894531 1.46875 -1.921875 1.375 -1.953125 C 1.289062 -1.984375 1.207031 -2 1.125 -2 C 1.03125 -2 0.957031 -1.976562 0.90625 -1.9375 C 0.863281 -1.90625 0.84375 -1.851562 0.84375 -1.78125 C 0.84375 -1.75 0.851562 -1.71875 0.875 -1.6875 C 0.894531 -1.65625 0.929688 -1.625 0.984375 -1.59375 C 1.046875 -1.5625 1.097656 -1.535156 1.140625 -1.515625 C 1.191406 -1.492188 1.265625 -1.460938 1.359375 -1.421875 C 1.515625 -1.359375 1.648438 -1.265625 1.765625 -1.140625 C 1.878906 -1.023438 1.9375 -0.894531 1.9375 -0.75 C 1.9375 -0.613281 1.910156 -0.488281 1.859375 -0.375 C 1.804688 -0.269531 1.734375 -0.1875 1.640625 -0.125 C 1.554688 -0.0703125 1.457031 -0.03125 1.34375 0 C 1.238281 0.03125 1.125 0.046875 1 0.046875 C 0.894531 0.046875 0.789062 0.0351562 0.6875 0.015625 C 0.582031 -0.00390625 0.492188 -0.03125 0.421875 -0.0625 C 0.347656 -0.101562 0.28125 -0.140625 0.21875 -0.171875 C 0.164062 -0.203125 0.128906 -0.226562 0.109375 -0.25 L 0.0625 -0.28125 L 0.34375 -0.75 C 0.375 -0.726562 0.410156 -0.703125 0.453125 -0.671875 C 0.492188 -0.648438 0.566406 -0.613281 0.671875 -0.5625 C 0.773438 -0.507812 0.867188 -0.484375 0.953125 -0.484375 C 1.191406 -0.484375 1.3125 -0.5625 1.3125 -0.71875 C 1.3125 -0.75 1.300781 -0.78125 1.28125 -0.8125 C 1.269531 -0.84375 1.242188 -0.867188 1.203125 -0.890625 C 1.160156 -0.921875 1.117188 -0.945312 1.078125 -0.96875 C 1.046875 -0.988281 0.992188 -1.015625 0.921875 -1.046875 C 0.847656 -1.078125 0.789062 -1.101562 0.75 -1.125 C 0.601562 -1.195312 0.488281 -1.289062 0.40625 -1.40625 C 0.320312 -1.519531 0.28125 -1.640625 0.28125 -1.765625 C 0.28125 -1.984375 0.363281 -2.160156 0.53125 -2.296875 C 0.695312 -2.441406 0.882812 -2.515625 1.09375 -2.515625 Z M 1.09375 -2.515625 "/></g></g></g><g fill="#ffffff" fill-opacity="1"><g transform="translate(57.388352, 103.649995)"><g><path d="M 0.1875 0 L 0.1875 -2.578125 L 0.71875 -2.578125 L 0.71875 -1.375 C 0.851562 -1.507812 1 -1.578125 1.15625 -1.578125 C 1.226562 -1.578125 1.300781 -1.566406 1.375 -1.546875 C 1.457031 -1.535156 1.53125 -1.503906 1.59375 -1.453125 C 1.664062 -1.410156 1.722656 -1.351562 1.765625 -1.28125 C 1.804688 -1.207031 1.828125 -1.117188 1.828125 -1.015625 L 1.828125 0 L 1.296875 0 L 1.296875 -0.875 C 1.296875 -0.945312 1.269531 -1.015625 1.21875 -1.078125 C 1.175781 -1.140625 1.113281 -1.171875 1.03125 -1.171875 C 0.945312 -1.171875 0.875 -1.140625 0.8125 -1.078125 C 0.75 -1.015625 0.71875 -0.945312 0.71875 -0.875 L 0.71875 0 Z M 0.1875 0 "/></g></g></g><g fill="#ffffff" fill-opacity="1"><g transform="translate(59.37057, 103.649995)"><g><path d="M 0.28125 -0.1875 C 0.132812 -0.34375 0.0625 -0.535156 0.0625 -0.765625 C 0.0625 -0.992188 0.132812 -1.1875 0.28125 -1.34375 C 0.425781 -1.5 0.609375 -1.578125 0.828125 -1.578125 C 1.035156 -1.578125 1.207031 -1.515625 1.34375 -1.390625 L 1.34375 -1.53125 L 1.875 -1.53125 L 1.875 0 L 1.34375 0 L 1.34375 -0.171875 C 1.207031 -0.0234375 1.035156 0.046875 0.828125 0.046875 C 0.609375 0.046875 0.425781 -0.03125 0.28125 -0.1875 Z M 0.734375 -1.015625 C 0.671875 -0.953125 0.640625 -0.867188 0.640625 -0.765625 C 0.640625 -0.660156 0.671875 -0.570312 0.734375 -0.5 C 0.796875 -0.4375 0.882812 -0.40625 1 -0.40625 C 1.101562 -0.40625 1.1875 -0.4375 1.25 -0.5 C 1.3125 -0.570312 1.34375 -0.660156 1.34375 -0.765625 C 1.34375 -0.867188 1.304688 -0.953125 1.234375 -1.015625 C 1.171875 -1.085938 1.09375 -1.125 1 -1.125 C 0.894531 -1.125 0.804688 -1.085938 0.734375 -1.015625 Z M 0.734375 -1.015625 "/></g></g></g><g fill="#ffffff" fill-opacity="1"><g transform="translate(61.418761, 103.649995)"><g><path d="M 0.1875 0 L 0.1875 -1.53125 L 0.71875 -1.53125 L 0.71875 -1.3125 C 0.71875 -1.320312 0.722656 -1.332031 0.734375 -1.34375 C 0.742188 -1.351562 0.765625 -1.375 0.796875 -1.40625 C 0.828125 -1.4375 0.859375 -1.460938 0.890625 -1.484375 C 0.921875 -1.515625 0.960938 -1.535156 1.015625 -1.546875 C 1.078125 -1.566406 1.132812 -1.578125 1.1875 -1.578125 C 1.25 -1.578125 1.304688 -1.566406 1.359375 -1.546875 C 1.410156 -1.535156 1.453125 -1.523438 1.484375 -1.515625 L 1.53125 -1.484375 L 1.296875 -1.03125 C 1.234375 -1.09375 1.144531 -1.125 1.03125 -1.125 C 0.96875 -1.125 0.910156 -1.109375 0.859375 -1.078125 C 0.816406 -1.046875 0.785156 -1.007812 0.765625 -0.96875 C 0.742188 -0.9375 0.726562 -0.90625 0.71875 -0.875 C 0.71875 -0.84375 0.71875 -0.820312 0.71875 -0.8125 L 0.71875 0 Z M 0.1875 0 "/></g></g></g><g fill="#ffffff" fill-opacity="1"><g transform="translate(62.912171, 103.649995)"><g><path d="M 1.734375 -0.703125 L 0.625 -0.703125 C 0.625 -0.585938 0.65625 -0.503906 0.71875 -0.453125 C 0.789062 -0.398438 0.867188 -0.375 0.953125 -0.375 C 1.035156 -0.375 1.101562 -0.382812 1.15625 -0.40625 C 1.207031 -0.4375 1.265625 -0.484375 1.328125 -0.546875 L 1.71875 -0.359375 C 1.550781 -0.0859375 1.285156 0.046875 0.921875 0.046875 C 0.679688 0.046875 0.476562 -0.03125 0.3125 -0.1875 C 0.144531 -0.351562 0.0625 -0.546875 0.0625 -0.765625 C 0.0625 -0.992188 0.144531 -1.1875 0.3125 -1.34375 C 0.476562 -1.5 0.679688 -1.578125 0.921875 -1.578125 C 1.160156 -1.578125 1.351562 -1.503906 1.5 -1.359375 C 1.65625 -1.222656 1.734375 -1.023438 1.734375 -0.765625 C 1.734375 -0.734375 1.734375 -0.710938 1.734375 -0.703125 Z M 0.640625 -0.984375 L 1.21875 -0.984375 C 1.207031 -1.066406 1.175781 -1.128906 1.125 -1.171875 C 1.070312 -1.210938 1.007812 -1.234375 0.9375 -1.234375 C 0.84375 -1.234375 0.769531 -1.207031 0.71875 -1.15625 C 0.664062 -1.113281 0.640625 -1.054688 0.640625 -0.984375 Z M 0.640625 -0.984375 "/></g></g></g></svg>