<svg xmlns="http://www.w3.org/2000/svg" xmlns:xlink="http://www.w3.org/1999/xlink" width="150" zoomAndPan="magnify" viewBox="0 0 112.5 112.499997" height="150" preserveAspectRatio="xMidYMid meet" version="1.0"><defs><g/><clipPath id="5994c14ba0"><path d="M 0 0 L 112.003906 0 L 112.003906 112.003906 L 0 112.003906 Z M 0 0 " clip-rule="nonzero"/></clipPath><clipPath id="10aab26f20"><path d="M 37 11.25 L 53 11.25 L 53 26 L 37 26 Z M 37 11.25 " clip-rule="nonzero"/></clipPath><clipPath id="f7b21a7a98"><path d="M 60 11.25 L 75 11.25 L 75 26 L 60 26 Z M 60 11.25 " clip-rule="nonzero"/></clipPath><clipPath id="c194801274"><path d="M 43 55 L 70 55 L 70 77.25 L 43 77.25 Z M 43 55 " clip-rule="nonzero"/></clipPath><clipPath id="83313c5b62"><path d="M 20.425781 47 L 46 47 L 46 69 L 20.425781 69 Z M 20.425781 47 " clip-rule="nonzero"/></clipPath><clipPath id="3ed6611b31"><path d="M 66 47 L 92.425781 47 L 92.425781 69 L 66 69 Z M 66 47 " clip-rule="nonzero"/></clipPath></defs><g clip-path="url(#5994c14ba0)"><path fill="#ffffff" d="M 0 0 L 112.5 0 L 112.5 120 L 0 120 Z M 0 0 " fill-opacity="1" fill-rule="nonzero"/><path fill="#ffffff" d="M 0 0 L 112.5 0 L 112.5 112.5 L 0 112.5 Z M 0 0 " fill-opacity="1" fill-rule="nonzero"/><path fill="#46a49e" d="M 0 0 L 112.5 0 L 112.5 112.5 L 0 112.5 Z M 0 0 " fill-opacity="1" fill-rule="nonzero"/></g><g clip-path="url(#10aab26f20)"><path fill="#ffffff" d="M 52.105469 18.425781 C 52.105469 18.894531 52.058594 19.363281 51.964844 19.824219 C 51.875 20.285156 51.738281 20.734375 51.554688 21.167969 C 51.375 21.605469 51.152344 22.019531 50.890625 22.410156 C 50.628906 22.800781 50.328125 23.164062 49.996094 23.496094 C 49.660156 23.832031 49.296875 24.128906 48.902344 24.390625 C 48.511719 24.652344 48.097656 24.871094 47.660156 25.050781 C 47.222656 25.230469 46.773438 25.367188 46.308594 25.460938 C 45.84375 25.550781 45.375 25.597656 44.902344 25.597656 C 44.429688 25.597656 43.964844 25.550781 43.5 25.460938 C 43.035156 25.367188 42.585938 25.230469 42.148438 25.050781 C 41.710938 24.871094 41.296875 24.652344 40.902344 24.390625 C 40.511719 24.128906 40.148438 23.832031 39.8125 23.496094 C 39.476562 23.164062 39.179688 22.800781 38.917969 22.410156 C 38.65625 22.019531 38.433594 21.605469 38.253906 21.167969 C 38.070312 20.734375 37.933594 20.285156 37.84375 19.824219 C 37.75 19.363281 37.703125 18.894531 37.703125 18.425781 C 37.703125 17.953125 37.75 17.488281 37.84375 17.023438 C 37.933594 16.5625 38.070312 16.113281 38.253906 15.679688 C 38.433594 15.242188 38.65625 14.832031 38.917969 14.4375 C 39.179688 14.046875 39.476562 13.683594 39.8125 13.351562 C 40.148438 13.019531 40.511719 12.722656 40.902344 12.460938 C 41.296875 12.199219 41.710938 11.976562 42.148438 11.796875 C 42.585938 11.617188 43.035156 11.480469 43.5 11.386719 C 43.964844 11.296875 44.429688 11.25 44.902344 11.25 C 45.375 11.25 45.84375 11.296875 46.308594 11.386719 C 46.773438 11.480469 47.222656 11.617188 47.660156 11.796875 C 48.097656 11.976562 48.511719 12.199219 48.902344 12.460938 C 49.296875 12.722656 49.660156 13.019531 49.996094 13.351562 C 50.328125 13.683594 50.628906 14.046875 50.890625 14.4375 C 51.152344 14.832031 51.375 15.242188 51.554688 15.679688 C 51.738281 16.113281 51.875 16.5625 51.964844 17.023438 C 52.058594 17.488281 52.105469 17.953125 52.105469 18.425781 Z M 52.105469 18.425781 " fill-opacity="1" fill-rule="nonzero"/></g><g clip-path="url(#f7b21a7a98)"><path fill="#ffffff" d="M 74.855469 18.425781 C 74.855469 18.894531 74.808594 19.363281 74.71875 19.824219 C 74.625 20.285156 74.488281 20.734375 74.308594 21.167969 C 74.128906 21.605469 73.90625 22.019531 73.640625 22.410156 C 73.378906 22.800781 73.082031 23.164062 72.746094 23.496094 C 72.414062 23.832031 72.050781 24.128906 71.65625 24.390625 C 71.261719 24.652344 70.847656 24.871094 70.410156 25.050781 C 69.972656 25.230469 69.523438 25.367188 69.0625 25.460938 C 68.597656 25.550781 68.128906 25.597656 67.65625 25.597656 C 67.183594 25.597656 66.714844 25.550781 66.25 25.460938 C 65.789062 25.367188 65.335938 25.230469 64.902344 25.050781 C 64.464844 24.871094 64.050781 24.652344 63.65625 24.390625 C 63.261719 24.128906 62.898438 23.832031 62.566406 23.496094 C 62.230469 23.164062 61.933594 22.800781 61.667969 22.410156 C 61.40625 22.019531 61.183594 21.605469 61.003906 21.167969 C 60.824219 20.734375 60.6875 20.285156 60.59375 19.824219 C 60.503906 19.363281 60.457031 18.894531 60.457031 18.425781 C 60.457031 17.953125 60.503906 17.488281 60.59375 17.023438 C 60.6875 16.5625 60.824219 16.113281 61.003906 15.679688 C 61.183594 15.242188 61.40625 14.832031 61.667969 14.4375 C 61.933594 14.046875 62.230469 13.683594 62.566406 13.351562 C 62.898438 13.019531 63.261719 12.722656 63.65625 12.460938 C 64.050781 12.199219 64.464844 11.976562 64.902344 11.796875 C 65.335938 11.617188 65.789062 11.480469 66.25 11.386719 C 66.714844 11.296875 67.183594 11.25 67.65625 11.25 C 68.128906 11.25 68.597656 11.296875 69.0625 11.386719 C 69.523438 11.480469 69.972656 11.617188 70.410156 11.796875 C 70.847656 11.976562 71.261719 12.199219 71.65625 12.460938 C 72.050781 12.722656 72.414062 13.019531 72.746094 13.351562 C 73.082031 13.683594 73.378906 14.046875 73.640625 14.4375 C 73.90625 14.832031 74.128906 15.242188 74.308594 15.679688 C 74.488281 16.113281 74.625 16.5625 74.71875 17.023438 C 74.808594 17.488281 74.855469 17.953125 74.855469 18.425781 Z M 74.855469 18.425781 " fill-opacity="1" fill-rule="nonzero"/></g><path fill="#ffffff" d="M 65.101562 45.722656 C 65.101562 46.289062 65.046875 46.847656 64.9375 47.402344 C 64.824219 47.957031 64.664062 48.496094 64.445312 49.019531 C 64.226562 49.539062 63.960938 50.035156 63.648438 50.507812 C 63.332031 50.976562 62.972656 51.410156 62.570312 51.8125 C 62.171875 52.210938 61.734375 52.566406 61.261719 52.882812 C 60.792969 53.195312 60.292969 53.460938 59.769531 53.675781 C 59.246094 53.894531 58.703125 54.054688 58.148438 54.167969 C 57.59375 54.277344 57.03125 54.332031 56.460938 54.332031 C 55.894531 54.332031 55.332031 54.277344 54.777344 54.167969 C 54.222656 54.054688 53.679688 53.894531 53.15625 53.675781 C 52.632812 53.460938 52.132812 53.195312 51.664062 52.882812 C 51.191406 52.566406 50.753906 52.210938 50.351562 51.8125 C 49.953125 51.410156 49.59375 50.976562 49.277344 50.507812 C 48.964844 50.035156 48.699219 49.539062 48.480469 49.019531 C 48.261719 48.496094 48.097656 47.957031 47.988281 47.402344 C 47.878906 46.847656 47.824219 46.289062 47.824219 45.722656 C 47.824219 45.160156 47.878906 44.597656 47.988281 44.042969 C 48.097656 43.488281 48.261719 42.953125 48.480469 42.429688 C 48.699219 41.90625 48.964844 41.410156 49.277344 40.941406 C 49.59375 40.472656 49.953125 40.035156 50.351562 39.636719 C 50.753906 39.238281 51.191406 38.878906 51.664062 38.566406 C 52.132812 38.25 52.632812 37.988281 53.15625 37.769531 C 53.679688 37.554688 54.222656 37.390625 54.777344 37.28125 C 55.332031 37.171875 55.894531 37.113281 56.460938 37.113281 C 57.03125 37.113281 57.59375 37.171875 58.148438 37.28125 C 58.703125 37.390625 59.246094 37.554688 59.769531 37.769531 C 60.292969 37.988281 60.792969 38.25 61.261719 38.566406 C 61.734375 38.878906 62.171875 39.238281 62.570312 39.636719 C 62.972656 40.035156 63.332031 40.472656 63.648438 40.941406 C 63.960938 41.410156 64.226562 41.90625 64.445312 42.429688 C 64.664062 42.953125 64.824219 43.488281 64.9375 44.042969 C 65.046875 44.597656 65.101562 45.160156 65.101562 45.722656 Z M 65.101562 45.722656 " fill-opacity="1" fill-rule="nonzero"/><g clip-path="url(#c194801274)"><path fill="#ffffff" d="M 56.460938 77.289062 C 47.597656 77.289062 44.414062 75.097656 44.078125 74.847656 C 43.714844 74.578125 43.503906 74.152344 43.503906 73.699219 L 43.503906 68.679688 C 43.503906 61.558594 49.316406 55.765625 56.460938 55.765625 C 63.609375 55.765625 69.421875 61.558594 69.421875 68.679688 L 69.421875 73.699219 C 69.421875 74.152344 69.210938 74.578125 68.847656 74.847656 C 68.515625 75.097656 65.328125 77.289062 56.460938 77.289062 Z M 56.460938 77.289062 " fill-opacity="1" fill-rule="nonzero"/></g><g clip-path="url(#83313c5b62)"><path fill="#ffffff" d="M 45.945312 56.910156 C 44.539062 51.296875 39.449219 47.121094 33.382812 47.121094 C 26.238281 47.121094 20.425781 52.910156 20.425781 60.03125 L 20.425781 65.054688 C 20.425781 65.503906 20.636719 65.929688 21 66.203125 C 21.335938 66.453125 24.519531 68.640625 33.382812 68.640625 C 36.457031 68.640625 38.832031 68.375 40.65625 68.019531 C 40.839844 63.609375 42.84375 59.667969 45.945312 56.910156 Z M 45.945312 56.910156 " fill-opacity="1" fill-rule="nonzero"/></g><g clip-path="url(#3ed6611b31)"><path fill="#ffffff" d="M 79.464844 47.121094 C 73.421875 47.121094 68.34375 51.269531 66.917969 56.855469 C 70.058594 59.613281 72.089844 63.585938 72.269531 68.035156 C 74.085938 68.382812 76.4375 68.640625 79.464844 68.640625 C 88.328125 68.640625 91.515625 66.453125 91.847656 66.203125 C 92.210938 65.933594 92.425781 65.503906 92.425781 65.054688 L 92.425781 60.03125 C 92.425781 52.910156 86.609375 47.121094 79.464844 47.121094 Z M 79.464844 47.121094 " fill-opacity="1" fill-rule="nonzero"/></g><path fill="#ffffff" d="M 88.144531 37.113281 C 88.144531 37.679688 88.085938 38.238281 87.976562 38.792969 C 87.867188 39.347656 87.703125 39.886719 87.484375 40.410156 C 87.269531 40.929688 87 41.425781 86.6875 41.898438 C 86.371094 42.367188 86.011719 42.800781 85.613281 43.203125 C 85.210938 43.601562 84.773438 43.957031 84.304688 44.273438 C 83.832031 44.585938 83.332031 44.851562 82.808594 45.066406 C 82.285156 45.285156 81.746094 45.449219 81.1875 45.558594 C 80.632812 45.667969 80.070312 45.722656 79.503906 45.722656 C 78.933594 45.722656 78.375 45.667969 77.816406 45.558594 C 77.261719 45.449219 76.71875 45.285156 76.195312 45.066406 C 75.671875 44.851562 75.175781 44.585938 74.703125 44.273438 C 74.230469 43.957031 73.792969 43.601562 73.394531 43.203125 C 72.992188 42.800781 72.632812 42.367188 72.320312 41.898438 C 72.003906 41.425781 71.738281 40.929688 71.519531 40.410156 C 71.304688 39.886719 71.140625 39.347656 71.027344 38.792969 C 70.917969 38.238281 70.863281 37.679688 70.863281 37.113281 C 70.863281 36.550781 70.917969 35.988281 71.027344 35.433594 C 71.140625 34.882812 71.304688 34.34375 71.519531 33.820312 C 71.738281 33.296875 72.003906 32.800781 72.320312 32.332031 C 72.632812 31.863281 72.992188 31.425781 73.394531 31.027344 C 73.792969 30.628906 74.230469 30.269531 74.703125 29.957031 C 75.175781 29.644531 75.671875 29.378906 76.195312 29.160156 C 76.71875 28.945312 77.261719 28.78125 77.816406 28.671875 C 78.375 28.5625 78.933594 28.507812 79.503906 28.507812 C 80.070312 28.507812 80.632812 28.5625 81.1875 28.671875 C 81.746094 28.78125 82.285156 28.945312 82.808594 29.160156 C 83.332031 29.378906 83.832031 29.644531 84.304688 29.957031 C 84.773438 30.269531 85.210938 30.628906 85.613281 31.027344 C 86.011719 31.425781 86.371094 31.863281 86.6875 32.332031 C 87 32.800781 87.269531 33.296875 87.484375 33.820312 C 87.703125 34.34375 87.867188 34.882812 87.976562 35.433594 C 88.085938 35.988281 88.144531 36.550781 88.144531 37.113281 Z M 88.144531 37.113281 " fill-opacity="1" fill-rule="nonzero"/><path fill="#ffffff" d="M 42.0625 37.113281 C 42.0625 37.679688 42.007812 38.238281 41.898438 38.792969 C 41.785156 39.347656 41.621094 39.886719 41.40625 40.410156 C 41.1875 40.929688 40.921875 41.425781 40.605469 41.898438 C 40.292969 42.367188 39.933594 42.800781 39.53125 43.203125 C 39.132812 43.601562 38.695312 43.957031 38.222656 44.273438 C 37.75 44.585938 37.253906 44.851562 36.730469 45.066406 C 36.207031 45.285156 35.664062 45.449219 35.109375 45.558594 C 34.550781 45.667969 33.988281 45.722656 33.421875 45.722656 C 32.855469 45.722656 32.292969 45.667969 31.738281 45.558594 C 31.179688 45.449219 30.640625 45.285156 30.117188 45.066406 C 29.59375 44.851562 29.09375 44.585938 28.621094 44.273438 C 28.152344 43.957031 27.714844 43.601562 27.3125 43.203125 C 26.914062 42.800781 26.554688 42.367188 26.238281 41.898438 C 25.921875 41.425781 25.65625 40.929688 25.441406 40.410156 C 25.222656 39.886719 25.058594 39.347656 24.949219 38.792969 C 24.839844 38.238281 24.78125 37.679688 24.78125 37.113281 C 24.78125 36.550781 24.839844 35.988281 24.949219 35.433594 C 25.058594 34.882812 25.222656 34.34375 25.441406 33.820312 C 25.65625 33.296875 25.921875 32.800781 26.238281 32.332031 C 26.554688 31.863281 26.914062 31.425781 27.3125 31.027344 C 27.714844 30.628906 28.152344 30.269531 28.621094 29.957031 C 29.09375 29.644531 29.59375 29.378906 30.117188 29.160156 C 30.640625 28.945312 31.179688 28.78125 31.738281 28.671875 C 32.292969 28.5625 32.855469 28.507812 33.421875 28.507812 C 33.988281 28.507812 34.550781 28.5625 35.109375 28.671875 C 35.664062 28.78125 36.207031 28.945312 36.730469 29.160156 C 37.253906 29.378906 37.75 29.644531 38.222656 29.957031 C 38.695312 30.269531 39.132812 30.628906 39.53125 31.027344 C 39.933594 31.425781 40.292969 31.863281 40.605469 32.332031 C 40.921875 32.800781 41.1875 33.296875 41.40625 33.820312 C 41.621094 34.34375 41.785156 34.882812 41.898438 35.433594 C 42.007812 35.988281 42.0625 36.550781 42.0625 37.113281 Z M 42.0625 37.113281 " fill-opacity="1" fill-rule="nonzero"/><path fill="#ffffff" d="M 67.984375 45.722656 C 67.984375 47.332031 67.648438 48.863281 67.046875 50.25 C 68.449219 48.480469 70.222656 47.035156 72.230469 46.003906 C 69.640625 43.898438 67.984375 40.695312 67.984375 37.113281 C 67.984375 33.511719 69.660156 30.296875 72.277344 28.191406 C 70.898438 27.460938 69.34375 27.03125 67.65625 27.03125 C 62.992188 27.03125 59.140625 30.109375 57.964844 34.355469 C 63.605469 35.09375 67.984375 39.902344 67.984375 45.722656 Z M 67.984375 45.722656 " fill-opacity="1" fill-rule="nonzero"/><path fill="#ffffff" d="M 44.941406 37.113281 C 44.941406 40.710938 43.273438 43.921875 40.667969 46.027344 C 42.765625 47.113281 44.597656 48.652344 46.019531 50.542969 C 45.335938 49.074219 44.941406 47.445312 44.941406 45.722656 C 44.941406 40.023438 49.140625 35.292969 54.609375 34.40625 C 53.453125 30.136719 49.589844 27.03125 44.902344 27.03125 C 43.300781 27.03125 41.816406 27.410156 40.496094 28.074219 C 43.195312 30.175781 44.941406 33.445312 44.941406 37.113281 Z M 44.941406 37.113281 " fill-opacity="1" fill-rule="nonzero"/><g fill="#ffffff" fill-opacity="1"><g transform="translate(30.874218, 96.22499)"><g><path d="M 10.40625 -12.375 L 10.40625 -4.390625 C 10.40625 -2.867188 9.992188 -1.71875 9.171875 -0.9375 C 8.359375 -0.164062 7.160156 0.21875 5.578125 0.21875 C 3.992188 0.21875 2.789062 -0.164062 1.96875 -0.9375 C 1.15625 -1.71875 0.75 -2.867188 0.75 -4.390625 L 0.75 -12.375 L 3.5625 -12.375 L 3.5625 -5.21875 C 3.5625 -4.21875 3.71875 -3.519531 4.03125 -3.125 C 4.351562 -2.738281 4.867188 -2.546875 5.578125 -2.546875 C 6.285156 -2.546875 6.796875 -2.738281 7.109375 -3.125 C 7.429688 -3.519531 7.59375 -4.21875 7.59375 -5.21875 L 7.59375 -12.375 Z M 10.40625 -12.375 "/></g></g></g><g fill="#ffffff" fill-opacity="1"><g transform="translate(42.032492, 96.22499)"><g><path d="M 5.453125 -12.59375 C 6.128906 -12.59375 6.785156 -12.492188 7.421875 -12.296875 C 8.066406 -12.109375 8.539062 -11.921875 8.84375 -11.734375 L 9.296875 -11.4375 L 8.15625 -9.1875 C 8.070312 -9.238281 7.945312 -9.3125 7.78125 -9.40625 C 7.625 -9.507812 7.320312 -9.640625 6.875 -9.796875 C 6.4375 -9.953125 6.03125 -10.03125 5.65625 -10.03125 C 5.1875 -10.03125 4.820312 -9.929688 4.5625 -9.734375 C 4.3125 -9.535156 4.1875 -9.265625 4.1875 -8.921875 C 4.1875 -8.753906 4.242188 -8.597656 4.359375 -8.453125 C 4.484375 -8.304688 4.691406 -8.148438 4.984375 -7.984375 C 5.273438 -7.816406 5.53125 -7.679688 5.75 -7.578125 C 5.96875 -7.484375 6.304688 -7.335938 6.765625 -7.140625 C 7.566406 -6.796875 8.25 -6.332031 8.8125 -5.75 C 9.375 -5.164062 9.65625 -4.503906 9.65625 -3.765625 C 9.65625 -3.054688 9.523438 -2.4375 9.265625 -1.90625 C 9.015625 -1.375 8.664062 -0.957031 8.21875 -0.65625 C 7.78125 -0.351562 7.289062 -0.132812 6.75 0 C 6.207031 0.144531 5.625 0.21875 5 0.21875 C 4.457031 0.21875 3.925781 0.160156 3.40625 0.046875 C 2.882812 -0.0546875 2.445312 -0.1875 2.09375 -0.34375 C 1.75 -0.507812 1.4375 -0.671875 1.15625 -0.828125 C 0.875 -0.992188 0.671875 -1.132812 0.546875 -1.25 L 0.34375 -1.40625 L 1.75 -3.78125 C 1.875 -3.675781 2.039062 -3.546875 2.25 -3.390625 C 2.457031 -3.242188 2.828125 -3.039062 3.359375 -2.78125 C 3.898438 -2.519531 4.375 -2.390625 4.78125 -2.390625 C 5.96875 -2.390625 6.5625 -2.789062 6.5625 -3.59375 C 6.5625 -3.769531 6.519531 -3.929688 6.4375 -4.078125 C 6.351562 -4.222656 6.203125 -4.363281 5.984375 -4.5 C 5.773438 -4.644531 5.585938 -4.757812 5.421875 -4.84375 C 5.253906 -4.9375 4.984375 -5.066406 4.609375 -5.234375 C 4.234375 -5.410156 3.957031 -5.546875 3.78125 -5.640625 C 3.03125 -6.003906 2.445312 -6.460938 2.03125 -7.015625 C 1.625 -7.578125 1.421875 -8.175781 1.421875 -8.8125 C 1.421875 -9.925781 1.832031 -10.832031 2.65625 -11.53125 C 3.476562 -12.238281 4.410156 -12.59375 5.453125 -12.59375 Z M 5.453125 -12.59375 "/></g></g></g><g fill="#ffffff" fill-opacity="1"><g transform="translate(52.110933, 96.22499)"><g><path d="M 7.984375 -12.375 L 7.984375 -9.90625 L 3.71875 -9.90625 L 3.71875 -7.4375 L 7.796875 -7.4375 L 7.796875 -4.96875 L 3.71875 -4.96875 L 3.71875 -2.46875 L 7.984375 -2.46875 L 7.984375 0 L 0.90625 0 L 0.90625 -12.375 Z M 7.984375 -12.375 "/></g></g></g><g fill="#ffffff" fill-opacity="1"><g transform="translate(60.809587, 96.22499)"><g><path d="M 0.90625 -12.375 L 5.328125 -12.375 C 6.515625 -12.375 7.484375 -12.054688 8.234375 -11.421875 C 8.984375 -10.785156 9.359375 -9.878906 9.359375 -8.703125 C 9.359375 -7.785156 9.128906 -7.019531 8.671875 -6.40625 C 8.222656 -5.789062 7.609375 -5.359375 6.828125 -5.109375 L 11.078125 0 L 7.5 0 L 3.71875 -4.890625 L 3.71875 0 L 0.90625 0 Z M 3.71875 -6.890625 L 4.046875 -6.890625 C 4.304688 -6.890625 4.523438 -6.894531 4.703125 -6.90625 C 4.890625 -6.914062 5.097656 -6.945312 5.328125 -7 C 5.554688 -7.0625 5.738281 -7.144531 5.875 -7.25 C 6.019531 -7.363281 6.140625 -7.523438 6.234375 -7.734375 C 6.335938 -7.953125 6.390625 -8.207031 6.390625 -8.5 C 6.390625 -8.800781 6.335938 -9.054688 6.234375 -9.265625 C 6.140625 -9.472656 6.019531 -9.632812 5.875 -9.75 C 5.738281 -9.863281 5.554688 -9.945312 5.328125 -10 C 5.097656 -10.0625 4.890625 -10.097656 4.703125 -10.109375 C 4.523438 -10.117188 4.304688 -10.125 4.046875 -10.125 L 3.71875 -10.125 Z M 3.71875 -6.890625 "/></g></g></g><g fill="#ffffff" fill-opacity="1"><g transform="translate(71.547926, 96.22499)"><g><path d="M 5.453125 -12.59375 C 6.128906 -12.59375 6.785156 -12.492188 7.421875 -12.296875 C 8.066406 -12.109375 8.539062 -11.921875 8.84375 -11.734375 L 9.296875 -11.4375 L 8.15625 -9.1875 C 8.070312 -9.238281 7.945312 -9.3125 7.78125 -9.40625 C 7.625 -9.507812 7.320312 -9.640625 6.875 -9.796875 C 6.4375 -9.953125 6.03125 -10.03125 5.65625 -10.03125 C 5.1875 -10.03125 4.820312 -9.929688 4.5625 -9.734375 C 4.3125 -9.535156 4.1875 -9.265625 4.1875 -8.921875 C 4.1875 -8.753906 4.242188 -8.597656 4.359375 -8.453125 C 4.484375 -8.304688 4.691406 -8.148438 4.984375 -7.984375 C 5.273438 -7.816406 5.53125 -7.679688 5.75 -7.578125 C 5.96875 -7.484375 6.304688 -7.335938 6.765625 -7.140625 C 7.566406 -6.796875 8.25 -6.332031 8.8125 -5.75 C 9.375 -5.164062 9.65625 -4.503906 9.65625 -3.765625 C 9.65625 -3.054688 9.523438 -2.4375 9.265625 -1.90625 C 9.015625 -1.375 8.664062 -0.957031 8.21875 -0.65625 C 7.78125 -0.351562 7.289062 -0.132812 6.75 0 C 6.207031 0.144531 5.625 0.21875 5 0.21875 C 4.457031 0.21875 3.925781 0.160156 3.40625 0.046875 C 2.882812 -0.0546875 2.445312 -0.1875 2.09375 -0.34375 C 1.75 -0.507812 1.4375 -0.671875 1.15625 -0.828125 C 0.875 -0.992188 0.671875 -1.132812 0.546875 -1.25 L 0.34375 -1.40625 L 1.75 -3.78125 C 1.875 -3.675781 2.039062 -3.546875 2.25 -3.390625 C 2.457031 -3.242188 2.828125 -3.039062 3.359375 -2.78125 C 3.898438 -2.519531 4.375 -2.390625 4.78125 -2.390625 C 5.96875 -2.390625 6.5625 -2.789062 6.5625 -3.59375 C 6.5625 -3.769531 6.519531 -3.929688 6.4375 -4.078125 C 6.351562 -4.222656 6.203125 -4.363281 5.984375 -4.5 C 5.773438 -4.644531 5.585938 -4.757812 5.421875 -4.84375 C 5.253906 -4.9375 4.984375 -5.066406 4.609375 -5.234375 C 4.234375 -5.410156 3.957031 -5.546875 3.78125 -5.640625 C 3.03125 -6.003906 2.445312 -6.460938 2.03125 -7.015625 C 1.625 -7.578125 1.421875 -8.175781 1.421875 -8.8125 C 1.421875 -9.925781 1.832031 -10.832031 2.65625 -11.53125 C 3.476562 -12.238281 4.410156 -12.59375 5.453125 -12.59375 Z M 5.453125 -12.59375 "/></g></g></g><g fill="#ffffff" fill-opacity="1"><g transform="translate(47.774145, 103.649995)"><g><path d="M 2.21875 0 L 2.109375 -1.46875 L 2.09375 -1.46875 L 1.59375 -0.015625 L 1.25 -0.015625 L 0.75 -1.46875 L 0.734375 -1.46875 L 0.609375 0 L 0.046875 0 L 0.265625 -2.46875 L 0.875 -2.46875 L 1.421875 -1.046875 L 1.96875 -2.46875 L 2.5625 -2.46875 L 2.796875 0 Z M 2.21875 0 "/></g></g></g><g fill="#ffffff" fill-opacity="1"><g transform="translate(50.611024, 103.649995)"><g><path d="M 1.734375 -0.703125 L 0.625 -0.703125 C 0.625 -0.585938 0.65625 -0.503906 0.71875 -0.453125 C 0.789062 -0.398438 0.867188 -0.375 0.953125 -0.375 C 1.035156 -0.375 1.101562 -0.382812 1.15625 -0.40625 C 1.207031 -0.4375 1.265625 -0.484375 1.328125 -0.546875 L 1.71875 -0.359375 C 1.550781 -0.0859375 1.285156 0.046875 0.921875 0.046875 C 0.679688 0.046875 0.476562 -0.03125 0.3125 -0.1875 C 0.144531 -0.351562 0.0625 -0.546875 0.0625 -0.765625 C 0.0625 -0.992188 0.144531 -1.1875 0.3125 -1.34375 C 0.476562 -1.5 0.679688 -1.578125 0.921875 -1.578125 C 1.160156 -1.578125 1.351562 -1.503906 1.5 -1.359375 C 1.65625 -1.222656 1.734375 -1.023438 1.734375 -0.765625 C 1.734375 -0.734375 1.734375 -0.710938 1.734375 -0.703125 Z M 0.640625 -0.984375 L 1.21875 -0.984375 C 1.207031 -1.066406 1.175781 -1.128906 1.125 -1.171875 C 1.070312 -1.210938 1.007812 -1.234375 0.9375 -1.234375 C 0.84375 -1.234375 0.769531 -1.207031 0.71875 -1.15625 C 0.664062 -1.113281 0.640625 -1.054688 0.640625 -0.984375 Z M 0.640625 -0.984375 "/></g></g></g><g fill="#ffffff" fill-opacity="1"><g transform="translate(52.419312, 103.649995)"><g><path d="M 0.28125 -0.1875 C 0.132812 -0.34375 0.0625 -0.535156 0.0625 -0.765625 C 0.0625 -0.992188 0.132812 -1.1875 0.28125 -1.34375 C 0.425781 -1.5 0.609375 -1.578125 0.828125 -1.578125 C 1.035156 -1.578125 1.207031 -1.515625 1.34375 -1.390625 L 1.34375 -2.578125 L 1.875 -2.578125 L 1.875 0 L 1.34375 0 L 1.34375 -0.171875 C 1.207031 -0.0234375 1.035156 0.046875 0.828125 0.046875 C 0.609375 0.046875 0.425781 -0.03125 0.28125 -0.1875 Z M 0.734375 -1.015625 C 0.671875 -0.953125 0.640625 -0.867188 0.640625 -0.765625 C 0.640625 -0.660156 0.671875 -0.570312 0.734375 -0.5 C 0.796875 -0.4375 0.882812 -0.40625 1 -0.40625 C 1.101562 -0.40625 1.1875 -0.4375 1.25 -0.5 C 1.3125 -0.570312 1.34375 -0.660156 1.34375 -0.765625 C 1.34375 -0.867188 1.304688 -0.953125 1.234375 -1.015625 C 1.171875 -1.085938 1.09375 -1.125 1 -1.125 C 0.894531 -1.125 0.804688 -1.085938 0.734375 -1.015625 Z M 0.734375 -1.015625 "/></g></g></g><g fill="#ffffff" fill-opacity="1"><g transform="translate(54.467503, 103.649995)"><g><path d="M 0.234375 -2.390625 C 0.296875 -2.453125 0.367188 -2.484375 0.453125 -2.484375 C 0.535156 -2.484375 0.609375 -2.453125 0.671875 -2.390625 C 0.734375 -2.328125 0.765625 -2.253906 0.765625 -2.171875 C 0.765625 -2.085938 0.734375 -2.015625 0.671875 -1.953125 C 0.609375 -1.890625 0.535156 -1.859375 0.453125 -1.859375 C 0.367188 -1.859375 0.296875 -1.890625 0.234375 -1.953125 C 0.171875 -2.015625 0.140625 -2.085938 0.140625 -2.171875 C 0.140625 -2.253906 0.171875 -2.328125 0.234375 -2.390625 Z M 0.1875 -1.53125 L 0.1875 0 L 0.71875 0 L 0.71875 -1.53125 Z M 0.1875 -1.53125 "/></g></g></g><g fill="#ffffff" fill-opacity="1"><g transform="translate(55.373147, 103.649995)"><g><path d="M 1.09375 -2.515625 C 1.226562 -2.515625 1.359375 -2.492188 1.484375 -2.453125 C 1.609375 -2.421875 1.703125 -2.382812 1.765625 -2.34375 L 1.859375 -2.28125 L 1.625 -1.84375 C 1.613281 -1.851562 1.59375 -1.863281 1.5625 -1.875 C 1.53125 -1.894531 1.46875 -1.921875 1.375 -1.953125 C 1.289062 -1.984375 1.207031 -2 1.125 -2 C 1.03125 -2 0.957031 -1.976562 0.90625 -1.9375 C 0.863281 -1.90625 0.84375 -1.851562 0.84375 -1.78125 C 0.84375 -1.75 0.851562 -1.71875 0.875 -1.6875 C 0.894531 -1.65625 0.929688 -1.625 0.984375 -1.59375 C 1.046875 -1.5625 1.097656 -1.535156 1.140625 -1.515625 C 1.191406 -1.492188 1.265625 -1.460938 1.359375 -1.421875 C 1.515625 -1.359375 1.648438 -1.265625 1.765625 -1.140625 C 1.878906 -1.023438 1.9375 -0.894531 1.9375 -0.75 C 1.9375 -0.613281 1.910156 -0.488281 1.859375 -0.375 C 1.804688 -0.269531 1.734375 -0.1875 1.640625 -0.125 C 1.554688 -0.0703125 1.457031 -0.03125 1.34375 0 C 1.238281 0.03125 1.125 0.046875 1 0.046875 C 0.894531 0.046875 0.789062 0.0351562 0.6875 0.015625 C 0.582031 -0.00390625 0.492188 -0.03125 0.421875 -0.0625 C 0.347656 -0.101562 0.28125 -0.140625 0.21875 -0.171875 C 0.164062 -0.203125 0.128906 -0.226562 0.109375 -0.25 L 0.0625 -0.28125 L 0.34375 -0.75 C 0.375 -0.726562 0.410156 -0.703125 0.453125 -0.671875 C 0.492188 -0.648438 0.566406 -0.613281 0.671875 -0.5625 C 0.773438 -0.507812 0.867188 -0.484375 0.953125 -0.484375 C 1.191406 -0.484375 1.3125 -0.5625 1.3125 -0.71875 C 1.3125 -0.75 1.300781 -0.78125 1.28125 -0.8125 C 1.269531 -0.84375 1.242188 -0.867188 1.203125 -0.890625 C 1.160156 -0.921875 1.117188 -0.945312 1.078125 -0.96875 C 1.046875 -0.988281 0.992188 -1.015625 0.921875 -1.046875 C 0.847656 -1.078125 0.789062 -1.101562 0.75 -1.125 C 0.601562 -1.195312 0.488281 -1.289062 0.40625 -1.40625 C 0.320312 -1.519531 0.28125 -1.640625 0.28125 -1.765625 C 0.28125 -1.984375 0.363281 -2.160156 0.53125 -2.296875 C 0.695312 -2.441406 0.882812 -2.515625 1.09375 -2.515625 Z M 1.09375 -2.515625 "/></g></g></g><g fill="#ffffff" fill-opacity="1"><g transform="translate(57.388352, 103.649995)"><g><path d="M 0.1875 0 L 0.1875 -2.578125 L 0.71875 -2.578125 L 0.71875 -1.375 C 0.851562 -1.507812 1 -1.578125 1.15625 -1.578125 C 1.226562 -1.578125 1.300781 -1.566406 1.375 -1.546875 C 1.457031 -1.535156 1.53125 -1.503906 1.59375 -1.453125 C 1.664062 -1.410156 1.722656 -1.351562 1.765625 -1.28125 C 1.804688 -1.207031 1.828125 -1.117188 1.828125 -1.015625 L 1.828125 0 L 1.296875 0 L 1.296875 -0.875 C 1.296875 -0.945312 1.269531 -1.015625 1.21875 -1.078125 C 1.175781 -1.140625 1.113281 -1.171875 1.03125 -1.171875 C 0.945312 -1.171875 0.875 -1.140625 0.8125 -1.078125 C 0.75 -1.015625 0.71875 -0.945312 0.71875 -0.875 L 0.71875 0 Z M 0.1875 0 "/></g></g></g><g fill="#ffffff" fill-opacity="1"><g transform="translate(59.37057, 103.649995)"><g><path d="M 0.28125 -0.1875 C 0.132812 -0.34375 0.0625 -0.535156 0.0625 -0.765625 C 0.0625 -0.992188 0.132812 -1.1875 0.28125 -1.34375 C 0.425781 -1.5 0.609375 -1.578125 0.828125 -1.578125 C 1.035156 -1.578125 1.207031 -1.515625 1.34375 -1.390625 L 1.34375 -1.53125 L 1.875 -1.53125 L 1.875 0 L 1.34375 0 L 1.34375 -0.171875 C 1.207031 -0.0234375 1.035156 0.046875 0.828125 0.046875 C 0.609375 0.046875 0.425781 -0.03125 0.28125 -0.1875 Z M 0.734375 -1.015625 C 0.671875 -0.953125 0.640625 -0.867188 0.640625 -0.765625 C 0.640625 -0.660156 0.671875 -0.570312 0.734375 -0.5 C 0.796875 -0.4375 0.882812 -0.40625 1 -0.40625 C 1.101562 -0.40625 1.1875 -0.4375 1.25 -0.5 C 1.3125 -0.570312 1.34375 -0.660156 1.34375 -0.765625 C 1.34375 -0.867188 1.304688 -0.953125 1.234375 -1.015625 C 1.171875 -1.085938 1.09375 -1.125 1 -1.125 C 0.894531 -1.125 0.804688 -1.085938 0.734375 -1.015625 Z M 0.734375 -1.015625 "/></g></g></g><g fill="#ffffff" fill-opacity="1"><g transform="translate(61.418761, 103.649995)"><g><path d="M 0.1875 0 L 0.1875 -1.53125 L 0.71875 -1.53125 L 0.71875 -1.3125 C 0.71875 -1.320312 0.722656 -1.332031 0.734375 -1.34375 C 0.742188 -1.351562 0.765625 -1.375 0.796875 -1.40625 C 0.828125 -1.4375 0.859375 -1.460938 0.890625 -1.484375 C 0.921875 -1.515625 0.960938 -1.535156 1.015625 -1.546875 C 1.078125 -1.566406 1.132812 -1.578125 1.1875 -1.578125 C 1.25 -1.578125 1.304688 -1.566406 1.359375 -1.546875 C 1.410156 -1.535156 1.453125 -1.523438 1.484375 -1.515625 L 1.53125 -1.484375 L 1.296875 -1.03125 C 1.234375 -1.09375 1.144531 -1.125 1.03125 -1.125 C 0.96875 -1.125 0.910156 -1.109375 0.859375 -1.078125 C 0.816406 -1.046875 0.785156 -1.007812 0.765625 -0.96875 C 0.742188 -0.9375 0.726562 -0.90625 0.71875 -0.875 C 0.71875 -0.84375 0.71875 -0.820312 0.71875 -0.8125 L 0.71875 0 Z M 0.1875 0 "/></g></g></g><g fill="#ffffff" fill-opacity="1"><g transform="translate(62.912171, 103.649995)"><g><path d="M 1.734375 -0.703125 L 0.625 -0.703125 C 0.625 -0.585938 0.65625 -0.503906 0.71875 -0.453125 C 0.789062 -0.398438 0.867188 -0.375 0.953125 -0.375 C 1.035156 -0.375 1.101562 -0.382812 1.15625 -0.40625 C 1.207031 -0.4375 1.265625 -0.484375 1.328125 -0.546875 L 1.71875 -0.359375 C 1.550781 -0.0859375 1.285156 0.046875 0.921875 0.046875 C 0.679688 0.046875 0.476562 -0.03125 0.3125 -0.1875 C 0.144531 -0.351562 0.0625 -0.546875 0.0625 -0.765625 C 0.0625 -0.992188 0.144531 -1.1875 0.3125 -1.34375 C 0.476562 -1.5 0.679688 -1.578125 0.921875 -1.578125 C 1.160156 -1.578125 1.351562 -1.503906 1.5 -1.359375 C 1.65625 -1.222656 1.734375 -1.023438 1.734375 -0.765625 C 1.734375 -0.734375 1.734375 -0.710938 1.734375 -0.703125 Z M 0.640625 -0.984375 L 1.21875 -0.984375 C 1.207031 -1.066406 1.175781 -1.128906 1.125 -1.171875 C 1.070312 -1.210938 1.007812 -1.234375 0.9375 -1.234375 C 0.84375 -1.234375 0.769531 -1.207031 0.71875 -1.15625 C 0.664062 -1.113281 0.640625 -1.054688 0.640625 -0.984375 Z M 0.640625 -0.984375 "/></g></g></g></svg>