<svg xmlns="http://www.w3.org/2000/svg" xmlns:xlink="http://www.w3.org/1999/xlink" width="150" zoomAndPan="magnify" viewBox="0 0 112.5 112.499997" height="150" preserveAspectRatio="xMidYMid meet" version="1.0"><defs><g/><clipPath id="a8108161f4"><path d="M 0 0 L 112.003906 0 L 112.003906 112.003906 L 0 112.003906 Z M 0 0 " clip-rule="nonzero"/></clipPath><clipPath id="7cc91ca959"><path d="M 33.429688 33 L 79.179688 33 L 79.179688 75.75 L 33.429688 75.75 Z M 33.429688 33 " clip-rule="nonzero"/></clipPath><clipPath id="e3a23c8839"><path d="M 47 11.25 L 66 11.25 L 66 30 L 47 30 Z M 47 11.25 " clip-rule="nonzero"/></clipPath></defs><g clip-path="url(#a8108161f4)"><path fill="#ffffff" d="M 0 0 L 112.5 0 L 112.5 120 L 0 120 Z M 0 0 " fill-opacity="1" fill-rule="nonzero"/><path fill="#ffffff" d="M 0 0 L 112.5 0 L 112.5 112.5 L 0 112.5 Z M 0 0 " fill-opacity="1" fill-rule="nonzero"/><path fill="#46a49e" d="M 0 0 L 112.5 0 L 112.5 112.5 L 0 112.5 Z M 0 0 " fill-opacity="1" fill-rule="nonzero"/></g><g clip-path="url(#7cc91ca959)"><path fill="#ffffff" d="M 44.488281 51.480469 L 44.488281 53.707031 L 43.34375 53.335938 L 44.3125 51.425781 L 44.488281 51.078125 Z M 72.195312 35.507812 C 71.585938 34.46875 70.605469 33.746094 69.429688 33.472656 C 68.9375 33.359375 68.4375 33.335938 67.953125 33.390625 L 46.117188 33.21875 C 43.375 33.21875 41.074219 35.035156 40.277344 37.527344 L 35.105469 50.304688 L 33.871094 53.351562 L 33.496094 55.105469 L 33.519531 55.664062 C 33.460938 56.15625 33.484375 56.640625 33.582031 57.105469 C 33.601562 57.1875 33.621094 57.269531 33.644531 57.347656 C 34.042969 58.816406 35.195312 60.035156 36.769531 60.449219 L 41.597656 61.707031 L 41.644531 61.722656 L 44.488281 62.464844 L 55.960938 65.460938 C 57.917969 65.972656 59.964844 64.867188 60.589844 62.917969 C 60.597656 62.890625 60.605469 62.867188 60.613281 62.84375 C 60.625 62.800781 60.636719 62.753906 60.648438 62.710938 C 60.648438 62.707031 60.652344 62.699219 60.652344 62.691406 L 60.683594 62.574219 C 60.917969 61.519531 60.691406 60.453125 60.121094 59.605469 C 59.984375 59.390625 59.820312 59.195312 59.640625 59.015625 C 59.453125 58.824219 59.242188 58.65625 59.015625 58.511719 C 58.738281 58.332031 58.433594 58.183594 58.105469 58.078125 L 51.53125 55.96875 L 50.324219 55.578125 L 49.039062 55.167969 C 48.46875 54.386719 47.933594 53.539062 47.648438 52.613281 C 47.632812 52.570312 47.621094 52.527344 47.605469 52.480469 C 47.488281 52.070312 47.421875 51.644531 47.421875 51.203125 C 47.421875 50.003906 47.878906 48.808594 48.800781 47.886719 C 50.625 46.0625 53.597656 46.0625 55.421875 47.886719 L 56.480469 48.945312 L 57.554688 47.886719 C 59.378906 46.0625 62.351562 46.0625 64.175781 47.886719 C 65.097656 48.808594 65.558594 50.003906 65.558594 51.203125 C 65.558594 52.722656 64.761719 54.054688 63.882812 55.238281 C 63.207031 56.15625 62.492188 57.039062 61.734375 57.890625 C 61.691406 57.9375 61.648438 57.988281 61.601562 58.039062 C 62.683594 59.390625 63.113281 61.140625 62.789062 62.84375 C 62.742188 63.082031 62.683594 63.324219 62.605469 63.566406 C 62.203125 64.824219 61.417969 65.859375 60.414062 66.578125 C 59.414062 67.296875 58.195312 67.703125 56.929688 67.703125 C 56.433594 67.703125 55.929688 67.640625 55.429688 67.511719 L 44.488281 64.652344 L 44.488281 75.738281 L 68.632812 75.738281 L 68.574219 46.097656 L 71.238281 49.671875 L 71.242188 49.84375 L 71.660156 63.886719 C 71.714844 65.773438 73.261719 67.277344 75.148438 67.277344 C 77.03125 67.277344 78.578125 65.773438 78.632812 63.886719 L 79.125 47.304688 L 72.195312 35.507812 " fill-opacity="1" fill-rule="nonzero"/></g><g clip-path="url(#e3a23c8839)"><path fill="#ffffff" d="M 56.5625 29.578125 C 61.617188 29.578125 65.714844 25.476562 65.714844 20.421875 C 65.714844 15.363281 61.617188 11.261719 56.5625 11.261719 C 51.507812 11.261719 47.410156 15.363281 47.410156 20.421875 C 47.410156 25.476562 51.507812 29.578125 56.5625 29.578125 " fill-opacity="1" fill-rule="nonzero"/></g><g fill="#ffffff" fill-opacity="1"><g transform="translate(28.420312, 96.22499)"><g><path d="M 0.90625 -12.375 L 4.484375 -12.375 C 6.203125 -12.375 7.671875 -11.785156 8.890625 -10.609375 C 10.109375 -9.429688 10.71875 -7.957031 10.71875 -6.1875 C 10.71875 -4.414062 10.109375 -2.941406 8.890625 -1.765625 C 7.679688 -0.585938 6.210938 0 4.484375 0 L 0.90625 0 Z M 3.71875 -2.515625 L 4.15625 -2.515625 C 5.1875 -2.515625 6.03125 -2.863281 6.6875 -3.5625 C 7.34375 -4.257812 7.675781 -5.132812 7.6875 -6.1875 C 7.6875 -7.226562 7.359375 -8.097656 6.703125 -8.796875 C 6.046875 -9.503906 5.195312 -9.859375 4.15625 -9.859375 L 3.71875 -9.859375 Z M 3.71875 -2.515625 "/></g></g></g><g fill="#ffffff" fill-opacity="1"><g transform="translate(39.488597, 96.22499)"><g><path d="M 1.625 -0.921875 C 0.769531 -1.679688 0.34375 -2.65625 0.34375 -3.84375 C 0.34375 -5.03125 0.785156 -6.003906 1.671875 -6.765625 C 2.566406 -7.535156 3.671875 -7.921875 4.984375 -7.921875 C 6.273438 -7.921875 7.359375 -7.535156 8.234375 -6.765625 C 9.117188 -5.992188 9.5625 -5.015625 9.5625 -3.828125 C 9.5625 -2.648438 9.128906 -1.679688 8.265625 -0.921875 C 7.398438 -0.160156 6.304688 0.21875 4.984375 0.21875 C 3.597656 0.21875 2.476562 -0.160156 1.625 -0.921875 Z M 3.6875 -5.140625 C 3.34375 -4.804688 3.171875 -4.375 3.171875 -3.84375 C 3.171875 -3.3125 3.332031 -2.878906 3.65625 -2.546875 C 3.988281 -2.210938 4.425781 -2.046875 4.96875 -2.046875 C 5.488281 -2.046875 5.914062 -2.210938 6.25 -2.546875 C 6.582031 -2.890625 6.75 -3.320312 6.75 -3.84375 C 6.75 -4.375 6.578125 -4.804688 6.234375 -5.140625 C 5.890625 -5.484375 5.46875 -5.65625 4.96875 -5.65625 C 4.457031 -5.65625 4.03125 -5.484375 3.6875 -5.140625 Z M 3.6875 -5.140625 "/></g></g></g><g fill="#ffffff" fill-opacity="1"><g transform="translate(49.402062, 96.22499)"><g><path d="M 0.90625 0 L 0.90625 -7.6875 L 3.5625 -7.6875 L 3.5625 -6.890625 L 3.578125 -6.890625 C 4.273438 -7.578125 5.015625 -7.921875 5.796875 -7.921875 C 6.171875 -7.921875 6.546875 -7.867188 6.921875 -7.765625 C 7.296875 -7.671875 7.65625 -7.515625 8 -7.296875 C 8.34375 -7.085938 8.625 -6.789062 8.84375 -6.40625 C 9.0625 -6.019531 9.171875 -5.570312 9.171875 -5.0625 L 9.171875 0 L 6.515625 0 L 6.515625 -4.34375 C 6.515625 -4.75 6.382812 -5.097656 6.125 -5.390625 C 5.875 -5.691406 5.539062 -5.84375 5.125 -5.84375 C 4.726562 -5.84375 4.367188 -5.6875 4.046875 -5.375 C 3.722656 -5.070312 3.5625 -4.726562 3.5625 -4.34375 L 3.5625 0 Z M 0.90625 0 "/></g></g></g><g fill="#ffffff" fill-opacity="1"><g transform="translate(59.315526, 96.22499)"><g><path d="M 1.625 -0.921875 C 0.769531 -1.679688 0.34375 -2.65625 0.34375 -3.84375 C 0.34375 -5.03125 0.785156 -6.003906 1.671875 -6.765625 C 2.566406 -7.535156 3.671875 -7.921875 4.984375 -7.921875 C 6.273438 -7.921875 7.359375 -7.535156 8.234375 -6.765625 C 9.117188 -5.992188 9.5625 -5.015625 9.5625 -3.828125 C 9.5625 -2.648438 9.128906 -1.679688 8.265625 -0.921875 C 7.398438 -0.160156 6.304688 0.21875 4.984375 0.21875 C 3.597656 0.21875 2.476562 -0.160156 1.625 -0.921875 Z M 3.6875 -5.140625 C 3.34375 -4.804688 3.171875 -4.375 3.171875 -3.84375 C 3.171875 -3.3125 3.332031 -2.878906 3.65625 -2.546875 C 3.988281 -2.210938 4.425781 -2.046875 4.96875 -2.046875 C 5.488281 -2.046875 5.914062 -2.210938 6.25 -2.546875 C 6.582031 -2.890625 6.75 -3.320312 6.75 -3.84375 C 6.75 -4.375 6.578125 -4.804688 6.234375 -5.140625 C 5.890625 -5.484375 5.46875 -5.65625 4.96875 -5.65625 C 4.457031 -5.65625 4.03125 -5.484375 3.6875 -5.140625 Z M 3.6875 -5.140625 "/></g></g></g><g fill="#ffffff" fill-opacity="1"><g transform="translate(69.22899, 96.22499)"><g><path d="M 0.90625 0 L 0.90625 -7.6875 L 3.5625 -7.6875 L 3.5625 -6.578125 L 3.578125 -6.578125 C 3.597656 -6.617188 3.628906 -6.671875 3.671875 -6.734375 C 3.722656 -6.796875 3.820312 -6.898438 3.96875 -7.046875 C 4.125 -7.203125 4.285156 -7.335938 4.453125 -7.453125 C 4.617188 -7.578125 4.835938 -7.6875 5.109375 -7.78125 C 5.378906 -7.875 5.65625 -7.921875 5.9375 -7.921875 C 6.226562 -7.921875 6.515625 -7.878906 6.796875 -7.796875 C 7.078125 -7.722656 7.28125 -7.644531 7.40625 -7.5625 L 7.625 -7.4375 L 6.515625 -5.1875 C 6.179688 -5.46875 5.71875 -5.609375 5.125 -5.609375 C 4.8125 -5.609375 4.535156 -5.535156 4.296875 -5.390625 C 4.066406 -5.253906 3.90625 -5.085938 3.8125 -4.890625 C 3.71875 -4.691406 3.648438 -4.519531 3.609375 -4.375 C 3.578125 -4.238281 3.5625 -4.128906 3.5625 -4.046875 L 3.5625 0 Z M 0.90625 0 "/></g></g></g><g fill="#ffffff" fill-opacity="1"><g transform="translate(76.697836, 96.22499)"><g><path d="M 4.25 -7.921875 C 4.6875 -7.921875 5.117188 -7.867188 5.546875 -7.765625 C 5.972656 -7.671875 6.296875 -7.570312 6.515625 -7.46875 L 6.828125 -7.3125 L 5.953125 -5.578125 C 5.359375 -5.898438 4.789062 -6.0625 4.25 -6.0625 C 3.945312 -6.0625 3.734375 -6.023438 3.609375 -5.953125 C 3.484375 -5.890625 3.421875 -5.769531 3.421875 -5.59375 C 3.421875 -5.550781 3.425781 -5.507812 3.4375 -5.46875 C 3.445312 -5.4375 3.46875 -5.398438 3.5 -5.359375 C 3.53125 -5.328125 3.554688 -5.296875 3.578125 -5.265625 C 3.597656 -5.242188 3.640625 -5.21875 3.703125 -5.1875 C 3.765625 -5.15625 3.8125 -5.128906 3.84375 -5.109375 C 3.882812 -5.097656 3.941406 -5.078125 4.015625 -5.046875 C 4.097656 -5.023438 4.160156 -5.003906 4.203125 -4.984375 C 4.242188 -4.972656 4.3125 -4.953125 4.40625 -4.921875 C 4.5 -4.890625 4.570312 -4.867188 4.625 -4.859375 C 4.925781 -4.765625 5.191406 -4.660156 5.421875 -4.546875 C 5.660156 -4.441406 5.90625 -4.296875 6.15625 -4.109375 C 6.414062 -3.921875 6.613281 -3.679688 6.75 -3.390625 C 6.882812 -3.097656 6.953125 -2.769531 6.953125 -2.40625 C 6.953125 -0.65625 5.738281 0.21875 3.3125 0.21875 C 2.757812 0.21875 2.234375 0.132812 1.734375 -0.03125 C 1.242188 -0.195312 0.890625 -0.367188 0.671875 -0.546875 L 0.34375 -0.8125 L 1.421875 -2.625 C 1.503906 -2.550781 1.609375 -2.46875 1.734375 -2.375 C 1.867188 -2.28125 2.101562 -2.148438 2.4375 -1.984375 C 2.78125 -1.816406 3.078125 -1.734375 3.328125 -1.734375 C 3.878906 -1.734375 4.15625 -1.921875 4.15625 -2.296875 C 4.15625 -2.460938 4.082031 -2.59375 3.9375 -2.6875 C 3.800781 -2.78125 3.566406 -2.882812 3.234375 -3 C 2.898438 -3.125 2.632812 -3.238281 2.4375 -3.34375 C 1.957031 -3.59375 1.578125 -3.875 1.296875 -4.1875 C 1.023438 -4.507812 0.890625 -4.925781 0.890625 -5.4375 C 0.890625 -6.21875 1.191406 -6.828125 1.796875 -7.265625 C 2.398438 -7.703125 3.21875 -7.921875 4.25 -7.921875 Z M 4.25 -7.921875 "/></g></g></g><g fill="#ffffff" fill-opacity="1"><g transform="translate(47.774145, 103.649995)"><g><path d="M 2.21875 0 L 2.109375 -1.46875 L 2.09375 -1.46875 L 1.59375 -0.015625 L 1.25 -0.015625 L 0.75 -1.46875 L 0.734375 -1.46875 L 0.609375 0 L 0.046875 0 L 0.265625 -2.46875 L 0.875 -2.46875 L 1.421875 -1.046875 L 1.96875 -2.46875 L 2.5625 -2.46875 L 2.796875 0 Z M 2.21875 0 "/></g></g></g><g fill="#ffffff" fill-opacity="1"><g transform="translate(50.611024, 103.649995)"><g><path d="M 1.734375 -0.703125 L 0.625 -0.703125 C 0.625 -0.585938 0.65625 -0.503906 0.71875 -0.453125 C 0.789062 -0.398438 0.867188 -0.375 0.953125 -0.375 C 1.035156 -0.375 1.101562 -0.382812 1.15625 -0.40625 C 1.207031 -0.4375 1.265625 -0.484375 1.328125 -0.546875 L 1.71875 -0.359375 C 1.550781 -0.0859375 1.285156 0.046875 0.921875 0.046875 C 0.679688 0.046875 0.476562 -0.03125 0.3125 -0.1875 C 0.144531 -0.351562 0.0625 -0.546875 0.0625 -0.765625 C 0.0625 -0.992188 0.144531 -1.1875 0.3125 -1.34375 C 0.476562 -1.5 0.679688 -1.578125 0.921875 -1.578125 C 1.160156 -1.578125 1.351562 -1.503906 1.5 -1.359375 C 1.65625 -1.222656 1.734375 -1.023438 1.734375 -0.765625 C 1.734375 -0.734375 1.734375 -0.710938 1.734375 -0.703125 Z M 0.640625 -0.984375 L 1.21875 -0.984375 C 1.207031 -1.066406 1.175781 -1.128906 1.125 -1.171875 C 1.070312 -1.210938 1.007812 -1.234375 0.9375 -1.234375 C 0.84375 -1.234375 0.769531 -1.207031 0.71875 -1.15625 C 0.664062 -1.113281 0.640625 -1.054688 0.640625 -0.984375 Z M 0.640625 -0.984375 "/></g></g></g><g fill="#ffffff" fill-opacity="1"><g transform="translate(52.419312, 103.649995)"><g><path d="M 0.28125 -0.1875 C 0.132812 -0.34375 0.0625 -0.535156 0.0625 -0.765625 C 0.0625 -0.992188 0.132812 -1.1875 0.28125 -1.34375 C 0.425781 -1.5 0.609375 -1.578125 0.828125 -1.578125 C 1.035156 -1.578125 1.207031 -1.515625 1.34375 -1.390625 L 1.34375 -2.578125 L 1.875 -2.578125 L 1.875 0 L 1.34375 0 L 1.34375 -0.171875 C 1.207031 -0.0234375 1.035156 0.046875 0.828125 0.046875 C 0.609375 0.046875 0.425781 -0.03125 0.28125 -0.1875 Z M 0.734375 -1.015625 C 0.671875 -0.953125 0.640625 -0.867188 0.640625 -0.765625 C 0.640625 -0.660156 0.671875 -0.570312 0.734375 -0.5 C 0.796875 -0.4375 0.882812 -0.40625 1 -0.40625 C 1.101562 -0.40625 1.1875 -0.4375 1.25 -0.5 C 1.3125 -0.570312 1.34375 -0.660156 1.34375 -0.765625 C 1.34375 -0.867188 1.304688 -0.953125 1.234375 -1.015625 C 1.171875 -1.085938 1.09375 -1.125 1 -1.125 C 0.894531 -1.125 0.804688 -1.085938 0.734375 -1.015625 Z M 0.734375 -1.015625 "/></g></g></g><g fill="#ffffff" fill-opacity="1"><g transform="translate(54.467503, 103.649995)"><g><path d="M 0.234375 -2.390625 C 0.296875 -2.453125 0.367188 -2.484375 0.453125 -2.484375 C 0.535156 -2.484375 0.609375 -2.453125 0.671875 -2.390625 C 0.734375 -2.328125 0.765625 -2.253906 0.765625 -2.171875 C 0.765625 -2.085938 0.734375 -2.015625 0.671875 -1.953125 C 0.609375 -1.890625 0.535156 -1.859375 0.453125 -1.859375 C 0.367188 -1.859375 0.296875 -1.890625 0.234375 -1.953125 C 0.171875 -2.015625 0.140625 -2.085938 0.140625 -2.171875 C 0.140625 -2.253906 0.171875 -2.328125 0.234375 -2.390625 Z M 0.1875 -1.53125 L 0.1875 0 L 0.71875 0 L 0.71875 -1.53125 Z M 0.1875 -1.53125 "/></g></g></g><g fill="#ffffff" fill-opacity="1"><g transform="translate(55.373147, 103.649995)"><g><path d="M 1.09375 -2.515625 C 1.226562 -2.515625 1.359375 -2.492188 1.484375 -2.453125 C 1.609375 -2.421875 1.703125 -2.382812 1.765625 -2.34375 L 1.859375 -2.28125 L 1.625 -1.84375 C 1.613281 -1.851562 1.59375 -1.863281 1.5625 -1.875 C 1.53125 -1.894531 1.46875 -1.921875 1.375 -1.953125 C 1.289062 -1.984375 1.207031 -2 1.125 -2 C 1.03125 -2 0.957031 -1.976562 0.90625 -1.9375 C 0.863281 -1.90625 0.84375 -1.851562 0.84375 -1.78125 C 0.84375 -1.75 0.851562 -1.71875 0.875 -1.6875 C 0.894531 -1.65625 0.929688 -1.625 0.984375 -1.59375 C 1.046875 -1.5625 1.097656 -1.535156 1.140625 -1.515625 C 1.191406 -1.492188 1.265625 -1.460938 1.359375 -1.421875 C 1.515625 -1.359375 1.648438 -1.265625 1.765625 -1.140625 C 1.878906 -1.023438 1.9375 -0.894531 1.9375 -0.75 C 1.9375 -0.613281 1.910156 -0.488281 1.859375 -0.375 C 1.804688 -0.269531 1.734375 -0.1875 1.640625 -0.125 C 1.554688 -0.0703125 1.457031 -0.03125 1.34375 0 C 1.238281 0.03125 1.125 0.046875 1 0.046875 C 0.894531 0.046875 0.789062 0.0351562 0.6875 0.015625 C 0.582031 -0.00390625 0.492188 -0.03125 0.421875 -0.0625 C 0.347656 -0.101562 0.28125 -0.140625 0.21875 -0.171875 C 0.164062 -0.203125 0.128906 -0.226562 0.109375 -0.25 L 0.0625 -0.28125 L 0.34375 -0.75 C 0.375 -0.726562 0.410156 -0.703125 0.453125 -0.671875 C 0.492188 -0.648438 0.566406 -0.613281 0.671875 -0.5625 C 0.773438 -0.507812 0.867188 -0.484375 0.953125 -0.484375 C 1.191406 -0.484375 1.3125 -0.5625 1.3125 -0.71875 C 1.3125 -0.75 1.300781 -0.78125 1.28125 -0.8125 C 1.269531 -0.84375 1.242188 -0.867188 1.203125 -0.890625 C 1.160156 -0.921875 1.117188 -0.945312 1.078125 -0.96875 C 1.046875 -0.988281 0.992188 -1.015625 0.921875 -1.046875 C 0.847656 -1.078125 0.789062 -1.101562 0.75 -1.125 C 0.601562 -1.195312 0.488281 -1.289062 0.40625 -1.40625 C 0.320312 -1.519531 0.28125 -1.640625 0.28125 -1.765625 C 0.28125 -1.984375 0.363281 -2.160156 0.53125 -2.296875 C 0.695312 -2.441406 0.882812 -2.515625 1.09375 -2.515625 Z M 1.09375 -2.515625 "/></g></g></g><g fill="#ffffff" fill-opacity="1"><g transform="translate(57.388352, 103.649995)"><g><path d="M 0.1875 0 L 0.1875 -2.578125 L 0.71875 -2.578125 L 0.71875 -1.375 C 0.851562 -1.507812 1 -1.578125 1.15625 -1.578125 C 1.226562 -1.578125 1.300781 -1.566406 1.375 -1.546875 C 1.457031 -1.535156 1.53125 -1.503906 1.59375 -1.453125 C 1.664062 -1.410156 1.722656 -1.351562 1.765625 -1.28125 C 1.804688 -1.207031 1.828125 -1.117188 1.828125 -1.015625 L 1.828125 0 L 1.296875 0 L 1.296875 -0.875 C 1.296875 -0.945312 1.269531 -1.015625 1.21875 -1.078125 C 1.175781 -1.140625 1.113281 -1.171875 1.03125 -1.171875 C 0.945312 -1.171875 0.875 -1.140625 0.8125 -1.078125 C 0.75 -1.015625 0.71875 -0.945312 0.71875 -0.875 L 0.71875 0 Z M 0.1875 0 "/></g></g></g><g fill="#ffffff" fill-opacity="1"><g transform="translate(59.37057, 103.649995)"><g><path d="M 0.28125 -0.1875 C 0.132812 -0.34375 0.0625 -0.535156 0.0625 -0.765625 C 0.0625 -0.992188 0.132812 -1.1875 0.28125 -1.34375 C 0.425781 -1.5 0.609375 -1.578125 0.828125 -1.578125 C 1.035156 -1.578125 1.207031 -1.515625 1.34375 -1.390625 L 1.34375 -1.53125 L 1.875 -1.53125 L 1.875 0 L 1.34375 0 L 1.34375 -0.171875 C 1.207031 -0.0234375 1.035156 0.046875 0.828125 0.046875 C 0.609375 0.046875 0.425781 -0.03125 0.28125 -0.1875 Z M 0.734375 -1.015625 C 0.671875 -0.953125 0.640625 -0.867188 0.640625 -0.765625 C 0.640625 -0.660156 0.671875 -0.570312 0.734375 -0.5 C 0.796875 -0.4375 0.882812 -0.40625 1 -0.40625 C 1.101562 -0.40625 1.1875 -0.4375 1.25 -0.5 C 1.3125 -0.570312 1.34375 -0.660156 1.34375 -0.765625 C 1.34375 -0.867188 1.304688 -0.953125 1.234375 -1.015625 C 1.171875 -1.085938 1.09375 -1.125 1 -1.125 C 0.894531 -1.125 0.804688 -1.085938 0.734375 -1.015625 Z M 0.734375 -1.015625 "/></g></g></g><g fill="#ffffff" fill-opacity="1"><g transform="translate(61.418761, 103.649995)"><g><path d="M 0.1875 0 L 0.1875 -1.53125 L 0.71875 -1.53125 L 0.71875 -1.3125 C 0.71875 -1.320312 0.722656 -1.332031 0.734375 -1.34375 C 0.742188 -1.351562 0.765625 -1.375 0.796875 -1.40625 C 0.828125 -1.4375 0.859375 -1.460938 0.890625 -1.484375 C 0.921875 -1.515625 0.960938 -1.535156 1.015625 -1.546875 C 1.078125 -1.566406 1.132812 -1.578125 1.1875 -1.578125 C 1.25 -1.578125 1.304688 -1.566406 1.359375 -1.546875 C 1.410156 -1.535156 1.453125 -1.523438 1.484375 -1.515625 L 1.53125 -1.484375 L 1.296875 -1.03125 C 1.234375 -1.09375 1.144531 -1.125 1.03125 -1.125 C 0.96875 -1.125 0.910156 -1.109375 0.859375 -1.078125 C 0.816406 -1.046875 0.785156 -1.007812 0.765625 -0.96875 C 0.742188 -0.9375 0.726562 -0.90625 0.71875 -0.875 C 0.71875 -0.84375 0.71875 -0.820312 0.71875 -0.8125 L 0.71875 0 Z M 0.1875 0 "/></g></g></g><g fill="#ffffff" fill-opacity="1"><g transform="translate(62.912171, 103.649995)"><g><path d="M 1.734375 -0.703125 L 0.625 -0.703125 C 0.625 -0.585938 0.65625 -0.503906 0.71875 -0.453125 C 0.789062 -0.398438 0.867188 -0.375 0.953125 -0.375 C 1.035156 -0.375 1.101562 -0.382812 1.15625 -0.40625 C 1.207031 -0.4375 1.265625 -0.484375 1.328125 -0.546875 L 1.71875 -0.359375 C 1.550781 -0.0859375 1.285156 0.046875 0.921875 0.046875 C 0.679688 0.046875 0.476562 -0.03125 0.3125 -0.1875 C 0.144531 -0.351562 0.0625 -0.546875 0.0625 -0.765625 C 0.0625 -0.992188 0.144531 -1.1875 0.3125 -1.34375 C 0.476562 -1.5 0.679688 -1.578125 0.921875 -1.578125 C 1.160156 -1.578125 1.351562 -1.503906 1.5 -1.359375 C 1.65625 -1.222656 1.734375 -1.023438 1.734375 -0.765625 C 1.734375 -0.734375 1.734375 -0.710938 1.734375 -0.703125 Z M 0.640625 -0.984375 L 1.21875 -0.984375 C 1.207031 -1.066406 1.175781 -1.128906 1.125 -1.171875 C 1.070312 -1.210938 1.007812 -1.234375 0.9375 -1.234375 C 0.84375 -1.234375 0.769531 -1.207031 0.71875 -1.15625 C 0.664062 -1.113281 0.640625 -1.054688 0.640625 -0.984375 Z M 0.640625 -0.984375 "/></g></g></g></svg>